{"glyphs":{"0":{"ha":975,"x_min":77,"x_max":898,"o":"m 77 427 q 130 657 77 559 q 278 809 182 755 q 498 862 373 862 q 805 744 712 862 q 898 432 898 626 q 847 199 898 300 q 702 44 796 99 q 481 -11 608 -11 q 248 48 338 -11 q 118 206 158 108 q 77 427 77 304 m 645 419 q 628 557 645 496 q 575 655 611 619 q 488 692 540 692 q 370 625 411 692 q 329 441 329 559 q 347 302 329 366 q 401 199 364 238 q 490 160 437 160 q 606 228 566 160 q 645 419 645 295 z "},"1":{"ha":718,"x_min":85,"x_max":522,"o":"m 259 595 q 105 567 199 582 l 85 719 q 191 755 128 729 q 311 812 254 781 q 397 867 368 843 l 522 847 l 520 0 l 259 0 l 259 595 z "},"2":{"ha":962,"x_min":95,"x_max":856,"o":"m 856 213 l 856 0 l 129 0 l 95 115 q 286 230 184 159 q 459 386 387 301 q 532 550 532 471 q 503 642 532 607 q 406 677 474 677 q 283 653 344 677 q 184 593 222 628 l 100 738 q 185 802 131 770 q 312 855 239 833 q 463 876 384 876 q 663 838 586 876 q 773 739 740 800 q 807 603 807 677 q 724 383 807 482 q 481 188 641 283 l 856 213 z "},"3":{"ha":814,"x_min":46,"x_max":755,"o":"m 532 361 q 659 313 608 350 q 732 226 709 277 q 755 121 755 176 q 699 -58 755 20 q 538 -181 642 -137 q 299 -226 435 -225 q 186 -216 237 -226 q 84 -191 136 -206 l 83 -26 q 239 -47 176 -47 q 369 -27 313 -47 q 456 31 425 -7 q 487 123 487 69 q 449 229 487 190 q 326 264 411 268 l 233 243 l 199 398 q 287 420 246 407 q 356 447 328 433 q 445 579 445 497 q 412 652 445 626 q 323 677 380 677 q 211 658 260 677 q 118 608 161 639 l 46 765 q 119 811 66 787 q 241 852 172 836 q 374 868 310 868 q 551 839 477 868 q 663 755 625 810 q 702 624 702 701 q 532 361 702 456 z "},"4":{"ha":985,"x_min":54,"x_max":949,"o":"m 949 0 l 798 0 l 798 -255 l 557 -255 l 557 0 l 113 0 l 54 90 l 430 910 l 482 910 l 679 817 l 395 292 l 328 178 l 557 178 l 583 430 l 798 430 l 798 178 l 949 178 l 949 0 z "},"5":{"ha":895,"x_min":117,"x_max":800,"o":"m 117 -66 q 172 -67 155 -67 q 371 -39 288 -67 q 498 40 454 -10 q 542 155 542 90 q 500 252 542 220 q 368 285 458 284 q 171 241 295 285 l 126 264 l 169 849 l 769 849 l 747 645 l 349 645 l 328 437 q 498 464 416 464 q 663 428 595 464 q 765 326 730 393 q 800 165 800 258 q 729 -51 800 43 q 526 -196 658 -144 q 218 -248 394 -248 q 166 -245 196 -248 q 117 -238 136 -243 l 117 -66 z "},"6":{"ha":987,"x_min":80,"x_max":907,"o":"m 743 972 q 529 860 618 941 q 393 672 439 779 q 347 459 347 566 q 386 240 347 320 q 507 161 425 161 q 620 207 581 161 q 658 337 658 252 q 625 474 658 431 q 538 517 591 517 q 491 511 508 517 q 449 494 473 506 l 403 625 q 444 659 414 641 q 518 691 473 677 q 616 704 562 704 q 767 663 701 704 q 870 550 833 623 q 907 385 907 477 q 860 185 907 275 q 717 42 812 95 q 484 -11 622 -11 q 276 45 368 -11 q 132 199 184 100 q 80 422 80 298 q 176 769 80 616 q 413 1014 271 923 q 686 1121 555 1105 l 743 972 z "},"7":{"ha":905,"x_min":83,"x_max":842,"o":"m 83 630 l 83 862 l 787 862 l 842 783 l 441 -267 l 193 -198 q 383 222 253 -72 q 559 629 513 517 l 83 630 z "},"8":{"ha":951,"x_min":80,"x_max":877,"o":"m 877 285 q 826 126 877 193 q 687 24 776 60 q 486 -11 598 -11 q 269 23 361 -11 q 129 121 178 58 q 80 269 80 184 q 125 411 80 346 q 267 523 170 477 q 154 636 195 572 q 113 789 113 700 q 155 927 113 865 q 279 1025 197 989 q 474 1061 361 1061 q 668 1030 587 1061 q 789 943 748 998 q 831 815 831 887 q 788 669 831 738 q 659 559 746 601 q 819 440 762 504 q 877 285 877 376 m 477 909 q 408 895 438 909 q 361 859 378 882 q 345 810 345 836 q 388 719 345 758 q 510 637 430 679 q 587 706 563 663 q 610 805 612 750 q 575 880 610 851 q 477 909 540 909 m 483 154 q 553 167 522 154 q 604 205 585 180 q 623 262 623 230 q 597 330 623 300 q 532 381 570 359 q 420 439 494 404 q 343 372 370 410 q 316 281 316 334 q 357 190 316 225 q 483 154 399 154 z "},"9":{"ha":987,"x_min":83,"x_max":909,"o":"m 511 861 q 719 807 628 861 q 859 654 809 752 q 909 429 909 555 q 811 76 909 232 q 569 -173 713 -80 q 292 -282 425 -265 l 233 -138 q 452 -24 359 -107 q 593 167 545 59 q 643 378 642 275 q 605 606 644 524 q 482 689 565 689 q 371 645 410 689 q 332 521 332 600 q 366 375 332 423 q 455 326 400 326 q 500 330 484 326 q 528 337 517 333 q 545 342 540 341 l 589 213 q 549 180 578 197 q 476 152 521 163 q 375 140 431 140 q 224 183 291 140 q 121 303 158 227 q 83 473 83 379 q 132 673 83 585 q 278 811 181 761 q 511 861 374 861 z "},"\u0000":{"ha":0,"x_min":0,"x_max":0,"o":""},"\r":{"ha":0,"x_min":0,"x_max":0,"o":""}," ":{"ha":460,"x_min":0,"x_max":0,"o":""},"A":{"ha":990,"x_min":-13,"x_max":1003,"o":"m 672 193 l 312 193 l 258 0 l -13 0 l 347 1039 l 641 1039 l 1003 0 l 729 0 l 672 193 m 618 373 l 523 696 l 489 830 l 454 696 l 363 373 l 618 373 z "},"Á":{"ha":990,"x_min":-13,"x_max":1003,"o":"m 672 193 l 312 193 l 258 0 l -13 0 l 347 1039 l 641 1039 l 1003 0 l 729 0 l 672 193 m 618 373 l 523 696 l 489 830 l 454 696 l 363 373 l 618 373 m 397 1130 q 500 1241 437 1169 q 574 1348 562 1314 l 751 1260 q 679 1170 724 1218 q 589 1085 634 1122 q 515 1040 544 1049 l 397 1130 z "},"Ă":{"ha":990,"x_min":-13,"x_max":1003,"o":"m 672 193 l 312 193 l 258 0 l -13 0 l 347 1039 l 641 1039 l 1003 0 l 729 0 l 672 193 m 618 373 l 523 696 l 489 830 l 454 696 l 363 373 l 618 373 m 386 1331 q 412 1265 390 1294 q 496 1237 434 1237 q 578 1265 556 1237 q 606 1331 601 1293 l 755 1331 q 726 1199 756 1256 q 637 1112 696 1143 q 496 1081 578 1081 q 350 1112 409 1081 q 262 1199 291 1143 q 234 1331 233 1255 l 386 1331 z "},"Ǎ":{"ha":990,"x_min":-13,"x_max":1003,"o":"m 672 193 l 312 193 l 258 0 l -13 0 l 347 1039 l 641 1039 l 1003 0 l 729 0 l 672 193 m 618 373 l 523 696 l 489 830 l 454 696 l 363 373 l 618 373 m 416 1331 l 575 1331 l 768 1124 l 648 1045 l 496 1176 l 345 1045 l 224 1122 l 416 1331 z "},"Â":{"ha":990,"x_min":-13,"x_max":1003,"o":"m 672 193 l 312 193 l 258 0 l -13 0 l 347 1039 l 641 1039 l 1003 0 l 729 0 l 672 193 m 618 373 l 523 696 l 489 830 l 454 696 l 363 373 l 618 373 m 416 1331 l 575 1331 l 768 1124 l 648 1045 l 496 1176 l 345 1045 l 224 1122 l 416 1331 z "},"Ä":{"ha":990,"x_min":-13,"x_max":1003,"o":"m 672 193 l 312 193 l 258 0 l -13 0 l 347 1039 l 641 1039 l 1003 0 l 729 0 l 672 193 m 618 373 l 523 696 l 489 830 l 454 696 l 363 373 l 618 373 m 180 1198 q 199 1265 180 1234 q 250 1314 218 1296 q 320 1332 282 1332 q 414 1298 379 1332 q 448 1208 448 1264 q 430 1140 448 1171 q 380 1091 412 1109 q 309 1073 348 1073 q 242 1088 271 1073 q 196 1133 212 1104 q 180 1198 180 1161 m 547 1198 q 566 1265 547 1234 q 617 1314 585 1296 q 688 1332 649 1332 q 781 1298 747 1332 q 815 1208 815 1264 q 797 1140 815 1171 q 747 1091 779 1109 q 676 1073 715 1073 q 609 1088 638 1073 q 563 1133 579 1104 q 547 1198 547 1161 z "},"À":{"ha":990,"x_min":-13,"x_max":1003,"o":"m 672 193 l 312 193 l 258 0 l -13 0 l 347 1039 l 641 1039 l 1003 0 l 729 0 l 672 193 m 618 373 l 523 696 l 489 830 l 454 696 l 363 373 l 618 373 m 479 1040 q 406 1086 452 1049 q 314 1171 359 1122 q 242 1260 269 1219 l 420 1348 q 492 1243 431 1314 q 596 1130 553 1173 l 479 1040 z "},"Ā":{"ha":990,"x_min":-13,"x_max":1003,"o":"m 672 193 l 312 193 l 258 0 l -13 0 l 347 1039 l 641 1039 l 1003 0 l 729 0 l 672 193 m 618 373 l 523 696 l 489 830 l 454 696 l 363 373 l 618 373 m 707 1294 l 707 1135 l 287 1135 l 287 1294 l 707 1294 z "},"Ą":{"ha":990,"x_min":-13,"x_max":1003,"o":"m 842 -137 q 926 -203 842 -203 q 1000 -189 958 -203 l 1000 -304 q 923 -338 965 -327 q 825 -350 881 -350 q 731 -332 774 -350 q 661 -281 687 -314 q 635 -203 635 -248 q 681 -85 635 -137 q 795 0 727 -34 l 729 0 l 672 193 l 312 193 l 258 0 l -13 0 l 347 1039 l 641 1039 l 1003 0 l 958 0 q 842 -137 842 -63 m 618 373 l 523 696 l 489 830 l 454 696 l 363 373 l 618 373 z "},"Å":{"ha":990,"x_min":-13,"x_max":1003,"o":"m 672 193 l 312 193 l 258 0 l -13 0 l 328 985 q 269 1051 289 1011 q 248 1145 248 1091 q 284 1259 248 1215 q 376 1322 319 1303 q 498 1341 432 1341 q 677 1292 614 1341 q 741 1146 741 1243 q 659 986 741 1039 l 1003 0 l 729 0 l 672 193 m 490 1230 q 415 1212 443 1230 q 387 1147 387 1194 q 417 1083 387 1105 q 494 1060 446 1060 q 554 1066 530 1059 q 590 1090 577 1072 q 603 1143 603 1108 q 572 1208 603 1187 q 490 1230 542 1230 m 618 373 l 523 696 l 489 830 l 454 696 l 363 373 l 618 373 z "},"Ã":{"ha":990,"x_min":-13,"x_max":1003,"o":"m 672 193 l 312 193 l 258 0 l -13 0 l 347 1039 l 641 1039 l 1003 0 l 729 0 l 672 193 m 618 373 l 523 696 l 489 830 l 454 696 l 363 373 l 618 373 m 192 1173 q 232 1250 203 1214 q 304 1308 260 1286 q 401 1331 348 1331 q 459 1323 434 1331 q 500 1305 484 1316 q 536 1277 516 1294 q 572 1251 556 1259 q 608 1242 587 1242 q 669 1263 640 1242 q 719 1313 699 1284 l 805 1221 q 766 1143 794 1179 q 695 1083 738 1106 q 602 1061 653 1061 q 529 1074 557 1061 q 471 1114 501 1088 q 430 1142 446 1133 q 389 1152 413 1152 q 331 1131 359 1152 q 282 1084 302 1111 l 192 1173 z "},"Æ":{"ha":1336,"x_min":-81,"x_max":1277,"o":"m 1277 197 l 1277 0 l 587 0 l 587 216 l 290 216 l 197 0 l -81 0 l 408 1032 l 1236 1032 l 1236 840 l 844 840 l 844 623 l 1145 623 l 1145 435 l 844 435 l 844 197 l 1277 197 m 587 393 l 587 905 l 367 393 l 587 393 z "},"Ǽ":{"ha":1336,"x_min":-81,"x_max":1277,"o":"m 618 1130 q 720 1241 658 1169 q 794 1348 783 1314 l 972 1260 q 899 1170 944 1218 q 809 1085 854 1122 q 735 1040 764 1049 l 618 1130 m 1277 197 l 1277 0 l 587 0 l 587 216 l 290 216 l 197 0 l -81 0 l 408 1032 l 1236 1032 l 1236 840 l 844 840 l 844 623 l 1145 623 l 1145 435 l 844 435 l 844 197 l 1277 197 m 587 393 l 587 905 l 367 393 l 587 393 z "},"B":{"ha":991,"x_min":117,"x_max":941,"o":"m 243 1032 q 341 1036 272 1032 q 489 1042 437 1042 q 791 974 696 1042 q 886 777 886 905 q 846 629 886 692 q 731 545 806 566 q 839 507 791 538 q 913 427 886 477 q 941 313 941 376 q 901 141 941 212 q 767 31 861 71 q 513 -9 672 -9 q 248 0 405 -9 l 117 0 l 117 1033 l 243 1032 m 473 607 q 599 640 559 607 q 640 753 640 673 q 595 842 640 815 q 462 869 551 869 q 411 867 440 869 q 374 860 382 865 l 374 612 q 473 607 399 607 m 500 159 q 633 195 590 159 q 676 311 676 231 q 632 413 676 379 q 491 448 587 448 q 421 446 458 448 q 374 442 385 445 l 374 175 q 424 163 386 167 q 500 159 462 159 z "},"Ḃ":{"ha":991,"x_min":117,"x_max":941,"o":"m 359 1202 q 378 1269 359 1240 q 429 1315 397 1299 q 502 1331 462 1331 q 597 1300 564 1331 q 631 1212 631 1270 q 613 1145 631 1175 q 563 1099 595 1116 q 490 1082 531 1082 q 394 1114 429 1082 q 359 1202 359 1146 m 243 1032 q 341 1036 272 1032 q 489 1042 437 1042 q 791 974 696 1042 q 886 777 886 905 q 846 629 886 692 q 731 545 806 566 q 839 507 791 538 q 913 427 886 477 q 941 313 941 376 q 901 141 941 212 q 767 31 861 71 q 513 -9 672 -9 q 248 0 405 -9 l 117 0 l 117 1033 l 243 1032 m 473 607 q 599 640 559 607 q 640 753 640 673 q 595 842 640 815 q 462 869 551 869 q 411 867 440 869 q 374 860 382 865 l 374 612 q 473 607 399 607 m 500 159 q 633 195 590 159 q 676 311 676 231 q 632 413 676 379 q 491 448 587 448 q 421 446 458 448 q 374 442 385 445 l 374 175 q 424 163 386 167 q 500 159 462 159 z "},"C":{"ha":886,"x_min":58,"x_max":856,"o":"m 586 1043 q 707 1035 659 1043 q 810 1013 755 1027 q 856 1002 848 1003 l 822 779 q 737 821 786 803 q 607 838 688 838 q 463 802 527 838 q 362 696 399 766 q 326 530 326 627 q 359 350 326 427 q 458 231 392 273 q 618 189 524 189 q 705 199 659 189 q 787 224 750 209 q 842 255 824 240 l 842 43 q 726 4 784 19 q 589 -11 668 -11 q 301 53 420 -11 q 120 236 182 117 q 58 514 58 354 q 127 803 58 684 q 316 982 196 922 q 586 1043 435 1043 z "},"Ć":{"ha":886,"x_min":58,"x_max":856,"o":"m 618 189 q 705 199 659 189 q 787 224 750 209 q 842 255 824 240 l 842 43 q 726 4 784 19 q 589 -11 668 -11 q 301 53 420 -11 q 120 236 182 117 q 58 514 58 354 q 127 803 58 684 q 315 982 196 922 q 585 1043 435 1042 l 471 1130 q 574 1241 511 1169 q 648 1348 636 1314 l 825 1260 q 756 1174 798 1220 q 670 1091 713 1127 q 596 1043 626 1055 q 713 1034 665 1042 q 812 1013 761 1026 q 856 1002 846 1004 l 822 779 q 737 821 786 803 q 607 838 688 838 q 463 802 527 838 q 362 696 399 766 q 326 530 326 627 q 359 350 326 427 q 458 231 392 273 q 618 189 524 189 z "},"Č":{"ha":886,"x_min":58,"x_max":856,"o":"m 586 1043 q 707 1035 659 1043 q 810 1013 755 1027 q 856 1002 848 1003 l 822 779 q 737 821 786 803 q 607 838 688 838 q 463 802 527 838 q 362 696 399 766 q 326 530 326 627 q 359 350 326 427 q 458 231 392 273 q 618 189 524 189 q 705 199 659 189 q 787 224 750 209 q 842 255 824 240 l 842 43 q 726 4 784 19 q 589 -11 668 -11 q 301 53 420 -11 q 120 236 182 117 q 58 514 58 354 q 127 803 58 684 q 316 982 196 922 q 586 1043 435 1043 m 419 1332 l 570 1219 l 722 1332 l 841 1254 l 650 1057 l 491 1057 l 300 1254 l 419 1332 z "},"Ç":{"ha":886,"x_min":58,"x_max":856,"o":"m 842 43 q 745 9 793 23 q 633 -9 696 -5 q 651 -71 645 -35 q 657 -141 657 -106 q 607 -271 657 -227 q 477 -315 557 -315 q 402 -309 444 -315 q 348 -296 361 -303 l 363 -173 q 414 -182 378 -182 q 471 -154 449 -182 q 493 -75 493 -126 q 481 -3 493 -34 q 251 84 346 16 q 107 262 156 153 q 58 514 58 372 q 127 803 58 684 q 316 982 196 922 q 586 1043 435 1043 q 707 1035 659 1043 q 810 1013 755 1027 q 856 1002 848 1003 l 822 779 q 737 821 786 803 q 607 838 688 838 q 463 802 527 838 q 362 696 399 766 q 326 530 326 627 q 359 350 326 427 q 458 231 392 273 q 618 189 524 189 q 705 199 659 189 q 787 224 750 209 q 842 255 824 240 l 842 43 z "},"Ĉ":{"ha":886,"x_min":58,"x_max":856,"o":"m 586 1043 q 707 1035 659 1043 q 810 1013 755 1027 q 856 1002 848 1003 l 822 779 q 737 821 786 803 q 607 838 688 838 q 463 802 527 838 q 362 696 399 766 q 326 530 326 627 q 359 350 326 427 q 458 231 392 273 q 618 189 524 189 q 705 199 659 189 q 787 224 750 209 q 842 255 824 240 l 842 43 q 726 4 784 19 q 589 -11 668 -11 q 301 53 420 -11 q 120 236 182 117 q 58 514 58 354 q 127 803 58 684 q 316 982 196 922 q 586 1043 435 1043 m 490 1331 l 649 1331 l 842 1124 l 722 1045 l 570 1176 l 418 1045 l 298 1122 l 490 1331 z "},"Ċ":{"ha":886,"x_min":58,"x_max":856,"o":"m 439 1202 q 457 1269 439 1239 q 509 1314 476 1298 q 581 1331 541 1331 q 677 1300 643 1331 q 711 1211 711 1269 q 693 1144 711 1174 q 643 1098 675 1115 q 570 1082 610 1082 q 474 1114 509 1082 q 439 1202 439 1145 m 586 1043 q 707 1035 659 1043 q 810 1013 755 1027 q 856 1002 848 1003 l 822 779 q 737 821 786 803 q 607 838 688 838 q 463 802 527 838 q 362 696 399 766 q 326 530 326 627 q 359 350 326 427 q 458 231 392 273 q 618 189 524 189 q 705 199 659 189 q 787 224 750 209 q 842 255 824 240 l 842 43 q 726 4 784 19 q 589 -11 668 -11 q 301 53 420 -11 q 120 236 182 117 q 58 514 58 354 q 127 803 58 684 q 316 982 196 922 q 586 1043 435 1043 z "},"D":{"ha":1059,"x_min":117,"x_max":1002,"o":"m 212 1032 q 313 1036 229 1032 q 495 1043 428 1043 q 877 914 752 1043 q 1002 542 1002 785 q 940 243 1002 368 q 762 54 879 119 q 482 -11 646 -11 q 329 -5 416 -11 q 275 -2 314 -4 q 208 0 237 0 l 117 0 l 117 1032 l 212 1032 m 495 180 q 670 264 607 180 q 733 519 733 349 q 706 716 733 642 q 625 824 680 791 q 484 857 570 857 q 429 854 460 857 q 377 848 397 851 l 377 190 q 495 180 412 180 z "},"Ǳ":{"ha":1942,"x_min":117,"x_max":1902,"o":"m 212 1032 q 313 1036 229 1032 q 495 1043 428 1043 q 877 914 752 1043 q 1002 542 1002 785 q 940 243 1002 368 q 762 54 879 119 q 482 -11 646 -11 q 329 -5 416 -11 q 275 -2 314 -4 q 208 0 237 0 l 117 0 l 117 1032 l 212 1032 m 495 180 q 670 264 607 180 q 733 519 733 349 q 706 716 733 642 q 625 824 680 791 q 484 857 570 857 q 429 854 460 857 q 377 848 397 851 l 377 190 q 495 180 412 180 m 1507 777 l 1552 844 l 1132 844 l 1132 1032 l 1874 1032 l 1902 977 l 1487 264 l 1436 193 l 1876 193 l 1876 0 l 1112 0 l 1083 57 l 1507 777 z "},"Ǆ":{"ha":1942,"x_min":117,"x_max":1902,"o":"m 212 1032 q 313 1036 229 1032 q 495 1043 428 1043 q 877 914 752 1043 q 1002 542 1002 785 q 940 243 1002 368 q 762 54 879 119 q 482 -11 646 -11 q 329 -5 416 -11 q 275 -2 314 -4 q 208 0 237 0 l 117 0 l 117 1032 l 212 1032 m 495 180 q 670 264 607 180 q 733 519 733 349 q 706 716 733 642 q 625 824 680 791 q 484 857 570 857 q 429 854 460 857 q 377 848 397 851 l 377 190 q 495 180 412 180 m 1507 777 l 1552 844 l 1132 844 l 1132 1032 l 1874 1032 l 1902 977 l 1487 264 l 1436 193 l 1876 193 l 1876 0 l 1112 0 l 1083 57 l 1507 777 m 1365 1332 l 1516 1219 l 1668 1332 l 1787 1254 l 1596 1057 l 1437 1057 l 1246 1254 l 1365 1332 z "},"Ð":{"ha":1059,"x_min":41,"x_max":1002,"o":"m 495 1043 q 877 914 752 1043 q 1002 542 1002 785 q 940 243 1002 368 q 762 54 879 119 q 482 -11 646 -11 q 329 -5 416 -11 q 275 -2 314 -4 q 208 0 237 0 l 117 0 l 117 458 l 41 458 l 41 619 l 117 619 l 117 1032 l 212 1032 q 313 1036 229 1032 q 495 1043 428 1043 m 495 180 q 670 264 607 180 q 733 519 733 349 q 706 716 733 642 q 625 824 680 791 q 484 857 570 857 q 429 854 460 857 q 377 848 397 851 l 377 619 l 576 619 l 576 458 l 377 458 l 377 190 q 495 180 412 180 z "},"Ď":{"ha":1059,"x_min":117,"x_max":1002,"o":"m 376 1332 l 528 1219 l 680 1332 l 798 1254 l 607 1057 l 448 1057 l 257 1254 l 376 1332 m 212 1032 q 313 1036 229 1032 q 495 1043 428 1043 q 877 914 752 1043 q 1002 542 1002 785 q 940 243 1002 368 q 762 54 879 119 q 482 -11 646 -11 q 329 -5 416 -11 q 275 -2 314 -4 q 208 0 237 0 l 117 0 l 117 1032 l 212 1032 m 495 180 q 670 264 607 180 q 733 519 733 349 q 706 716 733 642 q 625 824 680 791 q 484 857 570 857 q 429 854 460 857 q 377 848 397 851 l 377 190 q 495 180 412 180 z "},"Đ":{"ha":1059,"x_min":41,"x_max":1002,"o":"m 495 1043 q 877 914 752 1043 q 1002 542 1002 785 q 940 243 1002 368 q 762 54 879 119 q 482 -11 646 -11 q 329 -5 416 -11 q 275 -2 314 -4 q 208 0 237 0 l 117 0 l 117 458 l 41 458 l 41 619 l 117 619 l 117 1032 l 212 1032 q 313 1036 229 1032 q 495 1043 428 1043 m 495 180 q 670 264 607 180 q 733 519 733 349 q 706 716 733 642 q 625 824 680 791 q 484 857 570 857 q 429 854 460 857 q 377 848 397 851 l 377 619 l 576 619 l 576 458 l 377 458 l 377 190 q 495 180 412 180 z "},"Ḋ":{"ha":1059,"x_min":117,"x_max":1002,"o":"m 396 1202 q 415 1269 396 1239 q 466 1314 433 1298 q 538 1331 498 1331 q 634 1300 600 1331 q 668 1211 668 1269 q 650 1144 668 1174 q 600 1098 632 1115 q 527 1082 568 1082 q 431 1114 466 1082 q 396 1202 396 1145 m 212 1032 q 313 1036 229 1032 q 495 1043 428 1043 q 877 914 752 1043 q 1002 542 1002 785 q 940 243 1002 368 q 762 54 879 119 q 482 -11 646 -11 q 329 -5 416 -11 q 275 -2 314 -4 q 208 0 237 0 l 117 0 l 117 1032 l 212 1032 m 495 180 q 670 264 607 180 q 733 519 733 349 q 706 716 733 642 q 625 824 680 791 q 484 857 570 857 q 429 854 460 857 q 377 848 397 851 l 377 190 q 495 180 412 180 z "},"ǲ":{"ha":1811,"x_min":117,"x_max":1777,"o":"m 212 1032 q 313 1036 229 1032 q 495 1043 428 1043 q 877 914 752 1043 q 1002 542 1002 785 q 940 243 1002 368 q 762 54 879 119 q 482 -11 646 -11 q 329 -5 416 -11 q 275 -2 314 -4 q 208 0 237 0 l 117 0 l 117 1032 l 212 1032 m 495 180 q 670 264 607 180 q 733 519 733 349 q 706 716 733 642 q 625 824 680 791 q 484 857 570 857 q 429 854 460 857 q 377 848 397 851 l 377 190 q 495 180 412 180 m 1404 541 l 1445 602 l 1140 602 l 1141 773 l 1754 773 l 1777 709 l 1474 239 l 1430 176 l 1763 176 l 1763 0 l 1122 0 l 1094 56 l 1404 541 z "},"ǅ":{"ha":1811,"x_min":117,"x_max":1777,"o":"m 212 1032 q 313 1036 229 1032 q 495 1043 428 1043 q 877 914 752 1043 q 1002 542 1002 785 q 940 243 1002 368 q 762 54 879 119 q 482 -11 646 -11 q 329 -5 416 -11 q 275 -2 314 -4 q 208 0 237 0 l 117 0 l 117 1032 l 212 1032 m 495 180 q 670 264 607 180 q 733 519 733 349 q 706 716 733 642 q 625 824 680 791 q 484 857 570 857 q 429 854 460 857 q 377 848 397 851 l 377 190 q 495 180 412 180 m 1404 541 l 1445 602 l 1140 602 l 1141 773 l 1754 773 l 1777 709 l 1474 239 l 1430 176 l 1763 176 l 1763 0 l 1122 0 l 1094 56 l 1404 541 m 1451 1025 l 1613 1179 l 1733 1102 l 1527 852 l 1375 852 l 1168 1103 l 1288 1179 l 1451 1025 z "},"E":{"ha":861,"x_min":117,"x_max":810,"o":"m 770 1032 l 770 840 l 373 840 l 373 621 l 679 621 l 679 433 l 373 433 l 373 197 l 810 197 l 810 0 l 117 0 l 117 1032 l 770 1032 z "},"É":{"ha":861,"x_min":117,"x_max":810,"o":"m 376 1130 q 479 1241 416 1169 q 553 1348 541 1314 l 730 1260 q 658 1170 703 1218 q 568 1085 613 1122 q 494 1040 523 1049 l 376 1130 m 770 1032 l 770 840 l 373 840 l 373 621 l 679 621 l 679 433 l 373 433 l 373 197 l 810 197 l 810 0 l 117 0 l 117 1032 l 770 1032 z "},"Ĕ":{"ha":861,"x_min":117,"x_max":810,"o":"m 366 1331 q 392 1265 370 1294 q 475 1237 414 1237 q 558 1265 536 1237 q 586 1331 581 1293 l 735 1331 q 706 1199 736 1256 q 617 1112 675 1143 q 475 1081 558 1081 q 330 1112 389 1081 q 241 1199 271 1143 q 214 1331 212 1255 l 366 1331 m 770 1032 l 770 840 l 373 840 l 373 621 l 679 621 l 679 433 l 373 433 l 373 197 l 810 197 l 810 0 l 117 0 l 117 1032 l 770 1032 z "},"Ě":{"ha":861,"x_min":117,"x_max":810,"o":"m 325 1332 l 476 1219 l 628 1332 l 747 1254 l 555 1057 l 397 1057 l 205 1254 l 325 1332 m 770 1032 l 770 840 l 373 840 l 373 621 l 679 621 l 679 433 l 373 433 l 373 197 l 810 197 l 810 0 l 117 0 l 117 1032 l 770 1032 z "},"Ê":{"ha":861,"x_min":117,"x_max":810,"o":"m 770 1032 l 770 840 l 373 840 l 373 621 l 679 621 l 679 433 l 373 433 l 373 197 l 810 197 l 810 0 l 117 0 l 117 1032 l 770 1032 m 396 1331 l 555 1331 l 748 1124 l 627 1045 l 475 1176 l 324 1045 l 203 1122 l 396 1331 z "},"Ë":{"ha":861,"x_min":117,"x_max":810,"o":"m 159 1198 q 178 1265 159 1234 q 230 1314 197 1296 q 300 1332 262 1332 q 393 1298 359 1332 q 428 1208 428 1264 q 410 1140 428 1171 q 359 1091 391 1109 q 289 1073 328 1073 q 221 1088 251 1073 q 176 1133 192 1104 q 159 1198 159 1161 m 526 1198 q 545 1265 526 1234 q 596 1314 564 1296 q 667 1332 629 1332 q 761 1298 726 1332 q 795 1208 795 1264 q 777 1140 795 1171 q 726 1091 758 1109 q 656 1073 694 1073 q 588 1088 618 1073 q 543 1133 559 1104 q 526 1198 526 1161 m 770 1032 l 770 840 l 373 840 l 373 621 l 679 621 l 679 433 l 373 433 l 373 197 l 810 197 l 810 0 l 117 0 l 117 1032 l 770 1032 z "},"Ė":{"ha":861,"x_min":117,"x_max":810,"o":"m 344 1202 q 362 1269 344 1239 q 414 1314 381 1298 q 486 1331 446 1331 q 582 1300 548 1331 q 616 1211 616 1269 q 598 1144 616 1174 q 548 1098 580 1115 q 475 1082 515 1082 q 379 1114 414 1082 q 344 1202 344 1145 m 770 1032 l 770 840 l 373 840 l 373 621 l 679 621 l 679 433 l 373 433 l 373 197 l 810 197 l 810 0 l 117 0 l 117 1032 l 770 1032 z "},"È":{"ha":861,"x_min":117,"x_max":810,"o":"m 458 1040 q 385 1086 431 1049 q 294 1171 339 1122 q 222 1260 248 1219 l 399 1348 q 472 1243 411 1314 q 576 1130 533 1173 l 458 1040 m 770 1032 l 770 840 l 373 840 l 373 621 l 679 621 l 679 433 l 373 433 l 373 197 l 810 197 l 810 0 l 117 0 l 117 1032 l 770 1032 z "},"Ē":{"ha":861,"x_min":117,"x_max":810,"o":"m 686 1294 l 686 1135 l 267 1135 l 267 1294 l 686 1294 m 770 1032 l 770 840 l 373 840 l 373 621 l 679 621 l 679 433 l 373 433 l 373 197 l 810 197 l 810 0 l 117 0 l 117 1032 l 770 1032 z "},"Ę":{"ha":852,"x_min":117,"x_max":812,"o":"m 739 -203 q 812 -189 770 -203 l 812 -304 q 735 -338 777 -327 q 637 -350 693 -350 q 543 -332 587 -350 q 473 -281 499 -314 q 447 -203 447 -248 q 493 -85 447 -137 q 607 0 539 -34 l 117 0 l 117 1032 l 770 1032 l 770 840 l 373 840 l 373 621 l 679 621 l 679 433 l 373 433 l 373 197 l 810 197 l 810 0 l 770 0 q 654 -137 654 -63 q 739 -203 654 -203 z "},"F":{"ha":789,"x_min":117,"x_max":762,"o":"m 762 1032 l 762 840 l 375 840 l 375 593 l 669 593 l 669 401 l 375 401 l 375 0 l 117 0 l 117 1032 l 762 1032 z "},"Ḟ":{"ha":789,"x_min":117,"x_max":762,"o":"m 324 1202 q 343 1269 324 1240 q 394 1315 361 1299 q 467 1331 427 1331 q 562 1300 528 1331 q 596 1212 596 1270 q 578 1145 596 1175 q 528 1099 560 1116 q 455 1082 496 1082 q 359 1114 394 1082 q 324 1202 324 1146 m 762 1032 l 762 840 l 375 840 l 375 593 l 669 593 l 669 401 l 375 401 l 375 0 l 117 0 l 117 1032 l 762 1032 z "},"G":{"ha":1023,"x_min":58,"x_max":944,"o":"m 944 579 l 944 58 q 905 52 924 58 q 855 37 885 47 q 726 2 790 15 q 563 -11 663 -11 q 295 51 409 -11 q 119 231 181 113 q 58 511 58 348 q 127 813 58 694 q 316 988 197 932 q 592 1043 436 1043 q 721 1036 669 1043 q 836 1014 772 1028 q 888 1002 871 1006 l 882 787 q 602 841 776 841 q 450 804 513 841 q 354 696 387 766 q 321 529 321 626 q 349 349 321 428 q 430 226 376 271 q 559 182 484 182 q 708 203 655 182 l 708 384 l 561 395 l 561 579 l 944 579 z "},"Ǵ":{"ha":1023,"x_min":58,"x_max":944,"o":"m 944 579 l 944 58 q 905 52 924 58 q 855 37 885 47 q 726 2 790 15 q 563 -11 663 -11 q 295 51 409 -11 q 119 231 181 113 q 58 511 58 348 q 126 812 58 694 q 314 987 195 931 q 587 1043 433 1042 l 473 1131 q 575 1242 513 1170 q 649 1349 637 1314 l 827 1261 q 756 1174 800 1220 q 669 1091 713 1127 q 595 1043 625 1055 q 724 1035 672 1042 q 837 1014 776 1027 q 888 1002 871 1006 l 882 787 q 602 841 776 841 q 450 804 513 841 q 354 696 387 766 q 321 529 321 626 q 349 349 321 428 q 430 226 376 271 q 559 182 484 182 q 708 203 655 182 l 708 384 l 561 395 l 561 579 l 944 579 z "},"Ğ":{"ha":1023,"x_min":58,"x_max":944,"o":"m 461 1332 q 487 1266 465 1295 q 571 1238 509 1238 q 654 1266 631 1238 q 682 1332 676 1294 l 831 1332 q 801 1200 831 1257 q 712 1113 771 1143 q 571 1082 654 1082 q 425 1113 484 1082 q 337 1200 366 1143 q 309 1332 308 1256 l 461 1332 m 944 579 l 944 58 q 905 52 924 58 q 855 37 885 47 q 726 2 790 15 q 563 -11 663 -11 q 295 51 409 -11 q 119 231 181 113 q 58 511 58 348 q 127 813 58 694 q 316 988 197 932 q 592 1043 436 1043 q 721 1036 669 1043 q 836 1014 772 1028 q 888 1002 871 1006 l 882 787 q 602 841 776 841 q 450 804 513 841 q 354 696 387 766 q 321 529 321 626 q 349 349 321 428 q 430 226 376 271 q 559 182 484 182 q 708 203 655 182 l 708 384 l 561 395 l 561 579 l 944 579 z "},"Ǧ":{"ha":1023,"x_min":58,"x_max":944,"o":"m 944 579 l 944 58 q 905 52 924 58 q 855 37 885 47 q 726 2 790 15 q 563 -11 663 -11 q 295 51 409 -11 q 119 231 181 113 q 58 511 58 348 q 127 813 58 694 q 316 988 197 932 q 592 1043 436 1043 q 721 1036 669 1043 q 836 1014 772 1028 q 888 1002 871 1006 l 882 787 q 602 841 776 841 q 450 804 513 841 q 354 696 387 766 q 321 529 321 626 q 349 349 321 428 q 430 226 376 271 q 559 182 484 182 q 708 203 655 182 l 708 384 l 561 395 l 561 579 l 944 579 m 420 1333 l 572 1219 l 724 1333 l 842 1255 l 651 1057 l 492 1057 l 301 1255 l 420 1333 z "},"Ĝ":{"ha":1023,"x_min":58,"x_max":944,"o":"m 944 579 l 944 58 q 905 52 924 58 q 855 37 885 47 q 726 2 790 15 q 563 -11 663 -11 q 295 51 409 -11 q 119 231 181 113 q 58 511 58 348 q 127 813 58 694 q 316 988 197 932 q 592 1043 436 1043 q 721 1036 669 1043 q 836 1014 772 1028 q 888 1002 871 1006 l 882 787 q 602 841 776 841 q 450 804 513 841 q 354 696 387 766 q 321 529 321 626 q 349 349 321 428 q 430 226 376 271 q 559 182 484 182 q 708 203 655 182 l 708 384 l 561 395 l 561 579 l 944 579 m 492 1332 l 650 1332 l 844 1124 l 723 1046 l 571 1177 l 420 1046 l 299 1123 l 492 1332 z "},"Ģ":{"ha":1023,"x_min":58,"x_max":944,"o":"m 465 -331 q 481 -237 481 -304 q 469 -187 481 -212 q 445 -155 458 -163 l 445 -121 l 600 -57 q 628 -78 612 -61 q 655 -123 644 -95 q 667 -184 667 -151 q 651 -277 667 -235 q 614 -346 635 -319 q 577 -380 593 -372 l 465 -349 l 465 -331 m 944 579 l 944 58 q 905 52 924 58 q 855 37 885 47 q 726 2 790 15 q 563 -11 663 -11 q 295 51 409 -11 q 119 231 181 113 q 58 511 58 348 q 127 813 58 694 q 316 988 197 932 q 592 1043 436 1043 q 721 1036 669 1043 q 836 1014 772 1028 q 888 1002 871 1006 l 882 787 q 602 841 776 841 q 450 804 513 841 q 354 696 387 766 q 321 529 321 626 q 349 349 321 428 q 430 226 376 271 q 559 182 484 182 q 708 203 655 182 l 708 384 l 561 395 l 561 579 l 944 579 z "},"Ġ":{"ha":1023,"x_min":58,"x_max":944,"o":"m 440 1202 q 459 1269 440 1240 q 510 1315 477 1299 q 583 1331 543 1331 q 678 1300 644 1331 q 712 1212 712 1270 q 694 1145 712 1175 q 644 1099 676 1116 q 571 1082 612 1082 q 475 1114 510 1082 q 440 1202 440 1146 m 944 579 l 944 58 q 905 52 924 58 q 855 37 885 47 q 726 2 790 15 q 563 -11 663 -11 q 295 51 409 -11 q 119 231 181 113 q 58 511 58 348 q 127 813 58 694 q 316 988 197 932 q 592 1043 436 1043 q 721 1036 669 1043 q 836 1014 772 1028 q 888 1002 871 1006 l 882 787 q 602 841 776 841 q 450 804 513 841 q 354 696 387 766 q 321 529 321 626 q 349 349 321 428 q 430 226 376 271 q 559 182 484 182 q 708 203 655 182 l 708 384 l 561 395 l 561 579 l 944 579 z "},"Ḡ":{"ha":1023,"x_min":58,"x_max":944,"o":"m 944 579 l 944 58 q 905 52 924 58 q 855 37 885 47 q 726 2 790 15 q 563 -11 663 -11 q 295 51 409 -11 q 119 231 181 113 q 58 511 58 348 q 127 813 58 694 q 316 988 197 932 q 592 1043 436 1043 q 721 1036 669 1043 q 836 1014 772 1028 q 888 1002 871 1006 l 882 787 q 602 841 776 841 q 450 804 513 841 q 354 696 387 766 q 321 529 321 626 q 349 349 321 428 q 430 226 376 271 q 559 182 484 182 q 708 203 655 182 l 708 384 l 561 395 l 561 579 l 944 579 m 782 1295 l 782 1136 l 362 1136 l 362 1295 l 782 1295 z "},"H":{"ha":1106,"x_min":117,"x_max":989,"o":"m 377 1032 l 377 614 l 731 614 l 731 1032 l 989 1032 l 989 0 l 731 0 l 731 428 l 377 428 l 377 0 l 117 0 l 117 1032 l 377 1032 z "},"Ħ":{"ha":1114,"x_min":19,"x_max":1097,"o":"m 1097 702 l 997 702 l 997 0 l 736 0 l 736 389 l 378 389 l 378 0 l 117 0 l 117 702 l 19 702 l 19 851 l 117 851 l 117 1032 l 378 1032 l 378 851 l 736 851 l 736 1032 l 997 1032 l 997 851 l 1097 851 l 1097 702 m 736 702 l 378 702 l 378 569 l 736 569 l 736 702 z "},"Ĥ":{"ha":1106,"x_min":117,"x_max":989,"o":"m 377 1032 l 377 614 l 731 614 l 731 1032 l 989 1032 l 989 0 l 731 0 l 731 428 l 377 428 l 377 0 l 117 0 l 117 1032 l 377 1032 m 473 1331 l 632 1331 l 825 1124 l 705 1045 l 553 1176 l 401 1045 l 281 1122 l 473 1331 z "},"I":{"ha":511,"x_min":125,"x_max":386,"o":"m 386 1032 l 386 0 l 125 0 l 125 1032 l 386 1032 z "},"Ĳ":{"ha":1054,"x_min":125,"x_max":934,"o":"m 386 1032 l 386 0 l 125 0 l 125 1032 l 386 1032 m 488 -96 q 589 -33 547 -72 q 650 75 631 5 q 668 194 665 125 q 672 412 672 262 l 672 1032 l 932 1032 l 932 416 l 933 333 q 934 258 934 307 q 920 64 934 135 q 836 -96 901 -29 q 689 -195 770 -163 q 544 -225 607 -228 l 488 -96 z "},"Í":{"ha":511,"x_min":125,"x_max":511,"o":"m 386 1032 l 386 0 l 125 0 l 125 1032 l 386 1032 m 157 1130 q 260 1241 197 1169 q 334 1348 322 1314 l 511 1260 q 439 1170 484 1218 q 349 1085 394 1122 q 275 1040 304 1049 l 157 1130 z "},"Ĭ":{"ha":511,"x_min":-7,"x_max":516,"o":"m 386 1032 l 386 0 l 125 0 l 125 1032 l 386 1032 m 146 1331 q 172 1265 150 1294 q 256 1237 194 1237 q 338 1265 316 1237 q 366 1331 361 1293 l 515 1331 q 486 1199 516 1256 q 397 1112 456 1143 q 256 1081 338 1081 q 110 1112 169 1081 q 22 1199 51 1143 q -6 1331 -7 1255 l 146 1331 z "},"Ǐ":{"ha":511,"x_min":-14,"x_max":527,"o":"m 386 1032 l 386 0 l 125 0 l 125 1032 l 386 1032 m 105 1332 l 256 1219 l 408 1332 l 527 1254 l 336 1057 l 177 1057 l -14 1254 l 105 1332 z "},"Î":{"ha":511,"x_min":-16,"x_max":528,"o":"m 386 1032 l 386 0 l 125 0 l 125 1032 l 386 1032 m 176 1331 l 335 1331 l 528 1124 l 408 1045 l 256 1176 l 104 1045 l -16 1122 l 176 1331 z "},"Ï":{"ha":511,"x_min":-60,"x_max":575,"o":"m 386 1032 l 386 0 l 125 0 l 125 1032 l 386 1032 m -60 1198 q -41 1265 -60 1234 q 10 1314 -22 1296 q 80 1332 42 1332 q 174 1298 139 1332 q 208 1208 208 1264 q 190 1140 208 1171 q 140 1091 172 1109 q 69 1073 108 1073 q 2 1088 31 1073 q -44 1133 -28 1104 q -60 1198 -60 1161 m 307 1198 q 326 1265 307 1234 q 377 1314 345 1296 q 448 1332 409 1332 q 541 1298 507 1332 q 575 1208 575 1264 q 557 1140 575 1171 q 507 1091 538 1109 q 436 1073 475 1073 q 369 1088 398 1073 q 323 1133 339 1104 q 307 1198 307 1161 z "},"İ":{"ha":511,"x_min":125,"x_max":397,"o":"m 386 1032 l 386 0 l 125 0 l 125 1032 l 386 1032 m 125 1202 q 143 1269 125 1239 q 195 1314 162 1298 q 267 1331 227 1331 q 363 1300 329 1331 q 397 1211 397 1269 q 379 1144 397 1174 q 329 1098 361 1115 q 256 1082 296 1082 q 160 1114 195 1082 q 125 1202 125 1145 z "},"Ì":{"ha":511,"x_min":2,"x_max":386,"o":"m 386 1032 l 386 0 l 125 0 l 125 1032 l 386 1032 m 239 1040 q 165 1086 212 1049 q 74 1171 119 1122 q 2 1260 28 1219 l 180 1348 q 252 1243 191 1314 q 356 1130 313 1173 l 239 1040 z "},"Ī":{"ha":511,"x_min":47,"x_max":467,"o":"m 386 1032 l 386 0 l 125 0 l 125 1032 l 386 1032 m 467 1294 l 467 1135 l 47 1135 l 47 1294 l 467 1294 z "},"Į":{"ha":515,"x_min":23,"x_max":391,"o":"m 317 -203 q 391 -189 349 -203 l 391 -304 q 314 -338 356 -327 q 216 -350 272 -350 q 121 -332 165 -350 q 50 -281 77 -314 q 23 -203 23 -248 q 68 -87 23 -138 q 178 0 113 -35 l 125 0 l 125 1032 l 386 1032 l 386 0 l 341 0 q 259 -61 289 -29 q 230 -134 230 -94 q 254 -186 230 -169 q 317 -203 277 -203 z "},"Ĩ":{"ha":511,"x_min":-48,"x_max":565,"o":"m 386 1032 l 386 0 l 125 0 l 125 1032 l 386 1032 m -48 1173 q -8 1250 -37 1214 q 64 1308 20 1286 q 161 1331 108 1331 q 219 1323 194 1331 q 260 1305 243 1316 q 296 1277 276 1294 q 332 1251 316 1259 q 368 1242 347 1242 q 429 1263 400 1242 q 479 1313 458 1284 l 565 1221 q 526 1143 554 1179 q 455 1083 498 1106 q 361 1061 413 1061 q 289 1074 317 1061 q 231 1114 261 1088 q 190 1142 206 1133 q 149 1152 173 1152 q 91 1131 119 1152 q 42 1084 62 1111 l -48 1173 z "},"J":{"ha":543,"x_min":-24,"x_max":422,"o":"m -24 -96 q 78 -33 36 -72 q 139 75 119 5 q 157 194 153 125 q 161 412 161 262 l 161 1032 l 421 1032 l 421 416 l 422 333 q 422 258 422 307 q 408 64 422 135 q 325 -96 390 -29 q 177 -195 259 -163 q 33 -225 96 -228 l -24 -96 z "},"Ĵ":{"ha":543,"x_min":-24,"x_max":559,"o":"m -24 -96 q 78 -33 36 -72 q 139 75 119 5 q 157 194 153 125 q 161 412 161 262 l 161 1032 l 421 1032 l 421 416 l 422 333 q 422 258 422 307 q 408 64 422 135 q 325 -96 390 -29 q 177 -195 259 -163 q 33 -225 96 -228 l -24 -96 m 207 1332 l 366 1332 l 559 1124 l 438 1046 l 286 1177 l 135 1046 l 14 1123 l 207 1332 z "},"K":{"ha":996,"x_min":117,"x_max":994,"o":"m 994 0 l 705 0 q 682 42 699 9 l 661 81 q 469 405 564 264 l 374 293 l 374 0 l 117 0 l 117 1032 l 374 1032 l 374 597 l 696 1032 l 977 1032 l 638 587 q 749 414 682 526 q 913 138 817 303 l 950 75 l 994 0 z "},"Ķ":{"ha":996,"x_min":117,"x_max":994,"o":"m 438 -331 q 454 -237 454 -304 q 442 -187 454 -212 q 418 -155 431 -163 l 418 -121 l 572 -57 q 601 -78 585 -61 q 628 -123 617 -95 q 640 -184 640 -151 q 624 -277 640 -235 q 587 -346 608 -319 q 550 -380 566 -372 l 438 -349 l 438 -331 m 994 0 l 705 0 q 682 42 699 9 l 661 81 q 469 405 564 264 l 374 293 l 374 0 l 117 0 l 117 1032 l 374 1032 l 374 597 l 696 1032 l 977 1032 l 638 587 q 749 414 682 526 q 913 138 817 303 l 950 75 l 994 0 z "},"L":{"ha":761,"x_min":117,"x_max":720,"o":"m 380 1032 l 380 195 l 720 195 l 720 0 l 117 0 l 117 1032 l 380 1032 z "},"Ǉ":{"ha":1303,"x_min":117,"x_max":1183,"o":"m 380 1032 l 380 195 l 720 195 l 720 0 l 117 0 l 117 1032 l 380 1032 m 737 -96 q 839 -33 797 -72 q 900 75 880 5 q 918 194 914 125 q 922 412 922 262 l 922 1032 l 1182 1032 l 1182 416 l 1183 333 q 1183 258 1183 307 q 1169 64 1183 135 q 1085 -96 1151 -29 q 938 -195 1020 -163 q 793 -225 857 -228 l 737 -96 z "},"Ĺ":{"ha":761,"x_min":117,"x_max":720,"o":"m 148 1130 q 250 1241 188 1169 q 324 1348 313 1314 l 502 1260 q 429 1170 474 1218 q 339 1085 385 1122 q 265 1040 294 1049 l 148 1130 m 380 1032 l 380 195 l 720 195 l 720 0 l 117 0 l 117 1032 l 380 1032 z "},"Ľ":{"ha":761,"x_min":117,"x_max":767,"o":"m 380 1032 l 380 195 l 720 195 l 720 0 l 117 0 l 117 1032 l 380 1032 m 554 720 q 567 804 562 754 q 571 913 572 854 q 560 1003 571 963 q 530 1063 549 1042 l 537 1108 l 709 1168 q 767 972 767 1118 q 751 845 767 906 q 713 739 736 785 q 666 669 690 694 l 559 696 l 554 720 z "},"Ļ":{"ha":761,"x_min":117,"x_max":720,"o":"m 328 -331 q 343 -237 343 -304 q 332 -187 343 -212 q 307 -155 320 -163 l 307 -121 l 462 -57 q 491 -78 475 -61 q 518 -123 507 -95 q 529 -184 529 -151 q 513 -277 529 -235 q 476 -346 497 -319 q 439 -380 455 -372 l 328 -349 l 328 -331 m 380 1032 l 380 195 l 720 195 l 720 0 l 117 0 l 117 1032 l 380 1032 z "},"Ŀ":{"ha":968,"x_min":117,"x_max":874,"o":"m 584 572 q 604 647 584 612 q 660 704 625 683 q 736 726 694 726 q 809 707 778 726 q 857 656 840 689 q 874 583 874 624 q 854 507 874 543 q 800 450 835 471 q 724 429 766 429 q 652 447 684 429 q 602 498 620 466 q 584 572 584 531 m 380 1032 l 380 195 l 720 195 l 720 0 l 117 0 l 117 1032 l 380 1032 z "},"ǈ":{"ha":1220,"x_min":117,"x_max":1133,"o":"m 380 1032 l 380 195 l 720 195 l 720 0 l 117 0 l 117 1032 l 380 1032 m 690 -168 q 725 -177 699 -172 q 770 -182 752 -182 q 828 -166 807 -182 q 859 -110 850 -149 q 869 1 869 -70 l 869 773 l 1121 773 l 1121 56 q 1086 -180 1121 -92 q 985 -306 1050 -268 q 824 -344 920 -344 q 749 -338 791 -344 q 690 -326 707 -332 l 690 -168 m 843 998 q 864 1067 843 1035 q 919 1118 884 1099 q 994 1137 954 1137 q 1066 1121 1035 1137 q 1115 1075 1098 1105 q 1133 1008 1133 1046 q 1112 938 1133 970 q 1057 887 1092 906 q 983 867 1023 867 q 911 884 943 867 q 861 930 879 901 q 843 998 843 960 z "},"Ł":{"ha":761,"x_min":12,"x_max":720,"o":"m 720 195 l 720 0 l 117 0 l 117 406 l 62 385 l 12 517 l 117 555 l 117 1032 l 380 1032 l 380 652 l 551 715 l 600 583 l 380 502 l 380 195 l 720 195 z "},"M":{"ha":1344,"x_min":43,"x_max":1301,"o":"m 511 1032 l 636 503 l 683 262 l 720 503 l 831 1032 l 1170 1032 l 1301 0 l 1053 0 l 1006 549 l 990 846 l 926 541 l 787 -6 l 559 -6 l 408 541 l 340 846 l 323 549 l 282 0 l 43 -1 l 163 1032 l 511 1032 z "},"Ṁ":{"ha":1344,"x_min":43,"x_max":1301,"o":"m 548 1202 q 567 1269 548 1239 q 618 1314 585 1298 q 690 1331 650 1331 q 786 1300 752 1331 q 820 1211 820 1269 q 802 1144 820 1174 q 752 1098 784 1115 q 679 1082 720 1082 q 583 1114 618 1082 q 548 1202 548 1145 m 511 1032 l 636 503 l 683 262 l 720 503 l 831 1032 l 1170 1032 l 1301 0 l 1053 0 l 1006 549 l 990 846 l 926 541 l 787 -6 l 559 -6 l 408 541 l 340 846 l 323 549 l 282 0 l 43 -1 l 163 1032 l 511 1032 z "},"N":{"ha":1106,"x_min":117,"x_max":989,"o":"m 989 1032 l 989 0 l 729 0 l 395 553 l 319 709 l 351 446 l 351 0 l 117 0 l 117 1032 l 359 1032 l 711 466 l 783 315 l 755 578 l 755 1032 l 989 1032 z "},"Ǌ":{"ha":1649,"x_min":117,"x_max":1529,"o":"m 989 1032 l 989 0 l 729 0 l 395 553 l 319 709 l 351 446 l 351 0 l 117 0 l 117 1032 l 359 1032 l 711 466 l 783 315 l 755 578 l 755 1032 l 989 1032 m 1082 -96 q 1184 -33 1142 -72 q 1245 75 1225 5 q 1263 194 1259 125 q 1267 412 1267 262 l 1267 1032 l 1527 1032 l 1527 416 l 1528 333 q 1529 258 1529 307 q 1514 64 1529 135 q 1431 -96 1496 -29 q 1283 -195 1365 -163 q 1139 -225 1202 -228 l 1082 -96 z "},"Ń":{"ha":1107,"x_min":117,"x_max":989,"o":"m 458 1130 q 561 1241 498 1169 q 635 1348 623 1314 l 812 1260 q 740 1170 785 1218 q 650 1085 695 1122 q 576 1040 605 1049 l 458 1130 m 989 1032 l 989 0 l 729 0 l 395 553 l 319 709 l 351 446 l 351 0 l 117 0 l 117 1032 l 359 1032 l 711 466 l 783 315 l 755 578 l 755 1032 l 989 1032 z "},"Ň":{"ha":1107,"x_min":117,"x_max":989,"o":"m 407 1332 l 558 1219 l 710 1332 l 829 1254 l 637 1057 l 479 1057 l 288 1254 l 407 1332 m 989 1032 l 989 0 l 729 0 l 395 553 l 319 709 l 351 446 l 351 0 l 117 0 l 117 1032 l 359 1032 l 711 466 l 783 315 l 755 578 l 755 1032 l 989 1032 z "},"Ņ":{"ha":1107,"x_min":117,"x_max":989,"o":"m 448 -331 q 463 -237 463 -304 q 452 -187 463 -212 q 427 -155 440 -163 l 427 -121 l 582 -57 q 611 -78 595 -61 q 638 -123 627 -95 q 649 -184 649 -151 q 633 -277 649 -235 q 596 -346 617 -319 q 559 -380 575 -372 l 448 -349 l 448 -331 m 989 1032 l 989 0 l 729 0 l 395 553 l 319 709 l 351 446 l 351 0 l 117 0 l 117 1032 l 359 1032 l 711 466 l 783 315 l 755 578 l 755 1032 l 989 1032 z "},"Ṅ":{"ha":1106,"x_min":117,"x_max":989,"o":"m 989 1032 l 989 0 l 729 0 l 395 553 l 319 709 l 351 446 l 351 0 l 117 0 l 117 1032 l 359 1032 l 711 466 l 783 315 l 755 578 l 755 1032 l 989 1032 m 427 1202 q 445 1269 427 1239 q 496 1314 464 1298 q 569 1331 529 1331 q 665 1300 631 1331 q 699 1211 699 1269 q 681 1144 699 1174 q 630 1098 663 1115 q 557 1082 598 1082 q 461 1114 496 1082 q 427 1202 427 1145 z "},"Ŋ":{"ha":1106,"x_min":117,"x_max":988,"o":"m 988 1032 l 988 215 q 987 96 988 137 q 979 14 985 54 q 959 -68 973 -26 q 877 -194 936 -137 q 731 -284 818 -251 q 545 -318 645 -318 l 494 -221 q 608 -169 554 -204 q 696 -88 663 -134 q 730 7 730 -42 l 398 553 l 323 714 l 358 447 l 358 0 l 117 0 l 117 1032 l 363 1032 l 706 466 l 775 321 l 747 578 l 747 1032 l 988 1032 z "},"ǋ":{"ha":1565,"x_min":117,"x_max":1478,"o":"m 989 1032 l 989 0 l 729 0 l 395 553 l 319 709 l 351 446 l 351 0 l 117 0 l 117 1032 l 359 1032 l 711 466 l 783 315 l 755 578 l 755 1032 l 989 1032 m 1036 -168 q 1070 -177 1044 -172 q 1115 -182 1097 -182 q 1174 -166 1152 -182 q 1204 -110 1195 -149 q 1214 1 1214 -70 l 1214 773 l 1466 773 l 1466 56 q 1431 -180 1466 -92 q 1330 -306 1396 -268 q 1169 -344 1265 -344 q 1094 -338 1136 -344 q 1036 -326 1053 -332 l 1036 -168 m 1188 998 q 1209 1067 1188 1035 q 1264 1118 1230 1099 q 1339 1137 1299 1137 q 1412 1121 1380 1137 q 1460 1075 1443 1105 q 1478 1008 1478 1046 q 1457 938 1478 970 q 1402 887 1437 906 q 1328 867 1368 867 q 1256 884 1288 867 q 1206 930 1224 901 q 1188 998 1188 960 z "},"Ñ":{"ha":1107,"x_min":117,"x_max":989,"o":"m 254 1173 q 293 1250 264 1214 q 366 1308 322 1286 q 463 1331 410 1331 q 520 1323 496 1331 q 562 1305 545 1316 q 597 1277 578 1294 q 633 1251 618 1259 q 670 1242 649 1242 q 731 1263 702 1242 q 781 1313 760 1284 l 867 1221 q 828 1143 856 1179 q 757 1083 800 1106 q 663 1061 715 1061 q 591 1074 618 1061 q 532 1114 563 1088 q 491 1142 508 1133 q 451 1152 475 1152 q 393 1131 421 1152 q 344 1084 364 1111 l 254 1173 m 989 1032 l 989 0 l 729 0 l 395 553 l 319 709 l 351 446 l 351 0 l 117 0 l 117 1032 l 359 1032 l 711 466 l 783 315 l 755 578 l 755 1032 l 989 1032 z "},"O":{"ha":1087,"x_min":60,"x_max":1026,"o":"m 63 522 q 200 910 68 784 q 560 1043 332 1036 q 811 984 705 1047 q 971 800 916 920 q 1023 517 1026 680 q 958 218 1020 336 q 785 45 895 100 q 527 -11 675 -11 q 275 55 380 -11 q 115 240 169 120 q 63 522 60 360 m 758 525 q 707 762 758 675 q 555 849 656 849 q 391 770 452 849 q 329 514 329 692 q 353 339 329 414 q 426 221 377 263 q 545 178 474 178 q 703 261 648 178 q 758 525 758 345 z "},"Ó":{"ha":1087,"x_min":60,"x_max":1026,"o":"m 464 1157 q 566 1269 504 1196 q 640 1375 629 1341 l 818 1287 q 745 1197 790 1245 q 655 1113 701 1149 q 581 1067 610 1076 l 464 1157 m 63 522 q 200 910 68 784 q 560 1043 332 1036 q 811 984 705 1047 q 971 800 916 920 q 1023 517 1026 680 q 958 218 1020 336 q 785 45 895 100 q 527 -11 675 -11 q 275 55 380 -11 q 115 240 169 120 q 63 522 60 360 m 758 525 q 707 762 758 675 q 555 849 656 849 q 391 770 452 849 q 329 514 329 692 q 353 339 329 414 q 426 221 377 263 q 545 178 474 178 q 703 261 648 178 q 758 525 758 345 z "},"Ŏ":{"ha":1087,"x_min":60,"x_max":1026,"o":"m 452 1331 q 478 1265 456 1294 q 562 1237 500 1237 q 645 1265 623 1237 q 673 1331 667 1293 l 822 1331 q 792 1199 823 1256 q 704 1112 762 1143 q 562 1081 645 1081 q 416 1112 475 1081 q 328 1199 357 1143 q 300 1331 299 1255 l 452 1331 m 63 522 q 200 910 68 784 q 560 1043 332 1036 q 811 984 705 1047 q 971 800 916 920 q 1023 517 1026 680 q 958 218 1020 336 q 785 45 895 100 q 527 -11 675 -11 q 275 55 380 -11 q 115 240 169 120 q 63 522 60 360 m 758 525 q 707 762 758 675 q 555 849 656 849 q 391 770 452 849 q 329 514 329 692 q 353 339 329 414 q 426 221 377 263 q 545 178 474 178 q 703 261 648 178 q 758 525 758 345 z "},"Ǒ":{"ha":1087,"x_min":60,"x_max":1026,"o":"m 63 522 q 200 910 68 784 q 560 1043 332 1036 q 811 984 705 1047 q 971 800 916 920 q 1023 517 1026 680 q 958 218 1020 336 q 785 45 895 100 q 527 -11 675 -11 q 275 55 380 -11 q 115 240 169 120 q 63 522 60 360 m 758 525 q 707 762 758 675 q 555 849 656 849 q 391 770 452 849 q 329 514 329 692 q 353 339 329 414 q 426 221 377 263 q 545 178 474 178 q 703 261 648 178 q 758 525 758 345 m 412 1332 l 563 1219 l 715 1332 l 833 1254 l 642 1057 l 484 1057 l 292 1254 l 412 1332 z "},"Ô":{"ha":1087,"x_min":60,"x_max":1026,"o":"m 63 522 q 200 910 68 784 q 560 1043 332 1036 q 811 984 705 1047 q 971 800 916 920 q 1023 517 1026 680 q 958 218 1020 336 q 785 45 895 100 q 527 -11 675 -11 q 275 55 380 -11 q 115 240 169 120 q 63 522 60 360 m 758 525 q 707 762 758 675 q 555 849 656 849 q 391 770 452 849 q 329 514 329 692 q 353 339 329 414 q 426 221 377 263 q 545 178 474 178 q 703 261 648 178 q 758 525 758 345 m 483 1331 l 642 1331 l 835 1124 l 714 1045 l 562 1176 l 411 1045 l 290 1122 l 483 1331 z "},"Ö":{"ha":1087,"x_min":60,"x_max":1026,"o":"m 246 1198 q 265 1265 246 1234 q 316 1314 284 1296 q 387 1332 349 1332 q 480 1298 446 1332 q 515 1208 515 1264 q 496 1140 515 1171 q 446 1091 478 1109 q 376 1073 414 1073 q 308 1088 338 1073 q 262 1133 279 1104 q 246 1198 246 1161 m 613 1198 q 632 1265 613 1234 q 683 1314 651 1296 q 754 1332 715 1332 q 847 1298 813 1332 q 882 1208 882 1264 q 863 1140 882 1171 q 813 1091 845 1109 q 743 1073 781 1073 q 675 1088 705 1073 q 629 1133 646 1104 q 613 1198 613 1161 m 63 522 q 200 910 68 784 q 560 1043 332 1036 q 811 984 705 1047 q 971 800 916 920 q 1023 517 1026 680 q 958 218 1020 336 q 785 45 895 100 q 527 -11 675 -11 q 275 55 380 -11 q 115 240 169 120 q 63 522 60 360 m 758 525 q 707 762 758 675 q 555 849 656 849 q 391 770 452 849 q 329 514 329 692 q 353 339 329 414 q 426 221 377 263 q 545 178 474 178 q 703 261 648 178 q 758 525 758 345 z "},"Ò":{"ha":1087,"x_min":63,"x_max":1026,"o":"m 560 1043 q 811 984 705 1047 q 971 800 916 920 q 1023 517 1026 680 q 958 218 1020 336 q 785 45 895 100 q 527 -11 675 -11 q 278 53 383 -11 q 118 232 174 116 q 63 505 63 349 q 190 900 63 770 q 540 1042 317 1031 q 467 1090 511 1054 q 378 1174 422 1127 q 309 1260 334 1221 l 486 1348 q 559 1243 498 1314 q 663 1130 620 1173 l 548 1042 q 560 1043 552 1043 m 545 178 q 703 261 648 178 q 758 525 758 345 q 707 762 758 675 q 555 849 656 849 q 391 770 452 849 q 329 514 329 692 q 353 339 329 414 q 426 221 377 263 q 545 178 474 178 z "},"Ő":{"ha":1087,"x_min":60,"x_max":1026,"o":"m 63 522 q 200 910 68 784 q 560 1043 332 1036 q 811 984 705 1047 q 971 800 916 920 q 1023 517 1026 680 q 958 218 1020 336 q 785 45 895 100 q 527 -11 675 -11 q 275 55 380 -11 q 115 240 169 120 q 63 522 60 360 m 758 525 q 707 762 758 675 q 555 849 656 849 q 391 770 452 849 q 329 514 329 692 q 353 339 329 414 q 426 221 377 263 q 545 178 474 178 q 703 261 648 178 q 758 525 758 345 m 307 1124 q 353 1179 321 1138 q 414 1263 385 1219 q 455 1331 444 1306 l 630 1251 q 564 1164 604 1210 q 487 1083 524 1118 q 428 1038 449 1048 l 307 1124 m 657 1124 q 737 1220 682 1147 q 810 1330 792 1293 l 983 1249 q 918 1164 957 1210 q 840 1083 878 1118 q 781 1038 802 1048 l 657 1124 z "},"Ō":{"ha":1087,"x_min":60,"x_max":1026,"o":"m 773 1294 l 773 1135 l 353 1135 l 353 1294 l 773 1294 m 63 522 q 200 910 68 784 q 560 1043 332 1036 q 811 984 705 1047 q 971 800 916 920 q 1023 517 1026 680 q 958 218 1020 336 q 785 45 895 100 q 527 -11 675 -11 q 275 55 380 -11 q 115 240 169 120 q 63 522 60 360 m 758 525 q 707 762 758 675 q 555 849 656 849 q 391 770 452 849 q 329 514 329 692 q 353 339 329 414 q 426 221 377 263 q 545 178 474 178 q 703 261 648 178 q 758 525 758 345 z "},"Ø":{"ha":1087,"x_min":63,"x_max":1023,"o":"m 766 1006 q 956 831 888 954 q 1023 534 1023 708 q 962 226 1023 348 q 791 47 901 104 q 530 -11 680 -11 q 404 3 460 -11 l 345 -159 l 254 -142 l 317 32 q 129 211 195 88 q 63 504 63 333 q 196 906 63 775 q 560 1043 328 1036 q 677 1034 621 1045 l 747 1228 l 839 1209 l 766 1006 m 329 514 q 346 364 329 431 q 396 252 363 296 l 608 842 q 555 849 583 849 q 391 770 452 849 q 329 514 329 692 m 545 178 q 703 261 648 178 q 758 525 758 345 q 740 680 758 612 q 687 789 722 747 l 472 192 q 545 178 505 178 z "},"Ǿ":{"ha":1087,"x_min":63,"x_max":1023,"o":"m 766 1006 q 956 831 888 954 q 1023 534 1023 708 q 962 226 1023 348 q 791 47 901 104 q 530 -11 680 -11 q 404 3 460 -11 l 345 -159 l 254 -142 l 317 32 q 129 211 195 88 q 63 504 63 333 q 196 906 63 775 q 560 1043 328 1036 q 677 1034 621 1045 l 747 1228 l 839 1209 l 766 1006 m 329 514 q 346 364 329 431 q 396 252 363 296 l 608 842 q 555 849 583 849 q 391 770 452 849 q 329 514 329 692 m 545 178 q 703 261 648 178 q 758 525 758 345 q 740 680 758 612 q 687 789 722 747 l 472 192 q 545 178 505 178 m 397 1157 q 500 1269 437 1196 q 574 1375 562 1341 l 751 1287 q 679 1197 724 1245 q 589 1113 634 1149 q 515 1067 544 1076 l 397 1157 z "},"Õ":{"ha":1087,"x_min":60,"x_max":1026,"o":"m 258 1173 q 298 1250 269 1214 q 371 1308 327 1286 q 467 1331 414 1331 q 525 1323 500 1331 q 566 1305 550 1316 q 602 1277 583 1294 q 638 1251 623 1259 q 675 1242 654 1242 q 736 1263 707 1242 q 785 1313 765 1284 l 871 1221 q 832 1143 861 1179 q 762 1083 804 1106 q 668 1061 720 1061 q 595 1074 623 1061 q 537 1114 568 1088 q 496 1142 513 1133 q 456 1152 479 1152 q 397 1131 426 1152 q 349 1084 369 1111 l 258 1173 m 63 522 q 200 910 68 784 q 560 1043 332 1036 q 811 984 705 1047 q 971 800 916 920 q 1023 517 1026 680 q 958 218 1020 336 q 785 45 895 100 q 527 -11 675 -11 q 275 55 380 -11 q 115 240 169 120 q 63 522 60 360 m 758 525 q 707 762 758 675 q 555 849 656 849 q 391 770 452 849 q 329 514 329 692 q 353 339 329 414 q 426 221 377 263 q 545 178 474 178 q 703 261 648 178 q 758 525 758 345 z "},"Œ":{"ha":1462,"x_min":66,"x_max":1402,"o":"m 1402 197 l 1402 0 l 712 0 l 712 35 q 629 1 677 14 q 522 -11 581 -11 q 277 54 380 -11 q 120 236 174 119 q 66 505 66 353 q 130 804 66 684 q 304 984 194 925 q 555 1043 414 1043 q 712 1004 650 1043 l 712 1032 l 1361 1032 l 1361 840 l 968 840 l 968 623 l 1263 623 l 1263 435 l 968 435 l 968 197 l 1402 197 m 549 183 q 648 199 608 183 q 712 252 688 215 l 712 772 q 565 844 660 844 q 398 775 466 844 q 330 514 330 707 q 387 268 330 353 q 549 183 444 183 z "},"P":{"ha":944,"x_min":117,"x_max":906,"o":"m 218 1032 q 357 1038 263 1032 q 508 1043 454 1043 q 805 958 703 1043 q 906 679 906 873 q 857 471 906 557 q 713 342 808 386 q 481 298 618 298 q 376 299 420 298 l 376 0 l 117 0 l 117 1032 l 218 1032 m 481 483 q 607 530 560 483 q 653 680 653 578 q 611 814 653 765 q 484 863 568 863 q 376 855 420 863 l 376 488 q 481 483 433 483 z "},"Ṗ":{"ha":944,"x_min":117,"x_max":906,"o":"m 391 1202 q 409 1269 391 1240 q 460 1315 428 1299 q 533 1331 493 1331 q 629 1300 595 1331 q 663 1212 663 1270 q 645 1145 663 1175 q 594 1099 627 1116 q 522 1082 562 1082 q 426 1114 460 1082 q 391 1202 391 1146 m 218 1032 q 357 1038 263 1032 q 508 1043 454 1043 q 805 958 703 1043 q 906 679 906 873 q 857 471 906 557 q 713 342 808 386 q 481 298 618 298 q 376 299 420 298 l 376 0 l 117 0 l 117 1032 l 218 1032 m 481 483 q 607 530 560 483 q 653 680 653 578 q 611 814 653 765 q 484 863 568 863 q 376 855 420 863 l 376 488 q 481 483 433 483 z "},"Þ":{"ha":945,"x_min":117,"x_max":905,"o":"m 542 881 q 737 843 656 881 q 861 729 818 804 q 905 546 905 654 q 861 339 905 427 q 732 206 817 252 q 526 159 647 159 q 377 166 450 159 l 377 0 l 117 0 l 117 1032 l 377 1032 l 377 873 l 421 876 q 542 881 498 881 m 468 342 q 601 386 552 342 q 650 536 650 429 q 606 651 650 610 q 478 693 563 693 q 377 683 424 693 l 377 348 q 419 343 399 344 q 468 342 439 342 z "},"Q":{"ha":1087,"x_min":60,"x_max":1047,"o":"m 913 -56 q 984 -50 942 -56 q 1047 -36 1027 -43 l 1047 -210 q 978 -231 1027 -220 q 883 -241 929 -241 q 610 -187 710 -241 q 471 -8 510 -134 q 249 72 341 4 q 108 256 156 140 q 63 522 60 371 q 200 910 68 784 q 560 1043 332 1036 q 807 986 703 1047 q 967 808 911 925 q 1023 534 1023 692 q 932 175 1023 306 q 677 5 841 44 q 762 -43 704 -31 q 913 -56 820 -56 m 329 514 q 353 339 329 414 q 426 221 377 263 q 545 178 474 178 q 703 261 648 178 q 758 525 758 345 q 707 762 758 675 q 555 849 656 849 q 391 770 452 849 q 329 514 329 692 z "},"R":{"ha":997,"x_min":117,"x_max":971,"o":"m 971 0 l 686 0 q 672 23 678 10 q 649 73 665 35 q 608 184 630 117 q 572 281 587 246 q 536 341 557 317 q 487 368 515 366 q 375 365 448 365 l 375 0 l 117 0 l 117 1032 l 206 1032 q 308 1036 231 1032 q 380 1040 319 1037 q 517 1043 441 1043 q 705 1013 618 1043 q 846 910 791 983 q 901 715 901 838 q 738 418 901 495 q 799 344 773 391 q 862 214 825 297 q 898 134 883 165 q 928 75 912 103 l 971 0 m 375 544 q 435 540 395 541 q 502 539 475 538 q 615 587 577 539 q 653 711 653 635 q 485 861 653 861 q 375 848 419 861 l 375 544 z "},"Ŕ":{"ha":997,"x_min":117,"x_max":971,"o":"m 971 0 l 686 0 q 672 23 678 10 q 649 73 665 35 q 608 184 630 117 q 572 281 587 246 q 536 341 557 317 q 487 368 515 366 q 375 365 448 365 l 375 0 l 117 0 l 117 1032 l 206 1032 q 308 1036 231 1032 q 380 1040 319 1037 q 517 1043 441 1043 q 539 1042 532 1043 l 425 1130 q 528 1241 465 1169 q 602 1348 590 1314 l 779 1260 q 709 1173 752 1219 q 622 1090 666 1126 q 548 1042 578 1054 q 723 1006 644 1038 q 851 902 802 974 q 901 715 901 831 q 738 418 901 495 q 799 344 773 391 q 862 214 825 297 q 898 134 883 165 q 928 75 912 103 l 971 0 m 375 544 q 435 540 395 541 q 502 539 475 538 q 615 587 577 539 q 653 711 653 635 q 485 861 653 861 q 375 848 419 861 l 375 544 z "},"Ř":{"ha":997,"x_min":117,"x_max":971,"o":"m 373 1332 l 524 1219 l 676 1332 l 795 1254 l 604 1057 l 445 1057 l 254 1254 l 373 1332 m 971 0 l 686 0 q 672 23 678 10 q 649 73 665 35 q 608 184 630 117 q 572 281 587 246 q 536 341 557 317 q 487 368 515 366 q 375 365 448 365 l 375 0 l 117 0 l 117 1032 l 206 1032 q 308 1036 231 1032 q 380 1040 319 1037 q 517 1043 441 1043 q 705 1013 618 1043 q 846 910 791 983 q 901 715 901 838 q 738 418 901 495 q 799 344 773 391 q 862 214 825 297 q 898 134 883 165 q 928 75 912 103 l 971 0 m 375 544 q 435 540 395 541 q 502 539 475 538 q 615 587 577 539 q 653 711 653 635 q 485 861 653 861 q 375 848 419 861 l 375 544 z "},"Ŗ":{"ha":997,"x_min":117,"x_max":971,"o":"m 427 -331 q 442 -237 442 -304 q 431 -187 442 -212 q 406 -155 419 -163 l 406 -121 l 561 -57 q 590 -78 574 -61 q 617 -123 606 -95 q 628 -184 628 -151 q 612 -277 628 -235 q 575 -346 596 -319 q 538 -380 554 -372 l 427 -349 l 427 -331 m 971 0 l 686 0 q 672 23 678 10 q 649 73 665 35 q 608 184 630 117 q 572 281 587 246 q 536 341 557 317 q 487 368 515 366 q 375 365 448 365 l 375 0 l 117 0 l 117 1032 l 206 1032 q 308 1036 231 1032 q 380 1040 319 1037 q 517 1043 441 1043 q 705 1013 618 1043 q 846 910 791 983 q 901 715 901 838 q 738 418 901 495 q 799 344 773 391 q 862 214 825 297 q 898 134 883 165 q 928 75 912 103 l 971 0 m 375 544 q 435 540 395 541 q 502 539 475 538 q 615 587 577 539 q 653 711 653 635 q 485 861 653 861 q 375 848 419 861 l 375 544 z "},"S":{"ha":833,"x_min":81,"x_max":791,"o":"m 120 254 q 239 209 163 229 q 390 188 315 188 q 498 209 465 188 q 532 275 532 229 q 513 330 532 307 q 454 375 493 353 q 323 440 416 396 q 146 569 211 493 q 81 760 81 645 q 126 916 81 852 q 255 1011 172 979 q 449 1043 338 1043 q 627 1024 552 1043 q 740 984 703 1006 l 700 790 q 601 836 667 816 q 471 856 536 856 q 365 833 400 856 q 329 769 329 810 q 347 715 329 739 q 402 669 365 691 q 507 616 439 647 q 665 530 604 572 q 758 430 726 487 q 791 295 791 374 q 747 133 791 202 q 618 27 703 64 q 414 -11 534 -11 q 278 -1 345 -11 q 160 24 210 9 q 88 53 110 39 l 120 254 z "},"Ś":{"ha":833,"x_min":81,"x_max":791,"o":"m 507 616 q 665 530 604 572 q 758 430 726 487 q 791 295 791 374 q 747 133 791 202 q 618 27 703 64 q 414 -11 534 -11 q 278 -1 345 -11 q 160 24 210 9 q 88 53 110 39 l 120 254 q 239 209 163 229 q 390 188 315 188 q 498 209 465 188 q 532 275 532 229 q 513 330 532 307 q 454 375 493 353 q 323 440 416 396 q 146 569 211 493 q 81 760 81 645 q 126 916 81 852 q 255 1011 172 979 q 449 1043 338 1043 l 465 1043 l 351 1130 q 454 1241 391 1169 q 528 1348 516 1314 l 705 1260 q 635 1174 678 1220 q 549 1091 593 1127 q 475 1042 505 1055 q 636 1022 568 1040 q 740 984 705 1004 l 700 790 q 601 836 667 816 q 471 856 536 856 q 365 833 400 856 q 329 769 329 810 q 347 715 329 739 q 402 669 365 691 q 507 616 439 647 z "},"Š":{"ha":833,"x_min":81,"x_max":791,"o":"m 120 254 q 239 209 163 229 q 390 188 315 188 q 498 209 465 188 q 532 275 532 229 q 513 330 532 307 q 454 375 493 353 q 323 440 416 396 q 146 569 211 493 q 81 760 81 645 q 126 916 81 852 q 255 1011 172 979 q 449 1043 338 1043 q 627 1024 552 1043 q 740 984 703 1006 l 700 790 q 601 836 667 816 q 471 856 536 856 q 365 833 400 856 q 329 769 329 810 q 347 715 329 739 q 402 669 365 691 q 507 616 439 647 q 665 530 604 572 q 758 430 726 487 q 791 295 791 374 q 747 133 791 202 q 618 27 703 64 q 414 -11 534 -11 q 278 -1 345 -11 q 160 24 210 9 q 88 53 110 39 l 120 254 m 299 1332 l 450 1219 l 602 1332 l 721 1254 l 530 1057 l 371 1057 l 180 1254 l 299 1332 z "},"Ş":{"ha":833,"x_min":81,"x_max":791,"o":"m 791 295 q 717 95 791 174 q 507 -4 644 16 q 526 -67 519 -29 q 533 -141 533 -104 q 483 -271 533 -227 q 353 -315 433 -315 q 278 -309 320 -315 q 224 -296 237 -303 l 239 -173 q 290 -182 254 -182 q 346 -156 324 -182 q 369 -81 368 -130 q 359 -9 370 -37 q 195 16 272 -3 q 88 53 118 35 l 120 254 q 239 209 163 229 q 390 188 315 188 q 498 209 465 188 q 532 275 532 229 q 513 330 532 307 q 454 375 493 353 q 323 440 416 396 q 146 569 211 493 q 81 760 81 645 q 126 916 81 852 q 255 1011 172 979 q 449 1043 338 1043 q 627 1024 552 1043 q 740 984 703 1006 l 700 790 q 601 836 667 816 q 471 856 536 856 q 365 833 400 856 q 329 769 329 810 q 347 715 329 739 q 402 669 365 691 q 507 616 439 647 q 665 530 604 572 q 758 430 726 487 q 791 295 791 374 z "},"Ŝ":{"ha":833,"x_min":81,"x_max":791,"o":"m 120 254 q 239 209 163 229 q 390 188 315 188 q 498 209 465 188 q 532 275 532 229 q 513 330 532 307 q 454 375 493 353 q 323 440 416 396 q 146 569 211 493 q 81 760 81 645 q 126 916 81 852 q 255 1011 172 979 q 449 1043 338 1043 q 627 1024 552 1043 q 740 984 703 1006 l 700 790 q 601 836 667 816 q 471 856 536 856 q 365 833 400 856 q 329 769 329 810 q 347 715 329 739 q 402 669 365 691 q 507 616 439 647 q 665 530 604 572 q 758 430 726 487 q 791 295 791 374 q 747 133 791 202 q 618 27 703 64 q 414 -11 534 -11 q 278 -1 345 -11 q 160 24 210 9 q 88 53 110 39 l 120 254 m 370 1331 l 529 1331 l 722 1124 l 602 1045 l 450 1176 l 298 1045 l 178 1122 l 370 1331 z "},"Ș":{"ha":833,"x_min":81,"x_max":791,"o":"m 342 -331 q 358 -237 358 -304 q 347 -187 358 -212 q 322 -155 335 -163 l 322 -121 l 477 -57 q 506 -78 490 -61 q 533 -123 522 -95 q 544 -184 544 -151 q 528 -277 544 -235 q 491 -346 512 -319 q 454 -380 470 -372 l 342 -349 l 342 -331 m 120 254 q 239 209 163 229 q 390 188 315 188 q 498 209 465 188 q 532 275 532 229 q 513 330 532 307 q 454 375 493 353 q 323 440 416 396 q 146 569 211 493 q 81 760 81 645 q 126 916 81 852 q 255 1011 172 979 q 449 1043 338 1043 q 627 1024 552 1043 q 740 984 703 1006 l 700 790 q 601 836 667 816 q 471 856 536 856 q 365 833 400 856 q 329 769 329 810 q 347 715 329 739 q 402 669 365 691 q 507 616 439 647 q 665 530 604 572 q 758 430 726 487 q 791 295 791 374 q 747 133 791 202 q 618 27 703 64 q 414 -11 534 -11 q 278 -1 345 -11 q 160 24 210 9 q 88 53 110 39 l 120 254 z "},"Ṡ":{"ha":833,"x_min":81,"x_max":791,"o":"m 319 1202 q 337 1269 319 1239 q 389 1314 356 1298 q 461 1331 421 1331 q 557 1300 523 1331 q 591 1211 591 1269 q 573 1144 591 1174 q 523 1098 555 1115 q 450 1082 490 1082 q 354 1114 389 1082 q 319 1202 319 1145 m 120 254 q 239 209 163 229 q 390 188 315 188 q 498 209 465 188 q 532 275 532 229 q 513 330 532 307 q 454 375 493 353 q 323 440 416 396 q 146 569 211 493 q 81 760 81 645 q 126 916 81 852 q 255 1011 172 979 q 449 1043 338 1043 q 627 1024 552 1043 q 740 984 703 1006 l 700 790 q 601 836 667 816 q 471 856 536 856 q 365 833 400 856 q 329 769 329 810 q 347 715 329 739 q 402 669 365 691 q 507 616 439 647 q 665 530 604 572 q 758 430 726 487 q 791 295 791 374 q 747 133 791 202 q 618 27 703 64 q 414 -11 534 -11 q 278 -1 345 -11 q 160 24 210 9 q 88 53 110 39 l 120 254 z "},"ẞ":{"ha":1035,"x_min":70,"x_max":1041,"o":"m 971 977 q 931 982 954 977 q 865 998 909 987 q 725 1031 790 1019 q 584 1043 660 1043 q 304 979 419 1043 q 129 796 189 916 q 70 511 70 676 l 70 0 l 332 0 l 332 589 q 395 797 332 728 q 588 867 458 867 q 712 843 666 867 l 513 612 l 510 477 q 711 436 649 477 q 774 308 774 395 q 752 224 774 258 q 696 176 730 191 q 626 161 663 161 q 544 175 580 161 q 473 208 507 188 l 412 37 q 520 -1 461 13 q 676 -16 578 -16 q 866 26 783 -16 q 995 146 949 68 q 1041 330 1041 224 q 1000 477 1041 415 q 902 572 959 540 q 801 604 845 604 l 971 770 l 971 977 z "},"T":{"ha":850,"x_min":19,"x_max":831,"o":"m 19 833 l 19 1032 l 831 1032 l 831 833 l 555 833 l 555 0 l 295 0 l 295 833 l 19 833 z "},"Ŧ":{"ha":850,"x_min":19,"x_max":831,"o":"m 555 833 l 555 540 l 749 540 l 749 378 l 555 378 l 555 0 l 295 0 l 295 378 l 120 378 l 120 540 l 295 540 l 295 833 l 19 833 l 19 1032 l 831 1032 l 831 833 l 555 833 z "},"Ť":{"ha":850,"x_min":19,"x_max":831,"o":"m 273 1332 l 425 1219 l 576 1332 l 695 1254 l 504 1057 l 345 1057 l 154 1254 l 273 1332 m 19 833 l 19 1032 l 831 1032 l 831 833 l 555 833 l 555 0 l 295 0 l 295 833 l 19 833 z "},"Ţ":{"ha":850,"x_min":19,"x_max":831,"o":"m 831 1032 l 831 833 l 555 833 l 555 0 l 517 0 q 538 -64 530 -25 q 545 -142 545 -103 q 495 -271 545 -227 q 366 -315 445 -315 q 291 -309 332 -315 q 236 -296 249 -303 l 252 -173 q 302 -182 267 -182 q 359 -154 337 -182 q 381 -75 381 -126 q 368 0 381 -32 l 295 0 l 295 833 l 19 833 l 19 1032 l 831 1032 z "},"Ț":{"ha":850,"x_min":19,"x_max":831,"o":"m 350 -331 q 366 -237 366 -304 q 354 -187 366 -212 q 330 -155 342 -163 l 330 -121 l 484 -57 q 513 -78 497 -61 q 540 -123 529 -95 q 551 -184 551 -151 q 535 -277 551 -235 q 498 -346 519 -319 q 462 -380 477 -372 l 350 -349 l 350 -331 m 19 833 l 19 1032 l 831 1032 l 831 833 l 555 833 l 555 0 l 295 0 l 295 833 l 19 833 z "},"Ṫ":{"ha":850,"x_min":19,"x_max":831,"o":"m 292 1202 q 311 1269 292 1239 q 362 1314 330 1298 q 435 1331 395 1331 q 530 1300 496 1331 q 564 1211 564 1269 q 546 1144 564 1174 q 496 1098 528 1115 q 423 1082 464 1082 q 327 1114 362 1082 q 292 1202 292 1145 m 19 833 l 19 1032 l 831 1032 l 831 833 l 555 833 l 555 0 l 295 0 l 295 833 l 19 833 z "},"U":{"ha":1048,"x_min":93,"x_max":955,"o":"m 96 1032 l 353 1032 l 351 465 q 369 299 350 358 q 427 216 389 239 q 526 193 465 193 q 624 217 586 193 q 681 301 662 241 q 700 465 700 361 l 700 1032 l 955 1032 l 955 429 q 851 102 955 216 q 529 -11 747 -11 q 196 105 300 -11 q 94 433 93 221 l 96 1032 z "},"Ú":{"ha":1048,"x_min":93,"x_max":955,"o":"m 426 1130 q 528 1241 466 1169 q 602 1348 591 1314 l 780 1260 q 707 1170 752 1218 q 617 1085 663 1122 q 543 1040 572 1049 l 426 1130 m 96 1032 l 353 1032 l 351 465 q 369 299 350 358 q 427 216 389 239 q 526 193 465 193 q 624 217 586 193 q 681 301 662 241 q 700 465 700 361 l 700 1032 l 955 1032 l 955 429 q 851 102 955 216 q 529 -11 747 -11 q 196 105 300 -11 q 94 433 93 221 l 96 1032 z "},"Ŭ":{"ha":1048,"x_min":93,"x_max":955,"o":"m 414 1331 q 440 1265 418 1294 q 524 1237 463 1237 q 607 1265 585 1237 q 635 1331 629 1293 l 784 1331 q 754 1199 785 1256 q 666 1112 724 1143 q 524 1081 607 1081 q 378 1112 437 1081 q 290 1199 319 1143 q 262 1331 261 1255 l 414 1331 m 96 1032 l 353 1032 l 351 465 q 369 299 350 358 q 427 216 389 239 q 526 193 465 193 q 624 217 586 193 q 681 301 662 241 q 700 465 700 361 l 700 1032 l 955 1032 l 955 429 q 851 102 955 216 q 529 -11 747 -11 q 196 105 300 -11 q 94 433 93 221 l 96 1032 z "},"Ǔ":{"ha":1048,"x_min":93,"x_max":955,"o":"m 96 1032 l 353 1032 l 351 465 q 369 299 350 358 q 427 216 389 239 q 526 193 465 193 q 624 217 586 193 q 681 301 662 241 q 700 465 700 361 l 700 1032 l 955 1032 l 955 429 q 851 102 955 216 q 529 -11 747 -11 q 196 105 300 -11 q 94 433 93 221 l 96 1032 m 374 1332 l 525 1219 l 677 1332 l 795 1254 l 604 1057 l 446 1057 l 254 1254 l 374 1332 z "},"Û":{"ha":1048,"x_min":93,"x_max":955,"o":"m 96 1032 l 353 1032 l 351 465 q 369 299 350 358 q 427 216 389 239 q 526 193 465 193 q 624 217 586 193 q 681 301 662 241 q 700 465 700 361 l 700 1032 l 955 1032 l 955 429 q 851 102 955 216 q 529 -11 747 -11 q 196 105 300 -11 q 94 433 93 221 l 96 1032 m 445 1331 l 604 1331 l 797 1124 l 676 1045 l 524 1176 l 373 1045 l 252 1122 l 445 1331 z "},"Ü":{"ha":1048,"x_min":93,"x_max":955,"o":"m 208 1198 q 227 1265 208 1234 q 278 1314 246 1296 q 349 1332 311 1332 q 442 1298 408 1332 q 477 1208 477 1264 q 458 1140 477 1171 q 408 1091 440 1109 q 338 1073 376 1073 q 270 1088 300 1073 q 224 1133 241 1104 q 208 1198 208 1161 m 575 1198 q 594 1265 575 1234 q 645 1314 613 1296 q 716 1332 677 1332 q 809 1298 775 1332 q 844 1208 844 1264 q 825 1140 844 1171 q 775 1091 807 1109 q 705 1073 743 1073 q 637 1088 667 1073 q 591 1133 608 1104 q 575 1198 575 1161 m 96 1032 l 353 1032 l 351 465 q 369 299 350 358 q 427 216 389 239 q 526 193 465 193 q 624 217 586 193 q 681 301 662 241 q 700 465 700 361 l 700 1032 l 955 1032 l 955 429 q 851 102 955 216 q 529 -11 747 -11 q 196 105 300 -11 q 94 433 93 221 l 96 1032 z "},"Ù":{"ha":1048,"x_min":93,"x_max":955,"o":"m 508 1040 q 435 1086 481 1049 q 343 1171 389 1122 q 271 1260 298 1219 l 449 1348 q 522 1243 460 1314 q 625 1130 583 1173 l 508 1040 m 96 1032 l 353 1032 l 351 465 q 369 299 350 358 q 427 216 389 239 q 526 193 465 193 q 624 217 586 193 q 681 301 662 241 q 700 465 700 361 l 700 1032 l 955 1032 l 955 429 q 851 102 955 216 q 529 -11 747 -11 q 196 105 300 -11 q 94 433 93 221 l 96 1032 z "},"Ű":{"ha":1048,"x_min":93,"x_max":955,"o":"m 96 1032 l 353 1032 l 351 465 q 369 299 350 358 q 427 216 389 239 q 526 193 465 193 q 624 217 586 193 q 681 301 662 241 q 700 465 700 361 l 700 1032 l 955 1032 l 955 429 q 851 102 955 216 q 529 -11 747 -11 q 196 105 300 -11 q 94 433 93 221 l 96 1032 m 269 1124 q 315 1179 283 1138 q 376 1263 347 1219 q 417 1331 406 1306 l 592 1251 q 526 1164 566 1210 q 449 1083 486 1118 q 390 1038 411 1048 l 269 1124 m 619 1124 q 699 1220 644 1147 q 772 1330 754 1293 l 945 1249 q 880 1164 919 1210 q 802 1083 840 1118 q 743 1038 764 1048 l 619 1124 z "},"Ū":{"ha":1048,"x_min":93,"x_max":955,"o":"m 736 1294 l 736 1135 l 316 1135 l 316 1294 l 736 1294 m 96 1032 l 353 1032 l 351 465 q 369 299 350 358 q 427 216 389 239 q 526 193 465 193 q 624 217 586 193 q 681 301 662 241 q 700 465 700 361 l 700 1032 l 955 1032 l 955 429 q 851 102 955 216 q 529 -11 747 -11 q 196 105 300 -11 q 94 433 93 221 l 96 1032 z "},"Ų":{"ha":1048,"x_min":92,"x_max":955,"o":"m 955 1032 l 955 429 q 890 154 955 260 q 692 9 826 47 q 631 -64 652 -28 q 611 -140 610 -100 q 638 -187 613 -172 q 701 -203 663 -203 q 775 -189 733 -203 l 775 -304 q 600 -350 703 -350 q 507 -330 551 -350 q 437 -276 464 -311 q 410 -198 410 -241 q 439 -92 407 -139 q 526 -11 471 -45 q 94 433 92 -9 l 96 1032 l 353 1032 l 351 465 q 369 299 350 358 q 427 216 389 239 q 526 193 465 193 q 624 217 586 193 q 681 301 662 241 q 700 465 700 361 l 700 1032 l 955 1032 z "},"Ů":{"ha":1048,"x_min":93,"x_max":955,"o":"m 96 1032 l 353 1032 l 351 465 q 369 299 350 358 q 427 216 389 239 q 526 193 465 193 q 624 217 586 193 q 681 301 662 241 q 700 465 700 361 l 700 1032 l 955 1032 l 955 429 q 851 102 955 216 q 529 -11 747 -11 q 196 105 300 -11 q 94 433 93 221 l 96 1032 m 277 1214 q 312 1328 277 1284 q 404 1391 348 1372 q 527 1409 460 1409 q 706 1360 642 1409 q 770 1215 770 1312 q 735 1099 770 1144 q 645 1034 701 1054 q 521 1013 589 1013 q 341 1066 406 1013 q 277 1214 277 1118 m 631 1211 q 601 1277 631 1255 q 519 1299 570 1299 q 444 1281 471 1299 q 416 1215 416 1263 q 445 1151 416 1174 q 523 1128 475 1128 q 582 1134 559 1128 q 618 1159 606 1141 q 631 1211 631 1177 z "},"Ũ":{"ha":1048,"x_min":93,"x_max":955,"o":"m 220 1173 q 260 1250 231 1214 q 333 1308 289 1286 q 429 1331 376 1331 q 487 1323 463 1331 q 528 1305 512 1316 q 564 1277 545 1294 q 600 1251 585 1259 q 637 1242 616 1242 q 698 1263 669 1242 q 747 1313 727 1284 l 833 1221 q 794 1143 823 1179 q 724 1083 766 1106 q 630 1061 682 1061 q 557 1074 585 1061 q 499 1114 530 1088 q 458 1142 475 1133 q 418 1152 441 1152 q 359 1131 388 1152 q 311 1084 331 1111 l 220 1173 m 96 1032 l 353 1032 l 351 465 q 369 299 350 358 q 427 216 389 239 q 526 193 465 193 q 624 217 586 193 q 681 301 662 241 q 700 465 700 361 l 700 1032 l 955 1032 l 955 429 q 851 102 955 216 q 529 -11 747 -11 q 196 105 300 -11 q 94 433 93 221 l 96 1032 z "},"V":{"ha":956,"x_min":-8,"x_max":964,"o":"m 267 1032 l 432 511 l 484 310 l 535 511 l 689 1032 l 964 1032 l 592 -3 l 367 -3 l -8 1032 l 267 1032 z "},"W":{"ha":1355,"x_min":-9,"x_max":1364,"o":"m 1364 1032 l 1092 -7 l 838 -7 l 705 532 l 673 748 l 643 532 l 512 -7 l 262 -7 l -9 1032 l 250 1032 l 358 456 l 390 210 l 427 456 l 564 1032 l 799 1032 l 939 456 l 977 223 l 1008 456 l 1115 1032 l 1364 1032 z "},"Ẃ":{"ha":1355,"x_min":-9,"x_max":1364,"o":"m 571 1130 q 673 1241 611 1169 q 747 1348 736 1314 l 925 1260 q 852 1170 897 1218 q 763 1085 808 1122 q 688 1040 718 1049 l 571 1130 m 1364 1032 l 1092 -7 l 838 -7 l 705 532 l 673 748 l 643 532 l 512 -7 l 262 -7 l -9 1032 l 250 1032 l 358 456 l 390 210 l 427 456 l 564 1032 l 799 1032 l 939 456 l 977 223 l 1008 456 l 1115 1032 l 1364 1032 z "},"Ŵ":{"ha":1355,"x_min":-9,"x_max":1364,"o":"m 1364 1032 l 1092 -7 l 838 -7 l 705 532 l 673 748 l 643 532 l 512 -7 l 262 -7 l -9 1032 l 250 1032 l 358 456 l 390 210 l 427 456 l 564 1032 l 799 1032 l 939 456 l 977 223 l 1008 456 l 1115 1032 l 1364 1032 m 590 1331 l 749 1331 l 942 1124 l 821 1045 l 669 1176 l 518 1045 l 397 1122 l 590 1331 z "},"Ẅ":{"ha":1355,"x_min":-9,"x_max":1364,"o":"m 353 1198 q 372 1265 353 1234 q 424 1314 391 1296 q 494 1332 456 1332 q 587 1298 553 1332 q 622 1208 622 1264 q 604 1140 622 1171 q 553 1091 585 1109 q 483 1073 522 1073 q 415 1088 445 1073 q 370 1133 386 1104 q 353 1198 353 1161 m 720 1198 q 739 1265 720 1234 q 790 1314 758 1296 q 861 1332 823 1332 q 955 1298 920 1332 q 989 1208 989 1264 q 970 1140 989 1171 q 920 1091 952 1109 q 850 1073 888 1073 q 782 1088 812 1073 q 736 1133 753 1104 q 720 1198 720 1161 m 1364 1032 l 1092 -7 l 838 -7 l 705 532 l 673 748 l 643 532 l 512 -7 l 262 -7 l -9 1032 l 250 1032 l 358 456 l 390 210 l 427 456 l 564 1032 l 799 1032 l 939 456 l 977 223 l 1008 456 l 1115 1032 l 1364 1032 z "},"Ẁ":{"ha":1355,"x_min":-9,"x_max":1364,"o":"m 653 1040 q 580 1086 626 1049 q 488 1171 534 1122 q 416 1260 443 1219 l 594 1348 q 667 1243 606 1314 q 770 1130 728 1173 l 653 1040 m 1364 1032 l 1092 -7 l 838 -7 l 705 532 l 673 748 l 643 532 l 512 -7 l 262 -7 l -9 1032 l 250 1032 l 358 456 l 390 210 l 427 456 l 564 1032 l 799 1032 l 939 456 l 977 223 l 1008 456 l 1115 1032 l 1364 1032 z "},"X":{"ha":946,"x_min":9,"x_max":939,"o":"m 939 0 l 652 0 l 508 266 l 465 355 l 422 266 l 282 0 l 9 0 l 315 528 l 18 1032 l 302 1033 l 444 773 l 484 694 l 524 773 l 658 1032 l 929 1032 l 629 513 l 939 0 z "},"Y":{"ha":874,"x_min":-36,"x_max":910,"o":"m 568 362 l 568 0 l 304 0 l 304 363 l -36 1032 l 247 1032 l 400 699 l 444 584 l 480 699 l 635 1032 l 910 1032 l 568 362 z "},"Ý":{"ha":874,"x_min":-36,"x_max":910,"o":"m 568 362 l 568 0 l 304 0 l 304 363 l -36 1032 l 247 1032 l 400 699 l 444 584 l 480 699 l 635 1032 l 910 1032 l 568 362 m 352 1130 q 454 1241 392 1169 q 528 1348 517 1314 l 706 1260 q 633 1170 678 1218 q 544 1085 589 1122 q 469 1040 498 1049 l 352 1130 z "},"Ŷ":{"ha":874,"x_min":-36,"x_max":910,"o":"m 568 362 l 568 0 l 304 0 l 304 363 l -36 1032 l 247 1032 l 400 699 l 444 584 l 480 699 l 635 1032 l 910 1032 l 568 362 m 371 1331 l 530 1331 l 723 1124 l 602 1045 l 450 1176 l 299 1045 l 178 1122 l 371 1331 z "},"Ÿ":{"ha":874,"x_min":-36,"x_max":910,"o":"m 568 362 l 568 0 l 304 0 l 304 363 l -36 1032 l 247 1032 l 400 699 l 444 584 l 480 699 l 635 1032 l 910 1032 l 568 362 m 134 1198 q 153 1265 134 1234 q 204 1314 172 1296 q 275 1332 237 1332 q 368 1298 334 1332 q 403 1208 403 1264 q 385 1140 403 1171 q 334 1091 366 1109 q 264 1073 302 1073 q 196 1088 226 1073 q 151 1133 167 1104 q 134 1198 134 1161 m 501 1198 q 520 1265 501 1234 q 571 1314 539 1296 q 642 1332 604 1332 q 735 1298 701 1332 q 770 1208 770 1264 q 751 1140 770 1171 q 701 1091 733 1109 q 631 1073 669 1073 q 563 1088 593 1073 q 517 1133 534 1104 q 501 1198 501 1161 z "},"Ẏ":{"ha":874,"x_min":-36,"x_max":910,"o":"m 568 362 l 568 0 l 304 0 l 304 363 l -36 1032 l 247 1032 l 400 699 l 444 584 l 480 699 l 635 1032 l 910 1032 l 568 362 m 319 1202 q 338 1269 319 1239 q 389 1314 357 1298 q 462 1331 422 1331 q 557 1300 524 1331 q 591 1211 591 1269 q 573 1144 591 1174 q 523 1098 555 1115 q 450 1082 491 1082 q 354 1114 389 1082 q 319 1202 319 1145 z "},"Ỳ":{"ha":874,"x_min":-36,"x_max":910,"o":"m 568 362 l 568 0 l 304 0 l 304 363 l -36 1032 l 247 1032 l 400 699 l 444 584 l 480 699 l 635 1032 l 910 1032 l 568 362 m 433 1040 q 360 1086 406 1049 q 269 1171 314 1122 q 197 1260 223 1219 l 374 1348 q 447 1243 386 1314 q 551 1130 508 1173 l 433 1040 z "},"Z":{"ha":883,"x_min":24,"x_max":844,"o":"m 448 777 l 494 844 l 73 844 l 73 1032 l 816 1032 l 844 977 l 428 264 l 378 193 l 818 193 l 818 0 l 53 0 l 24 57 l 448 777 z "},"Ź":{"ha":883,"x_min":24,"x_max":844,"o":"m 448 777 l 494 844 l 73 844 l 73 1032 l 816 1032 l 844 977 l 428 264 l 378 193 l 818 193 l 818 0 l 53 0 l 24 57 l 448 777 m 359 1130 q 461 1241 399 1169 q 535 1348 524 1314 l 713 1260 q 640 1170 685 1218 q 550 1085 595 1122 q 476 1040 505 1049 l 359 1130 z "},"Ž":{"ha":883,"x_min":24,"x_max":844,"o":"m 307 1332 l 458 1219 l 610 1332 l 728 1254 l 537 1057 l 378 1057 l 187 1254 l 307 1332 m 448 777 l 494 844 l 73 844 l 73 1032 l 816 1032 l 844 977 l 428 264 l 378 193 l 818 193 l 818 0 l 53 0 l 24 57 l 448 777 z "},"Ż":{"ha":883,"x_min":24,"x_max":844,"o":"m 326 1202 q 345 1269 326 1239 q 396 1314 363 1298 q 469 1331 429 1331 q 564 1300 530 1331 q 598 1211 598 1269 q 580 1144 598 1174 q 530 1098 562 1115 q 457 1082 498 1082 q 361 1114 396 1082 q 326 1202 326 1145 m 448 777 l 494 844 l 73 844 l 73 1032 l 816 1032 l 844 977 l 428 264 l 378 193 l 818 193 l 818 0 l 53 0 l 24 57 l 448 777 z "},"a":{"ha":857,"x_min":58,"x_max":762,"o":"m 427 787 q 624 758 551 787 q 729 666 696 729 q 762 494 762 602 l 762 -11 l 605 -11 q 559 -7 574 -11 q 534 12 543 -3 q 526 60 526 27 l 526 65 q 310 -11 439 -11 q 177 21 235 -11 q 89 109 120 52 q 58 236 58 165 q 95 354 58 303 q 197 432 132 404 q 341 469 260 459 q 513 479 422 479 l 513 526 q 502 578 513 560 q 461 602 490 595 q 372 609 431 609 q 258 593 328 609 q 138 554 189 577 l 87 702 q 173 740 118 720 q 295 773 228 760 q 427 787 363 787 m 415 144 q 472 154 444 144 q 513 176 501 164 l 513 358 q 437 351 476 357 q 377 334 397 344 q 333 305 350 323 q 317 249 317 286 q 345 171 317 197 q 415 144 374 144 z "},"á":{"ha":857,"x_min":58,"x_max":762,"o":"m 427 787 q 624 758 551 787 q 729 666 696 729 q 762 494 762 602 l 762 -11 l 605 -11 q 559 -7 574 -11 q 534 12 543 -3 q 526 60 526 27 l 526 65 q 310 -11 439 -11 q 177 21 235 -11 q 89 109 120 52 q 58 236 58 165 q 95 354 58 303 q 197 432 132 404 q 341 469 260 459 q 513 479 422 479 l 513 526 q 502 578 513 560 q 461 602 490 595 q 372 609 431 609 q 258 593 328 609 q 138 554 189 577 l 87 702 q 173 740 118 720 q 295 773 228 760 q 427 787 363 787 m 415 144 q 472 154 444 144 q 513 176 501 164 l 513 358 q 437 351 476 357 q 377 334 397 344 q 333 305 350 323 q 317 249 317 286 q 345 171 317 197 q 415 144 374 144 m 330 946 q 448 1080 381 997 q 560 1237 515 1163 l 725 1109 q 652 1005 705 1061 q 540 901 599 948 q 448 839 481 854 l 330 946 z "},"ă":{"ha":857,"x_min":58,"x_max":762,"o":"m 427 787 q 624 758 551 787 q 729 666 696 729 q 762 494 762 602 l 762 -11 l 605 -11 q 559 -7 574 -11 q 534 12 543 -3 q 526 60 526 27 l 526 65 q 310 -11 439 -11 q 177 21 235 -11 q 89 109 120 52 q 58 236 58 165 q 95 354 58 303 q 197 432 132 404 q 341 469 260 459 q 513 479 422 479 l 513 526 q 502 578 513 560 q 461 602 490 595 q 372 609 431 609 q 258 593 328 609 q 138 554 189 577 l 87 702 q 173 740 118 720 q 295 773 228 760 q 427 787 363 787 m 415 144 q 472 154 444 144 q 513 176 501 164 l 513 358 q 437 351 476 357 q 377 334 397 344 q 333 305 350 323 q 317 249 317 286 q 345 171 317 197 q 415 144 374 144 m 326 1144 q 335 1095 328 1118 q 366 1055 342 1073 q 433 1036 389 1036 q 499 1055 476 1036 q 530 1094 522 1073 q 542 1144 537 1116 l 694 1144 q 663 1003 694 1065 q 573 906 632 941 q 433 871 513 871 q 290 906 349 871 q 200 1003 231 941 q 172 1144 170 1065 l 326 1144 z "},"ǎ":{"ha":857,"x_min":58,"x_max":762,"o":"m 427 787 q 624 758 551 787 q 729 666 696 729 q 762 494 762 602 l 762 -11 l 605 -11 q 559 -7 574 -11 q 534 12 543 -3 q 526 60 526 27 l 526 65 q 310 -11 439 -11 q 177 21 235 -11 q 89 109 120 52 q 58 236 58 165 q 95 354 58 303 q 197 432 132 404 q 341 469 260 459 q 513 479 422 479 l 513 526 q 502 578 513 560 q 461 602 490 595 q 372 609 431 609 q 258 593 328 609 q 138 554 189 577 l 87 702 q 173 740 118 720 q 295 773 228 760 q 427 787 363 787 m 415 144 q 472 154 444 144 q 513 176 501 164 l 513 358 q 437 351 476 357 q 377 334 397 344 q 333 305 350 323 q 317 249 317 286 q 345 171 317 197 q 415 144 374 144 m 431 1025 l 593 1179 l 713 1102 l 507 852 l 355 852 l 149 1103 l 268 1179 l 431 1025 z "},"â":{"ha":857,"x_min":58,"x_max":762,"o":"m 427 787 q 624 758 551 787 q 729 666 696 729 q 762 494 762 602 l 762 -11 l 605 -11 q 559 -7 574 -11 q 534 12 543 -3 q 526 60 526 27 l 526 65 q 310 -11 439 -11 q 177 21 235 -11 q 89 109 120 52 q 58 236 58 165 q 95 354 58 303 q 197 432 132 404 q 341 469 260 459 q 513 479 422 479 l 513 526 q 502 578 513 560 q 461 602 490 595 q 372 609 431 609 q 258 593 328 609 q 138 554 189 577 l 87 702 q 173 740 118 720 q 295 773 228 760 q 427 787 363 787 m 415 144 q 472 154 444 144 q 513 176 501 164 l 513 358 q 437 351 476 357 q 377 334 397 344 q 333 305 350 323 q 317 249 317 286 q 345 171 317 197 q 415 144 374 144 m 358 1175 l 509 1175 l 715 924 l 595 846 l 433 1000 l 271 846 l 151 924 l 358 1175 z "},"ä":{"ha":857,"x_min":58,"x_max":762,"o":"m 427 787 q 624 758 551 787 q 729 666 696 729 q 762 494 762 602 l 762 -11 l 605 -11 q 559 -7 574 -11 q 534 12 543 -3 q 526 60 526 27 l 526 65 q 310 -11 439 -11 q 177 21 235 -11 q 89 109 120 52 q 58 236 58 165 q 95 354 58 303 q 197 432 132 404 q 341 469 260 459 q 513 479 422 479 l 513 526 q 502 578 513 560 q 461 602 490 595 q 372 609 431 609 q 258 593 328 609 q 138 554 189 577 l 87 702 q 173 740 118 720 q 295 773 228 760 q 427 787 363 787 m 415 144 q 472 154 444 144 q 513 176 501 164 l 513 358 q 437 351 476 357 q 377 334 397 344 q 333 305 350 323 q 317 249 317 286 q 345 171 317 197 q 415 144 374 144 m 124 997 q 143 1066 124 1034 q 194 1116 162 1097 q 264 1135 227 1135 q 357 1100 323 1135 q 391 1007 391 1065 q 372 938 391 970 q 322 887 354 906 q 252 868 290 868 q 185 885 214 868 q 140 930 156 901 q 124 997 124 960 m 475 997 q 494 1066 475 1034 q 545 1117 513 1098 q 615 1135 577 1135 q 707 1100 673 1135 q 741 1007 741 1065 q 723 938 741 970 q 673 887 705 906 q 604 868 642 868 q 536 885 566 868 q 491 930 507 901 q 475 997 475 960 z "},"à":{"ha":857,"x_min":58,"x_max":762,"o":"m 427 787 q 624 758 551 787 q 729 666 696 729 q 762 494 762 602 l 762 -11 l 605 -11 q 559 -7 574 -11 q 534 12 543 -3 q 526 60 526 27 l 526 65 q 310 -11 439 -11 q 177 21 235 -11 q 89 109 120 52 q 58 236 58 165 q 95 354 58 303 q 197 432 132 404 q 341 469 260 459 q 513 479 422 479 l 513 526 q 502 578 513 560 q 461 602 490 595 q 372 609 431 609 q 258 593 328 609 q 138 554 189 577 l 87 702 q 173 740 118 720 q 295 773 228 760 q 427 787 363 787 m 415 144 q 472 154 444 144 q 513 176 501 164 l 513 358 q 437 351 476 357 q 377 334 397 344 q 333 305 350 323 q 317 249 317 286 q 345 171 317 197 q 415 144 374 144 m 408 828 q 315 893 374 844 q 200 1001 255 941 q 124 1109 146 1060 l 290 1237 q 405 1070 336 1160 q 522 935 473 980 l 408 828 z "},"ā":{"ha":857,"x_min":58,"x_max":762,"o":"m 427 787 q 624 758 551 787 q 729 666 696 729 q 762 494 762 602 l 762 -11 l 605 -11 q 559 -7 574 -11 q 534 12 543 -3 q 526 60 526 27 l 526 65 q 310 -11 439 -11 q 177 21 235 -11 q 89 109 120 52 q 58 236 58 165 q 95 354 58 303 q 197 432 132 404 q 341 469 260 459 q 513 479 422 479 l 513 526 q 502 578 513 560 q 461 602 490 595 q 372 609 431 609 q 258 593 328 609 q 138 554 189 577 l 87 702 q 173 740 118 720 q 295 773 228 760 q 427 787 363 787 m 415 144 q 472 154 444 144 q 513 176 501 164 l 513 358 q 437 351 476 357 q 377 334 397 344 q 333 305 350 323 q 317 249 317 286 q 345 171 317 197 q 415 144 374 144 m 643 1113 l 643 951 l 223 951 l 223 1113 l 643 1113 z "},"ą":{"ha":857,"x_min":58,"x_max":762,"o":"m 707 -11 q 630 -69 658 -38 q 602 -138 602 -100 q 686 -203 602 -203 q 760 -189 718 -203 l 760 -304 q 683 -338 725 -327 q 585 -350 641 -350 q 491 -332 534 -350 q 421 -281 447 -314 q 395 -203 395 -248 q 439 -87 395 -138 q 549 -3 483 -37 q 531 19 537 4 q 526 60 526 33 l 526 65 q 310 -11 439 -11 q 177 21 235 -11 q 89 109 120 52 q 58 236 58 165 q 95 354 58 303 q 197 432 132 404 q 341 469 260 459 q 513 479 422 479 l 513 526 q 502 578 513 560 q 461 602 490 595 q 372 609 431 609 q 258 593 328 609 q 138 554 189 577 l 87 702 q 173 740 118 720 q 295 773 228 760 q 427 787 363 787 q 624 758 551 787 q 729 666 696 729 q 762 494 762 602 l 762 -11 l 707 -11 m 415 144 q 472 154 444 144 q 513 176 501 164 l 513 358 q 437 351 476 357 q 377 334 397 344 q 333 305 350 323 q 317 249 317 286 q 345 171 317 197 q 415 144 374 144 z "},"å":{"ha":857,"x_min":58,"x_max":762,"o":"m 427 787 q 624 758 551 787 q 729 666 696 729 q 762 494 762 602 l 762 -11 l 605 -11 q 559 -7 574 -11 q 534 12 543 -3 q 526 60 526 27 l 526 65 q 310 -11 439 -11 q 177 21 235 -11 q 89 109 120 52 q 58 236 58 165 q 95 354 58 303 q 197 432 132 404 q 341 469 260 459 q 513 479 422 479 l 513 526 q 502 578 513 560 q 461 602 490 595 q 372 609 431 609 q 258 593 328 609 q 138 554 189 577 l 87 702 q 173 740 118 720 q 295 773 228 760 q 427 787 363 787 m 415 144 q 472 154 444 144 q 513 176 501 164 l 513 358 q 437 351 476 357 q 377 334 397 344 q 333 305 350 323 q 317 249 317 286 q 345 171 317 197 q 415 144 374 144 m 186 1087 q 222 1204 186 1158 q 314 1271 258 1251 q 436 1292 371 1292 q 614 1239 550 1292 q 679 1088 679 1186 q 645 970 679 1018 q 554 901 610 923 q 430 878 497 878 q 299 904 354 878 q 215 976 244 929 q 186 1087 186 1023 m 541 1084 q 509 1156 541 1130 q 429 1181 478 1181 q 354 1159 383 1181 q 325 1089 325 1137 q 355 1020 325 1046 q 432 993 385 993 q 512 1013 484 992 q 541 1084 541 1034 z "},"ã":{"ha":857,"x_min":58,"x_max":762,"o":"m 427 787 q 624 758 551 787 q 729 666 696 729 q 762 494 762 602 l 762 -11 l 605 -11 q 559 -7 574 -11 q 534 12 543 -3 q 526 60 526 27 l 526 65 q 310 -11 439 -11 q 177 21 235 -11 q 89 109 120 52 q 58 236 58 165 q 95 354 58 303 q 197 432 132 404 q 341 469 260 459 q 513 479 422 479 l 513 526 q 502 578 513 560 q 461 602 490 595 q 372 609 431 609 q 258 593 328 609 q 138 554 189 577 l 87 702 q 173 740 118 720 q 295 773 228 760 q 427 787 363 787 m 415 144 q 472 154 444 144 q 513 176 501 164 l 513 358 q 437 351 476 357 q 377 334 397 344 q 333 305 350 323 q 317 249 317 286 q 345 171 317 197 q 415 144 374 144 m 118 994 q 158 1070 129 1034 q 231 1128 187 1106 q 330 1150 275 1150 q 391 1142 366 1150 q 433 1124 417 1135 q 471 1096 450 1114 q 507 1070 492 1078 q 543 1061 522 1061 q 605 1083 575 1061 q 656 1133 635 1104 l 742 1041 q 703 963 731 1000 q 631 904 674 926 q 536 881 588 881 q 480 888 504 881 q 439 906 456 896 q 401 934 422 917 q 359 963 376 954 q 318 972 342 972 q 258 951 288 972 q 208 903 229 930 l 118 994 z "},"æ":{"ha":1273,"x_min":62,"x_max":1215,"o":"m 1215 470 q 1208 330 1215 391 l 758 330 q 813 208 764 245 q 949 170 861 170 q 1065 181 1004 170 q 1155 209 1126 193 l 1194 73 q 1069 14 1152 39 q 891 -11 987 -11 q 720 19 794 -11 q 597 106 646 49 q 471 18 545 47 q 313 -11 397 -11 q 184 17 241 -11 q 95 99 127 45 q 62 226 62 153 q 101 348 62 294 q 205 431 139 402 q 347 468 267 457 q 509 479 427 479 l 509 520 q 476 587 509 567 q 371 606 444 606 q 285 597 331 606 q 201 575 239 588 q 145 551 163 562 l 92 702 q 234 758 145 730 q 439 787 323 787 q 577 771 522 787 q 667 720 633 756 q 893 784 760 784 q 1125 713 1035 784 q 1215 470 1215 642 m 985 453 q 986 481 986 463 q 963 587 986 553 q 888 622 939 622 q 801 584 832 622 q 760 453 769 545 l 985 453 m 415 144 q 486 160 451 144 q 541 203 522 177 q 509 358 513 273 q 435 351 469 357 q 379 334 401 345 q 333 303 350 322 q 316 245 316 285 q 345 170 316 195 q 415 144 374 144 z "},"ǽ":{"ha":1273,"x_min":62,"x_max":1215,"o":"m 534 946 q 651 1080 585 997 q 764 1237 718 1163 l 928 1109 q 855 1005 908 1061 q 743 901 802 948 q 651 839 684 854 l 534 946 m 1215 470 q 1208 330 1215 391 l 758 330 q 813 208 764 245 q 949 170 861 170 q 1065 181 1004 170 q 1155 209 1126 193 l 1194 73 q 1069 14 1152 39 q 891 -11 987 -11 q 720 19 794 -11 q 597 106 646 49 q 471 18 545 47 q 313 -11 397 -11 q 184 17 241 -11 q 95 99 127 45 q 62 226 62 153 q 101 348 62 294 q 205 431 139 402 q 347 468 267 457 q 509 479 427 479 l 509 520 q 476 587 509 567 q 371 606 444 606 q 285 597 331 606 q 201 575 239 588 q 145 551 163 562 l 92 702 q 234 758 145 730 q 439 787 323 787 q 577 771 522 787 q 667 720 633 756 q 893 784 760 784 q 1125 713 1035 784 q 1215 470 1215 642 m 985 453 q 986 481 986 463 q 963 587 986 553 q 888 622 939 622 q 801 584 832 622 q 760 453 769 545 l 985 453 m 415 144 q 486 160 451 144 q 541 203 522 177 q 509 358 513 273 q 435 351 469 357 q 379 334 401 345 q 333 303 350 322 q 316 245 316 285 q 345 170 316 195 q 415 144 374 144 z "},"b":{"ha":937,"x_min":108,"x_max":879,"o":"m 572 784 q 727 743 657 784 q 838 619 796 702 q 879 415 879 536 q 828 188 879 286 q 685 38 778 91 q 469 -14 593 -14 q 315 -4 395 -14 q 176 21 235 7 q 108 43 118 35 l 108 1126 l 359 1126 l 359 848 l 354 706 q 572 784 439 784 m 616 403 q 583 553 616 509 q 486 597 549 597 q 415 585 450 597 q 359 557 380 572 l 359 178 q 465 155 380 155 q 543 184 509 155 q 597 269 578 213 q 616 403 616 326 z "},"ḃ":{"ha":937,"x_min":108,"x_max":879,"o":"m 572 784 q 727 743 657 784 q 838 619 796 702 q 879 415 879 536 q 828 188 879 286 q 685 38 778 91 q 469 -14 593 -14 q 315 -4 395 -14 q 176 21 235 7 q 108 43 118 35 l 108 1126 l 359 1126 l 359 848 l 354 706 q 572 784 439 784 m 616 403 q 583 553 616 509 q 486 597 549 597 q 415 585 450 597 q 359 557 380 572 l 359 178 q 465 155 380 155 q 543 184 509 155 q 597 269 578 213 q 616 403 616 326 m 452 998 q 473 1067 452 1035 q 529 1118 494 1099 q 604 1137 564 1137 q 676 1121 644 1137 q 725 1075 707 1105 q 742 1008 742 1046 q 722 938 742 970 q 667 887 701 906 q 592 867 632 867 q 520 884 552 867 q 470 930 488 901 q 452 998 452 960 z "},"c":{"ha":711,"x_min":58,"x_max":675,"o":"m 450 784 q 584 772 524 784 q 664 745 644 760 l 635 557 q 484 589 579 589 q 400 569 439 589 q 337 505 361 550 q 312 389 312 460 q 360 231 312 280 q 486 182 408 182 q 576 190 534 182 q 644 210 618 197 l 675 68 q 574 12 642 34 q 432 -11 506 -11 q 224 39 308 -11 q 99 177 140 89 q 58 379 58 264 q 100 587 58 496 q 231 731 143 678 q 450 784 319 784 z "},"ć":{"ha":711,"x_min":58,"x_max":718,"o":"m 323 947 q 440 1081 374 998 q 553 1238 507 1164 l 718 1109 q 644 1005 697 1062 q 532 902 591 949 q 440 840 473 855 l 323 947 m 450 784 q 584 772 524 784 q 664 745 644 760 l 635 557 q 484 589 579 589 q 400 569 439 589 q 337 505 361 550 q 312 389 312 460 q 360 231 312 280 q 486 182 408 182 q 576 190 534 182 q 644 210 618 197 l 675 68 q 574 12 642 34 q 432 -11 506 -11 q 224 39 308 -11 q 99 177 140 89 q 58 379 58 264 q 100 587 58 496 q 231 731 143 678 q 450 784 319 784 z "},"č":{"ha":711,"x_min":58,"x_max":705,"o":"m 423 1026 l 585 1180 l 705 1103 l 499 852 l 348 852 l 141 1103 l 260 1180 l 423 1026 m 450 784 q 584 772 524 784 q 664 745 644 760 l 635 557 q 484 589 579 589 q 400 569 439 589 q 337 505 361 550 q 312 389 312 460 q 360 231 312 280 q 486 182 408 182 q 576 190 534 182 q 644 210 618 197 l 675 68 q 574 12 642 34 q 432 -11 506 -11 q 224 39 308 -11 q 99 177 140 89 q 58 379 58 264 q 100 587 58 496 q 231 731 143 678 q 450 784 319 784 z "},"ç":{"ha":711,"x_min":58,"x_max":675,"o":"m 675 68 q 606 24 651 43 q 507 -5 561 5 q 526 -67 519 -30 q 533 -141 533 -104 q 483 -271 533 -227 q 353 -315 433 -315 q 278 -309 320 -315 q 224 -296 237 -303 l 239 -173 q 290 -182 254 -182 q 346 -156 324 -182 q 369 -81 368 -130 q 357 -5 370 -35 q 191 61 258 9 q 91 195 123 114 q 58 379 58 277 q 100 587 58 496 q 231 731 143 678 q 450 784 319 784 q 584 772 524 784 q 664 745 644 760 l 635 557 q 484 589 579 589 q 400 569 439 589 q 337 505 361 550 q 312 389 312 460 q 360 231 312 280 q 486 182 408 182 q 576 190 534 182 q 644 210 618 197 l 675 68 z "},"ĉ":{"ha":711,"x_min":58,"x_max":708,"o":"m 351 1175 l 502 1175 l 708 924 l 588 847 l 426 1001 l 263 847 l 144 924 l 351 1175 m 450 784 q 584 772 524 784 q 664 745 644 760 l 635 557 q 484 589 579 589 q 400 569 439 589 q 337 505 361 550 q 312 389 312 460 q 360 231 312 280 q 486 182 408 182 q 576 190 534 182 q 644 210 618 197 l 675 68 q 574 12 642 34 q 432 -11 506 -11 q 224 39 308 -11 q 99 177 140 89 q 58 379 58 264 q 100 587 58 496 q 231 731 143 678 q 450 784 319 784 z "},"ċ":{"ha":711,"x_min":58,"x_max":675,"o":"m 450 784 q 584 772 524 784 q 664 745 644 760 l 635 557 q 484 589 579 589 q 400 569 439 589 q 337 505 361 550 q 312 389 312 460 q 360 231 312 280 q 486 182 408 182 q 576 190 534 182 q 644 210 618 197 l 675 68 q 574 12 642 34 q 432 -11 506 -11 q 224 39 308 -11 q 99 177 140 89 q 58 379 58 264 q 100 587 58 496 q 231 731 143 678 q 450 784 319 784 m 275 998 q 296 1067 275 1035 q 352 1118 317 1099 q 427 1137 387 1137 q 499 1121 467 1137 q 548 1075 530 1105 q 565 1008 565 1046 q 545 938 565 970 q 490 887 524 906 q 415 867 455 867 q 343 884 375 867 q 293 930 311 901 q 275 998 275 960 z "},"d":{"ha":937,"x_min":58,"x_max":828,"o":"m 828 1127 l 828 -11 l 635 -11 q 608 -1 617 -11 q 598 26 598 8 l 598 81 q 364 -11 509 -11 q 210 31 279 -11 q 99 156 140 72 q 58 360 58 239 q 106 585 58 490 q 244 732 155 681 q 452 784 334 784 q 580 765 524 784 l 577 848 l 577 1127 l 828 1127 m 321 370 q 354 222 321 267 q 450 177 387 177 q 520 188 485 177 q 577 213 555 198 l 577 589 q 471 610 547 610 q 393 583 427 610 q 340 502 359 556 q 321 370 321 448 z "},"ð":{"ha":896,"x_min":57,"x_max":850,"o":"m 499 1090 q 686 921 606 1023 q 808 698 765 820 q 850 451 850 576 q 797 187 850 292 q 652 32 743 82 q 450 -18 562 -18 q 242 31 332 -18 q 105 169 153 80 q 57 373 57 258 q 100 582 57 490 q 224 727 142 674 q 418 779 306 779 q 552 749 494 779 q 395 954 509 865 l 313 845 l 202 922 l 287 1031 q 147 1097 214 1076 l 188 1227 q 298 1192 256 1207 q 382 1154 339 1177 q 435 1228 412 1195 q 467 1273 459 1261 l 581 1195 q 551 1156 573 1185 q 499 1090 528 1126 m 452 156 q 523 182 491 156 q 574 264 555 209 q 593 401 593 319 q 591 557 593 522 q 538 600 574 582 q 460 618 503 618 q 358 553 395 618 q 321 363 321 488 q 357 208 321 259 q 452 156 393 156 z "},"ď":{"ha":1158,"x_min":58,"x_max":1184,"o":"m 828 1127 l 828 -11 l 635 -11 q 608 -1 617 -11 q 598 26 598 8 l 598 81 q 364 -11 509 -11 q 210 31 279 -11 q 99 156 140 72 q 58 360 58 239 q 106 585 58 490 q 244 732 155 681 q 452 784 334 784 q 580 765 524 784 l 577 848 l 577 1127 l 828 1127 m 321 370 q 354 222 321 267 q 450 177 387 177 q 520 188 485 177 q 577 213 555 198 l 577 589 q 471 610 547 610 q 393 583 427 610 q 340 502 359 556 q 321 370 321 448 m 971 720 q 984 804 979 754 q 988 913 989 854 q 977 1003 988 963 q 947 1063 966 1042 l 954 1108 l 1126 1168 q 1184 972 1184 1118 q 1168 845 1184 906 q 1130 739 1153 785 q 1083 669 1107 694 l 977 696 l 971 720 z "},"đ":{"ha":937,"x_min":58,"x_max":915,"o":"m 915 876 l 828 876 l 828 -11 l 635 -11 q 608 -1 617 -11 q 598 26 598 8 l 598 81 q 364 -11 509 -11 q 210 31 279 -11 q 99 156 140 72 q 58 360 58 239 q 106 585 58 490 q 244 732 155 681 q 452 784 334 784 q 580 765 524 784 l 577 848 l 577 876 l 430 876 l 430 1012 l 577 1012 l 577 1127 l 828 1127 l 828 1012 l 915 1012 l 915 876 m 321 370 q 354 222 321 267 q 450 177 387 177 q 520 188 485 177 q 577 213 555 198 l 577 589 q 471 610 547 610 q 393 583 427 610 q 340 502 359 556 q 321 370 321 448 z "},"ḋ":{"ha":937,"x_min":58,"x_max":828,"o":"m 828 1127 l 828 -11 l 635 -11 q 608 -1 617 -11 q 598 26 598 8 l 598 81 q 364 -11 509 -11 q 210 31 279 -11 q 99 156 140 72 q 58 360 58 239 q 106 585 58 490 q 244 732 155 681 q 452 784 334 784 q 580 765 524 784 l 577 848 l 577 1127 l 828 1127 m 321 370 q 354 222 321 267 q 450 177 387 177 q 520 188 485 177 q 577 213 555 198 l 577 589 q 471 610 547 610 q 393 583 427 610 q 340 502 359 556 q 321 370 321 448 m 153 998 q 174 1067 153 1035 q 230 1118 195 1099 q 304 1137 264 1137 q 377 1121 345 1137 q 426 1075 408 1105 q 443 1008 443 1046 q 422 938 443 970 q 368 887 402 906 q 293 867 333 867 q 221 884 253 867 q 171 930 189 901 q 153 998 153 960 z "},"ǳ":{"ha":1689,"x_min":58,"x_max":1655,"o":"m 828 1127 l 828 -11 l 635 -11 q 608 -1 617 -11 q 598 26 598 8 l 598 81 q 364 -11 509 -11 q 210 31 279 -11 q 99 156 140 72 q 58 360 58 239 q 106 585 58 490 q 244 732 155 681 q 452 784 334 784 q 580 765 524 784 l 577 848 l 577 1127 l 828 1127 m 321 370 q 354 222 321 267 q 450 177 387 177 q 520 188 485 177 q 577 213 555 198 l 577 589 q 471 610 547 610 q 393 583 427 610 q 340 502 359 556 q 321 370 321 448 m 1282 541 l 1323 602 l 1018 602 l 1019 773 l 1632 773 l 1655 709 l 1352 239 l 1308 176 l 1641 176 l 1641 0 l 1000 0 l 972 56 l 1282 541 z "},"ǆ":{"ha":1689,"x_min":58,"x_max":1655,"o":"m 828 1127 l 828 -11 l 635 -11 q 608 -1 617 -11 q 598 26 598 8 l 598 81 q 364 -11 509 -11 q 210 31 279 -11 q 99 156 140 72 q 58 360 58 239 q 106 585 58 490 q 244 732 155 681 q 452 784 334 784 q 580 765 524 784 l 577 848 l 577 1127 l 828 1127 m 321 370 q 354 222 321 267 q 450 177 387 177 q 520 188 485 177 q 577 213 555 198 l 577 589 q 471 610 547 610 q 393 583 427 610 q 340 502 359 556 q 321 370 321 448 m 1282 541 l 1323 602 l 1018 602 l 1019 773 l 1632 773 l 1655 709 l 1352 239 l 1308 176 l 1641 176 l 1641 0 l 1000 0 l 972 56 l 1282 541 m 1329 1025 l 1491 1179 l 1611 1102 l 1404 852 l 1253 852 l 1046 1103 l 1166 1179 l 1329 1025 z "},"e":{"ha":828,"x_min":58,"x_max":770,"o":"m 770 470 q 762 328 770 385 l 309 328 q 366 205 317 243 q 502 167 414 167 q 619 179 557 167 q 709 206 681 191 l 748 73 q 623 14 706 39 q 443 -11 541 -11 q 233 37 319 -11 q 102 175 146 85 q 58 390 58 264 q 104 593 58 503 q 238 733 150 682 q 446 784 326 784 q 679 713 588 784 q 770 470 769 642 m 538 453 q 538 482 538 463 q 515 588 538 553 q 440 622 492 622 q 352 584 384 622 q 311 453 320 545 l 538 453 z "},"é":{"ha":828,"x_min":58,"x_max":770,"o":"m 340 947 q 457 1081 391 998 q 570 1238 524 1164 l 734 1109 q 661 1005 714 1062 q 549 902 608 949 q 457 840 490 855 l 340 947 m 770 470 q 762 328 770 385 l 309 328 q 366 205 317 243 q 502 167 414 167 q 619 179 557 167 q 709 206 681 191 l 748 73 q 623 14 706 39 q 443 -11 541 -11 q 233 37 319 -11 q 102 175 146 85 q 58 390 58 264 q 104 593 58 503 q 238 733 150 682 q 446 784 326 784 q 679 713 588 784 q 770 470 769 642 m 538 453 q 538 482 538 463 q 515 588 538 553 q 440 622 492 622 q 352 584 384 622 q 311 453 320 545 l 538 453 z "},"ĕ":{"ha":828,"x_min":58,"x_max":770,"o":"m 770 470 q 762 328 770 385 l 309 328 q 366 205 317 243 q 502 167 414 167 q 619 179 557 167 q 709 206 681 191 l 748 73 q 623 14 706 39 q 443 -11 541 -11 q 233 37 319 -11 q 102 175 146 85 q 58 390 58 264 q 104 593 58 503 q 238 733 150 682 q 446 784 326 784 q 679 713 588 784 q 770 470 769 642 m 538 453 q 538 482 538 463 q 515 588 538 553 q 440 622 492 622 q 352 584 384 622 q 311 453 320 545 l 538 453 m 336 1145 q 346 1096 338 1118 q 376 1055 353 1074 q 444 1037 399 1037 q 509 1055 486 1037 q 540 1095 532 1074 q 552 1145 547 1116 l 704 1145 q 673 1004 705 1066 q 583 907 642 942 q 444 872 524 872 q 300 907 359 872 q 211 1004 241 942 q 182 1145 180 1065 l 336 1145 z "},"ě":{"ha":828,"x_min":58,"x_max":770,"o":"m 440 1026 l 602 1180 l 722 1103 l 516 852 l 365 852 l 158 1103 l 277 1180 l 440 1026 m 770 470 q 762 328 770 385 l 309 328 q 366 205 317 243 q 502 167 414 167 q 619 179 557 167 q 709 206 681 191 l 748 73 q 623 14 706 39 q 443 -11 541 -11 q 233 37 319 -11 q 102 175 146 85 q 58 390 58 264 q 104 593 58 503 q 238 733 150 682 q 446 784 326 784 q 679 713 588 784 q 770 470 769 642 m 538 453 q 538 482 538 463 q 515 588 538 553 q 440 622 492 622 q 352 584 384 622 q 311 453 320 545 l 538 453 z "},"ê":{"ha":828,"x_min":58,"x_max":770,"o":"m 368 1175 l 519 1175 l 726 924 l 606 847 l 444 1001 l 281 847 l 161 924 l 368 1175 m 770 470 q 762 328 770 385 l 309 328 q 366 205 317 243 q 502 167 414 167 q 619 179 557 167 q 709 206 681 191 l 748 73 q 623 14 706 39 q 443 -11 541 -11 q 233 37 319 -11 q 102 175 146 85 q 58 390 58 264 q 104 593 58 503 q 238 733 150 682 q 446 784 326 784 q 679 713 588 784 q 770 470 769 642 m 538 453 q 538 482 538 463 q 515 588 538 553 q 440 622 492 622 q 352 584 384 622 q 311 453 320 545 l 538 453 z "},"ë":{"ha":828,"x_min":58,"x_max":770,"o":"m 134 998 q 153 1066 134 1035 q 204 1117 172 1098 q 273 1136 236 1136 q 366 1101 332 1136 q 400 1008 400 1065 q 382 939 400 970 q 332 888 363 907 q 262 869 300 869 q 195 885 224 869 q 150 931 165 902 q 134 998 134 960 m 485 998 q 504 1067 485 1035 q 554 1117 522 1099 q 625 1136 587 1136 q 717 1101 683 1136 q 751 1008 751 1065 q 732 939 751 970 q 683 888 714 907 q 613 869 651 869 q 546 885 575 869 q 501 931 517 902 q 485 998 485 960 m 770 470 q 762 328 770 385 l 309 328 q 366 205 317 243 q 502 167 414 167 q 619 179 557 167 q 709 206 681 191 l 748 73 q 623 14 706 39 q 443 -11 541 -11 q 233 37 319 -11 q 102 175 146 85 q 58 390 58 264 q 104 593 58 503 q 238 733 150 682 q 446 784 326 784 q 679 713 588 784 q 770 470 769 642 m 538 453 q 538 482 538 463 q 515 588 538 553 q 440 622 492 622 q 352 584 384 622 q 311 453 320 545 l 538 453 z "},"ė":{"ha":828,"x_min":58,"x_max":770,"o":"m 770 470 q 762 328 770 385 l 309 328 q 366 205 317 243 q 502 167 414 167 q 619 179 557 167 q 709 206 681 191 l 748 73 q 623 14 706 39 q 443 -11 541 -11 q 233 37 319 -11 q 102 175 146 85 q 58 390 58 264 q 104 593 58 503 q 238 733 150 682 q 446 784 326 784 q 679 713 588 784 q 770 470 769 642 m 538 453 q 538 482 538 463 q 515 588 538 553 q 440 622 492 622 q 352 584 384 622 q 311 453 320 545 l 538 453 m 293 998 q 314 1067 293 1035 q 369 1118 334 1099 q 444 1137 404 1137 q 516 1121 485 1137 q 565 1075 548 1105 q 583 1008 583 1046 q 562 938 583 970 q 507 887 542 906 q 433 867 473 867 q 361 884 393 867 q 311 930 329 901 q 293 998 293 960 z "},"è":{"ha":828,"x_min":58,"x_max":770,"o":"m 770 470 q 762 328 770 385 l 309 328 q 366 205 317 243 q 502 167 414 167 q 619 179 557 167 q 709 206 681 191 l 748 73 q 623 14 706 39 q 443 -11 541 -11 q 233 37 319 -11 q 102 175 146 85 q 58 390 58 264 q 104 593 58 503 q 238 733 150 682 q 446 784 326 784 q 679 713 588 784 q 770 470 769 642 m 538 453 q 538 482 538 463 q 515 588 538 553 q 440 622 492 622 q 352 584 384 622 q 311 453 320 545 l 538 453 m 418 829 q 325 893 385 845 q 211 1001 265 942 q 134 1109 156 1061 l 300 1238 q 415 1070 347 1160 q 532 936 483 981 l 418 829 z "},"ē":{"ha":828,"x_min":58,"x_max":770,"o":"m 770 470 q 762 328 770 385 l 309 328 q 366 205 317 243 q 502 167 414 167 q 619 179 557 167 q 709 206 681 191 l 748 73 q 623 14 706 39 q 443 -11 541 -11 q 233 37 319 -11 q 102 175 146 85 q 58 390 58 264 q 104 593 58 503 q 238 733 150 682 q 446 784 326 784 q 679 713 588 784 q 770 470 769 642 m 538 453 q 538 482 538 463 q 515 588 538 553 q 440 622 492 622 q 352 584 384 622 q 311 453 320 545 l 538 453 m 653 1114 l 653 952 l 233 952 l 233 1114 l 653 1114 z "},"ę":{"ha":828,"x_min":58,"x_max":770,"o":"m 770 470 q 762 328 770 385 l 309 328 q 366 205 317 243 q 502 167 414 167 q 619 179 557 167 q 709 206 681 191 l 748 73 q 683 35 724 53 q 602 -51 630 -11 q 574 -138 574 -92 q 600 -186 574 -170 q 665 -203 625 -203 q 739 -189 696 -203 l 739 -304 q 564 -350 667 -350 q 470 -332 513 -350 q 400 -282 427 -315 q 373 -206 374 -249 q 404 -95 370 -146 q 492 -9 438 -44 q 443 -11 468 -11 q 233 37 319 -11 q 102 175 146 85 q 58 390 58 264 q 104 593 58 503 q 238 733 150 682 q 446 784 326 784 q 679 713 588 784 q 770 470 769 642 m 538 453 q 538 482 538 463 q 515 588 538 553 q 440 622 492 622 q 352 584 384 622 q 311 453 320 545 l 538 453 z "},"f":{"ha":597,"x_min":54,"x_max":600,"o":"m 54 608 l 54 755 l 151 773 l 151 852 q 194 1022 151 957 q 305 1114 237 1086 q 450 1142 372 1142 q 600 1126 532 1142 l 600 954 q 560 966 585 962 q 500 971 534 971 q 429 940 454 971 q 403 843 403 908 l 403 773 l 570 773 l 570 608 l 403 608 l 403 0 l 151 0 l 151 608 l 54 608 z "},"ḟ":{"ha":597,"x_min":35,"x_max":600,"o":"m 35 1215 q 55 1285 35 1253 q 111 1336 76 1317 q 186 1355 146 1355 q 258 1339 227 1355 q 307 1293 290 1322 q 324 1225 324 1263 q 304 1156 324 1188 q 249 1104 283 1124 q 174 1085 214 1085 q 102 1102 134 1085 q 53 1148 71 1118 q 35 1215 35 1178 m 54 608 l 54 755 l 151 773 l 151 852 q 194 1022 151 957 q 305 1114 237 1086 q 450 1142 372 1142 q 600 1126 532 1142 l 600 954 q 560 966 585 962 q 500 971 534 971 q 429 940 454 971 q 403 843 403 908 l 403 773 l 570 773 l 570 608 l 403 608 l 403 0 l 151 0 l 151 608 l 54 608 z "},"g":{"ha":923,"x_min":45,"x_max":907,"o":"m 907 600 l 783 600 q 790 536 790 569 q 701 352 790 417 q 427 287 612 287 q 350 291 387 287 q 332 266 338 280 q 326 236 326 251 q 347 197 326 208 q 424 186 369 186 l 577 186 q 814 121 745 186 q 883 -49 883 56 q 822 -214 883 -146 q 661 -316 760 -282 q 448 -350 562 -350 q 145 -288 245 -350 q 45 -116 45 -227 q 75 -21 45 -64 q 161 47 105 22 q 115 94 131 64 q 99 161 99 124 q 129 249 99 206 q 225 321 158 292 q 111 405 151 351 q 71 532 71 459 q 162 720 71 657 q 427 783 254 783 q 689 726 599 783 q 746 760 712 746 q 821 773 780 773 l 907 773 l 907 600 m 429 418 q 517 444 487 418 q 548 534 548 469 q 432 654 548 654 q 342 627 374 654 q 311 534 311 600 q 341 449 311 479 q 429 418 371 418 m 322 7 q 298 -71 298 -26 q 333 -174 298 -133 q 456 -214 368 -214 q 586 -186 538 -214 q 633 -100 633 -159 q 622 -43 633 -66 q 579 -6 611 -20 q 486 7 547 7 l 322 7 z "},"ğ":{"ha":923,"x_min":45,"x_max":907,"o":"m 907 600 l 783 600 q 790 536 790 569 q 701 352 790 417 q 427 287 612 287 q 350 291 387 287 q 332 266 338 280 q 326 236 326 251 q 347 197 326 208 q 424 186 369 186 l 577 186 q 814 121 745 186 q 883 -49 883 56 q 822 -214 883 -146 q 661 -316 760 -282 q 448 -350 562 -350 q 145 -288 245 -350 q 45 -116 45 -227 q 75 -21 45 -64 q 161 47 105 22 q 115 94 131 64 q 99 161 99 124 q 129 249 99 206 q 225 321 158 292 q 111 405 151 351 q 71 532 71 459 q 162 720 71 657 q 427 783 254 783 q 689 726 599 783 q 746 760 712 746 q 821 773 780 773 l 907 773 l 907 600 m 429 418 q 517 444 487 418 q 548 534 548 469 q 432 654 548 654 q 342 627 374 654 q 311 534 311 600 q 341 449 311 479 q 429 418 371 418 m 322 7 q 298 -71 298 -26 q 333 -174 298 -133 q 456 -214 368 -214 q 586 -186 538 -214 q 633 -100 633 -159 q 622 -43 633 -66 q 579 -6 611 -20 q 486 7 547 7 l 322 7 m 335 1145 q 345 1096 338 1118 q 375 1055 352 1074 q 443 1037 399 1037 q 509 1055 486 1037 q 539 1095 532 1074 q 551 1145 547 1116 l 703 1145 q 673 1004 704 1066 q 582 907 642 942 q 443 872 523 872 q 299 907 359 872 q 210 1004 240 942 q 181 1145 180 1065 l 335 1145 z "},"ǧ":{"ha":923,"x_min":45,"x_max":907,"o":"m 907 600 l 783 600 q 790 536 790 569 q 701 352 790 417 q 427 287 612 287 q 350 291 387 287 q 332 266 338 280 q 326 236 326 251 q 347 197 326 208 q 424 186 369 186 l 577 186 q 814 121 745 186 q 883 -49 883 56 q 822 -214 883 -146 q 661 -316 760 -282 q 448 -350 562 -350 q 145 -288 245 -350 q 45 -116 45 -227 q 75 -21 45 -64 q 161 47 105 22 q 115 94 131 64 q 99 161 99 124 q 129 249 99 206 q 225 321 158 292 q 111 405 151 351 q 71 532 71 459 q 162 720 71 657 q 427 783 254 783 q 689 726 599 783 q 746 760 712 746 q 821 773 780 773 l 907 773 l 907 600 m 429 418 q 517 444 487 418 q 548 534 548 469 q 432 654 548 654 q 342 627 374 654 q 311 534 311 600 q 341 449 311 479 q 429 418 371 418 m 322 7 q 298 -71 298 -26 q 333 -174 298 -133 q 456 -214 368 -214 q 586 -186 538 -214 q 633 -100 633 -159 q 622 -43 633 -66 q 579 -6 611 -20 q 486 7 547 7 l 322 7 m 440 1026 l 602 1180 l 722 1103 l 516 852 l 365 852 l 158 1103 l 277 1180 l 440 1026 z "},"ĝ":{"ha":923,"x_min":45,"x_max":907,"o":"m 368 1175 l 519 1175 l 726 924 l 606 847 l 444 1001 l 281 847 l 161 924 l 368 1175 m 907 600 l 783 600 q 790 536 790 569 q 701 352 790 417 q 427 287 612 287 q 350 291 387 287 q 332 266 338 280 q 326 236 326 251 q 347 197 326 208 q 424 186 369 186 l 577 186 q 814 121 745 186 q 883 -49 883 56 q 822 -214 883 -146 q 661 -316 760 -282 q 448 -350 562 -350 q 145 -288 245 -350 q 45 -116 45 -227 q 75 -21 45 -64 q 161 47 105 22 q 115 94 131 64 q 99 161 99 124 q 129 249 99 206 q 225 321 158 292 q 111 405 151 351 q 71 532 71 459 q 162 720 71 657 q 427 783 254 783 q 689 726 599 783 q 746 760 712 746 q 821 773 780 773 l 907 773 l 907 600 m 429 418 q 517 444 487 418 q 548 534 548 469 q 432 654 548 654 q 342 627 374 654 q 311 534 311 600 q 341 449 311 479 q 429 418 371 418 m 322 7 q 298 -71 298 -26 q 333 -174 298 -133 q 456 -214 368 -214 q 586 -186 538 -214 q 633 -100 633 -159 q 622 -43 633 -66 q 579 -6 611 -20 q 486 7 547 7 l 322 7 z "},"ģ":{"ha":923,"x_min":45,"x_max":907,"o":"m 452 861 q 380 887 415 864 q 322 953 345 911 q 300 1052 300 995 q 320 1153 300 1107 q 370 1229 340 1199 q 427 1268 400 1259 l 525 1234 l 525 1219 q 505 1177 511 1198 q 498 1115 498 1156 q 515 1042 498 1076 q 559 1004 532 1008 l 559 951 l 452 861 m 907 600 l 783 600 q 790 536 790 569 q 701 352 790 417 q 427 287 612 287 q 350 291 387 287 q 332 266 338 280 q 326 236 326 251 q 347 197 326 208 q 424 186 369 186 l 577 186 q 814 121 745 186 q 883 -49 883 56 q 822 -214 883 -146 q 661 -316 760 -282 q 448 -350 562 -350 q 145 -288 245 -350 q 45 -116 45 -227 q 75 -21 45 -64 q 161 47 105 22 q 115 94 131 64 q 99 161 99 124 q 129 249 99 206 q 225 321 158 292 q 111 405 151 351 q 71 532 71 459 q 162 720 71 657 q 427 783 254 783 q 689 726 599 783 q 746 760 712 746 q 821 773 780 773 l 907 773 l 907 600 m 429 418 q 517 444 487 418 q 548 534 548 469 q 432 654 548 654 q 342 627 374 654 q 311 534 311 600 q 341 449 311 479 q 429 418 371 418 m 322 7 q 298 -71 298 -26 q 333 -174 298 -133 q 456 -214 368 -214 q 586 -186 538 -214 q 633 -100 633 -159 q 622 -43 633 -66 q 579 -6 611 -20 q 486 7 547 7 l 322 7 z "},"ġ":{"ha":923,"x_min":45,"x_max":907,"o":"m 907 600 l 783 600 q 790 536 790 569 q 701 352 790 417 q 427 287 612 287 q 350 291 387 287 q 332 266 338 280 q 326 236 326 251 q 347 197 326 208 q 424 186 369 186 l 577 186 q 814 121 745 186 q 883 -49 883 56 q 822 -214 883 -146 q 661 -316 760 -282 q 448 -350 562 -350 q 145 -288 245 -350 q 45 -116 45 -227 q 75 -21 45 -64 q 161 47 105 22 q 115 94 131 64 q 99 161 99 124 q 129 249 99 206 q 225 321 158 292 q 111 405 151 351 q 71 532 71 459 q 162 720 71 657 q 427 783 254 783 q 689 726 599 783 q 746 760 712 746 q 821 773 780 773 l 907 773 l 907 600 m 429 418 q 517 444 487 418 q 548 534 548 469 q 432 654 548 654 q 342 627 374 654 q 311 534 311 600 q 341 449 311 479 q 429 418 371 418 m 322 7 q 298 -71 298 -26 q 333 -174 298 -133 q 456 -214 368 -214 q 586 -186 538 -214 q 633 -100 633 -159 q 622 -43 633 -66 q 579 -6 611 -20 q 486 7 547 7 l 322 7 m 292 998 q 313 1067 292 1035 q 369 1118 334 1099 q 444 1137 404 1137 q 516 1121 484 1137 q 565 1075 547 1105 q 582 1008 582 1046 q 562 938 582 970 q 507 887 541 906 q 432 867 472 867 q 360 884 392 867 q 310 930 328 901 q 292 998 292 960 z "},"ḡ":{"ha":923,"x_min":45,"x_max":907,"o":"m 907 600 l 783 600 q 790 536 790 569 q 701 352 790 417 q 427 287 612 287 q 350 291 387 287 q 332 266 338 280 q 326 236 326 251 q 347 197 326 208 q 424 186 369 186 l 577 186 q 814 121 745 186 q 883 -49 883 56 q 822 -214 883 -146 q 661 -316 760 -282 q 448 -350 562 -350 q 145 -288 245 -350 q 45 -116 45 -227 q 75 -21 45 -64 q 161 47 105 22 q 115 94 131 64 q 99 161 99 124 q 129 249 99 206 q 225 321 158 292 q 111 405 151 351 q 71 532 71 459 q 162 720 71 657 q 427 783 254 783 q 689 726 599 783 q 746 760 712 746 q 821 773 780 773 l 907 773 l 907 600 m 429 418 q 517 444 487 418 q 548 534 548 469 q 432 654 548 654 q 342 627 374 654 q 311 534 311 600 q 341 449 311 479 q 429 418 371 418 m 322 7 q 298 -71 298 -26 q 333 -174 298 -133 q 456 -214 368 -214 q 586 -186 538 -214 q 633 -100 633 -159 q 622 -43 633 -66 q 579 -6 611 -20 q 486 7 547 7 l 322 7 m 652 1114 l 652 952 l 233 952 l 233 1114 l 652 1114 z "},"h":{"ha":936,"x_min":108,"x_max":834,"o":"m 597 785 q 777 712 719 785 q 834 485 834 638 l 834 0 l 583 0 l 583 442 q 572 531 583 499 q 542 575 562 562 q 487 588 521 588 q 422 576 458 588 q 359 538 386 564 l 359 0 l 108 0 l 108 1127 l 359 1127 l 359 837 l 348 692 q 460 758 393 730 q 597 785 526 785 z "},"ħ":{"ha":936,"x_min":20,"x_max":834,"o":"m 597 785 q 777 712 719 785 q 834 485 834 638 l 834 0 l 583 0 l 583 442 q 572 531 583 499 q 542 575 562 562 q 487 588 521 588 q 422 576 458 588 q 359 538 386 564 l 359 0 l 108 0 l 108 880 l 20 880 l 20 1017 l 108 1017 l 108 1127 l 359 1127 l 359 1017 l 504 1017 l 504 880 l 359 880 l 359 837 l 348 692 q 460 758 393 730 q 597 785 526 785 z "},"ĥ":{"ha":936,"x_min":108,"x_max":834,"o":"m 597 785 q 777 712 719 785 q 834 485 834 638 l 834 0 l 583 0 l 583 442 q 572 531 583 499 q 542 575 562 562 q 487 588 521 588 q 422 576 458 588 q 359 538 386 564 l 359 0 l 108 0 l 108 1127 l 279 1127 l 468 1332 l 627 1332 l 820 1124 l 699 1046 l 547 1177 l 396 1046 l 359 1069 l 359 837 l 348 692 q 460 758 393 730 q 597 785 526 785 z "},"i":{"ha":468,"x_min":83,"x_max":373,"o":"m 360 773 l 360 0 l 108 0 l 108 773 l 360 773 m 83 997 q 104 1066 83 1034 q 160 1118 125 1099 q 235 1137 195 1137 q 307 1120 275 1137 q 356 1075 338 1104 q 373 1007 373 1045 q 353 938 373 970 q 298 886 332 905 q 223 867 263 867 q 151 883 183 867 q 101 930 119 900 q 83 997 83 960 z "},"ı":{"ha":468,"x_min":108,"x_max":360,"o":"m 360 773 l 360 0 l 108 0 l 108 773 l 360 773 z "},"í":{"ha":468,"x_min":108,"x_max":526,"o":"m 131 946 q 249 1080 182 997 q 361 1237 315 1163 l 526 1109 q 452 1005 505 1061 q 340 901 399 948 q 248 839 281 854 l 131 946 m 360 773 l 360 0 l 108 0 l 108 773 l 360 773 z "},"ĭ":{"ha":468,"x_min":-29,"x_max":495,"o":"m 360 773 l 360 0 l 108 0 l 108 773 l 360 773 m 126 1144 q 136 1095 129 1118 q 166 1055 143 1073 q 234 1036 190 1036 q 300 1055 277 1036 q 330 1094 323 1073 q 342 1144 338 1116 l 494 1144 q 464 1003 495 1065 q 373 906 433 941 q 234 871 314 871 q 91 906 150 871 q 1 1003 31 941 q -28 1144 -29 1065 l 126 1144 z "},"ǐ":{"ha":468,"x_min":-51,"x_max":513,"o":"m 360 773 l 360 0 l 108 0 l 108 773 l 360 773 m 231 1025 l 393 1179 l 513 1102 l 307 852 l 156 852 l -51 1103 l 68 1179 l 231 1025 z "},"î":{"ha":468,"x_min":-48,"x_max":516,"o":"m 159 1175 l 310 1175 l 516 924 l 396 846 l 234 1000 l 71 846 l -48 924 l 159 1175 m 360 773 l 360 0 l 108 0 l 108 773 l 360 773 z "},"ï":{"ha":468,"x_min":-65,"x_max":532,"o":"m -65 997 q -47 1066 -65 1034 q 3 1117 -28 1098 q 72 1135 34 1135 q 163 1100 130 1135 q 195 1007 195 1065 q 178 938 195 970 q 129 887 160 906 q 60 868 98 868 q -31 904 3 868 q -65 997 -65 940 m 271 997 q 289 1066 271 1034 q 339 1117 307 1098 q 408 1135 370 1135 q 499 1100 466 1135 q 532 1007 532 1065 q 514 938 532 970 q 465 887 496 906 q 396 868 434 868 q 305 904 339 868 q 271 997 271 940 m 360 773 l 360 0 l 108 0 l 108 773 l 360 773 z "},"ì":{"ha":468,"x_min":-75,"x_max":360,"o":"m 360 773 l 360 0 l 108 0 l 108 773 l 360 773 m 208 828 q 115 893 175 844 q 1 1001 56 941 q -75 1109 -54 1060 l 90 1237 q 205 1070 137 1160 q 323 935 273 980 l 208 828 z "},"ĳ":{"ha":927,"x_min":83,"x_max":840,"o":"m 360 773 l 360 0 l 108 0 l 108 773 l 360 773 m 83 997 q 104 1066 83 1034 q 160 1118 125 1099 q 235 1137 195 1137 q 307 1120 275 1137 q 356 1075 338 1104 q 373 1007 373 1045 q 353 938 373 970 q 298 886 332 905 q 223 867 263 867 q 151 883 183 867 q 101 930 119 900 q 83 997 83 960 m 397 -168 q 432 -177 406 -172 q 477 -182 459 -182 q 535 -166 514 -182 q 566 -110 557 -149 q 576 1 576 -70 l 576 773 l 828 773 l 828 56 q 793 -180 828 -92 q 692 -306 758 -268 q 531 -344 627 -344 q 456 -338 498 -344 q 397 -326 414 -332 l 397 -168 m 550 998 q 571 1067 550 1035 q 626 1118 591 1099 q 701 1137 661 1137 q 773 1121 742 1137 q 822 1075 805 1105 q 840 1008 840 1046 q 819 938 840 970 q 764 887 799 906 q 690 867 730 867 q 618 884 650 867 q 568 930 586 901 q 550 998 550 960 z "},"ī":{"ha":468,"x_min":24,"x_max":444,"o":"m 360 773 l 360 0 l 108 0 l 108 773 l 360 773 m 444 1113 l 444 951 l 24 951 l 24 1113 l 444 1113 z "},"į":{"ha":468,"x_min":9,"x_max":386,"o":"m 236 867 q 164 884 196 867 q 114 930 132 901 q 96 998 96 960 q 117 1067 96 1035 q 173 1118 138 1099 q 248 1137 208 1137 q 320 1121 288 1137 q 369 1075 351 1105 q 386 1008 386 1046 q 366 938 386 970 q 311 887 345 906 q 236 867 276 867 m 216 -134 q 239 -186 216 -169 q 303 -203 263 -203 q 377 -189 335 -203 l 377 -304 q 300 -338 342 -327 q 202 -350 258 -350 q 106 -332 151 -350 q 36 -281 62 -314 q 9 -203 9 -248 q 54 -87 9 -138 q 163 0 99 -35 l 108 0 l 108 773 l 360 773 l 360 0 l 327 0 q 245 -61 275 -29 q 216 -134 216 -94 z "},"ĩ":{"ha":468,"x_min":-81,"x_max":543,"o":"m 360 773 l 360 0 l 108 0 l 108 773 l 360 773 m -81 994 q -41 1070 -71 1034 q 32 1128 -12 1106 q 130 1150 76 1150 q 192 1142 166 1150 q 234 1124 218 1135 q 271 1096 250 1114 q 307 1070 292 1078 q 343 1061 322 1061 q 406 1083 376 1061 q 456 1133 435 1104 l 543 1041 q 503 963 532 1000 q 432 904 475 926 q 336 881 389 881 q 280 888 304 881 q 240 906 256 896 q 202 934 223 917 q 160 963 177 954 q 119 972 142 972 q 59 951 88 972 q 9 903 30 930 l -81 994 z "},"j":{"ha":459,"x_min":-71,"x_max":372,"o":"m -71 -168 q -36 -177 -62 -172 q 9 -182 -9 -182 q 67 -166 46 -182 q 98 -110 89 -149 q 108 1 108 -70 l 108 773 l 360 773 l 360 56 q 325 -180 360 -92 q 224 -306 290 -268 q 63 -344 159 -344 q -12 -338 30 -344 q -71 -326 -54 -332 l -71 -168 m 82 998 q 103 1067 82 1035 q 158 1118 123 1099 q 233 1137 193 1137 q 306 1121 274 1137 q 354 1075 337 1105 q 372 1008 372 1046 q 351 938 372 970 q 296 887 331 906 q 222 867 262 867 q 150 884 182 867 q 100 930 118 901 q 82 998 82 960 z "},"ȷ":{"ha":459,"x_min":-71,"x_max":360,"o":"m -71 -168 q -36 -177 -62 -172 q 9 -182 -9 -182 q 67 -166 46 -182 q 98 -110 89 -149 q 108 1 108 -70 l 108 773 l 360 773 l 360 56 q 325 -180 360 -92 q 224 -306 290 -268 q 63 -344 159 -344 q -12 -338 30 -344 q -71 -326 -54 -332 l -71 -168 z "},"ĵ":{"ha":459,"x_min":-71,"x_max":515,"o":"m -71 -168 q -36 -177 -62 -172 q 9 -182 -9 -182 q 67 -166 46 -182 q 98 -110 89 -149 q 108 1 108 -70 l 108 773 l 360 773 l 360 56 q 325 -180 360 -92 q 224 -306 290 -268 q 63 -344 159 -344 q -12 -338 30 -344 q -71 -326 -54 -332 l -71 -168 m 157 1175 l 309 1175 l 515 924 l 395 847 l 233 1001 l 70 847 l -50 924 l 157 1175 z "},"k":{"ha":873,"x_min":108,"x_max":886,"o":"m 431 298 l 357 219 l 359 128 l 359 0 l 108 0 l 108 1126 l 359 1126 l 359 700 l 351 488 l 582 773 l 867 773 l 593 475 l 886 0 l 607 0 l 431 298 z "},"ķ":{"ha":873,"x_min":108,"x_max":886,"o":"m 373 -331 q 389 -237 389 -304 q 377 -187 389 -212 q 353 -155 366 -163 l 353 -121 l 507 -57 q 536 -78 520 -61 q 563 -123 552 -95 q 574 -184 574 -151 q 558 -277 574 -235 q 522 -346 543 -319 q 485 -380 500 -372 l 373 -349 l 373 -331 m 431 298 l 357 219 l 359 128 l 359 0 l 108 0 l 108 1126 l 359 1126 l 359 700 l 351 488 l 582 773 l 867 773 l 593 475 l 886 0 l 607 0 l 431 298 z "},"ĸ":{"ha":869,"x_min":111,"x_max":885,"o":"m 435 270 l 363 185 l 362 110 l 362 0 l 111 0 l 111 773 l 362 773 l 362 562 l 357 463 l 587 773 l 865 773 l 597 460 l 885 0 l 600 0 l 435 270 z "},"l":{"ha":473,"x_min":111,"x_max":362,"o":"m 362 1127 l 362 0 l 111 0 l 111 1127 l 362 1127 z "},"ĺ":{"ha":473,"x_min":111,"x_max":475,"o":"m 121 1130 q 224 1241 161 1169 q 298 1348 286 1314 l 475 1260 q 403 1170 448 1218 q 313 1085 358 1122 q 239 1040 268 1049 l 121 1130 m 362 1034 l 362 0 l 111 0 l 111 1034 l 362 1034 z "},"ľ":{"ha":713,"x_min":111,"x_max":711,"o":"m 362 1127 l 362 0 l 111 0 l 111 1127 l 362 1127 m 498 720 q 511 804 507 754 q 515 913 516 854 q 504 1003 515 963 q 474 1063 493 1042 l 481 1108 l 654 1168 q 711 972 711 1118 q 696 845 711 906 q 657 739 680 785 q 610 669 634 694 l 504 696 l 498 720 z "},"ļ":{"ha":473,"x_min":111,"x_max":362,"o":"m 151 -331 q 166 -237 166 -304 q 155 -187 166 -212 q 130 -155 143 -163 l 130 -121 l 285 -57 q 314 -78 298 -61 q 341 -123 330 -95 q 352 -184 352 -151 q 336 -277 352 -235 q 299 -346 320 -319 q 262 -380 278 -372 l 151 -349 l 151 -331 m 362 1127 l 362 0 l 111 0 l 111 1127 l 362 1127 z "},"ŀ":{"ha":725,"x_min":111,"x_max":740,"o":"m 362 1127 l 362 0 l 111 0 l 111 1127 l 362 1127 m 450 578 q 470 654 450 618 q 525 711 490 690 q 602 732 560 732 q 675 714 644 732 q 723 663 706 696 q 740 590 740 631 q 720 514 740 549 q 666 457 701 478 q 590 435 631 435 q 517 454 549 435 q 468 505 486 473 q 450 578 450 538 z "},"ǉ":{"ha":932,"x_min":111,"x_max":844,"o":"m 362 1127 l 362 0 l 111 0 l 111 1127 l 362 1127 m 402 -168 q 437 -177 410 -172 q 481 -182 464 -182 q 540 -166 519 -182 q 571 -110 562 -149 q 581 1 581 -70 l 581 773 l 833 773 l 833 56 q 798 -180 833 -92 q 697 -306 762 -268 q 536 -344 631 -344 q 461 -338 503 -344 q 402 -326 419 -332 l 402 -168 m 555 998 q 575 1067 555 1035 q 631 1118 596 1099 q 706 1137 666 1137 q 778 1121 747 1137 q 827 1075 810 1105 q 844 1008 844 1046 q 824 938 844 970 q 769 887 804 906 q 694 867 734 867 q 623 884 654 867 q 573 930 591 901 q 555 998 555 960 z "},"ł":{"ha":473,"x_min":15,"x_max":480,"o":"m 480 624 l 362 581 l 362 0 l 111 0 l 111 489 l 15 454 l 15 607 l 111 644 l 111 1127 l 362 1127 l 362 739 l 480 784 l 480 624 z "},"m":{"ha":1400,"x_min":111,"x_max":1299,"o":"m 1050 785 q 1186 758 1131 786 q 1270 664 1240 730 q 1299 488 1299 598 l 1299 0 l 1047 0 l 1047 443 q 1038 532 1047 500 q 1008 576 1029 563 q 949 588 987 589 q 885 573 917 588 q 830 538 853 559 q 831 489 831 507 l 831 0 l 582 0 l 582 442 q 573 529 582 498 q 545 574 565 561 q 490 588 525 588 q 423 575 460 588 q 361 538 386 562 l 361 0 l 111 0 l 111 773 l 340 773 l 346 690 q 459 755 390 727 q 598 785 528 784 q 716 766 668 787 q 791 696 764 745 q 903 758 834 730 q 1050 785 971 786 z "},"ṁ":{"ha":1400,"x_min":111,"x_max":1299,"o":"m 1050 785 q 1186 758 1131 786 q 1270 664 1240 730 q 1299 488 1299 598 l 1299 0 l 1047 0 l 1047 443 q 1038 532 1047 500 q 1008 576 1029 563 q 949 588 987 589 q 885 573 917 588 q 830 538 853 559 q 831 489 831 507 l 831 0 l 582 0 l 582 442 q 573 529 582 498 q 545 574 565 561 q 490 588 525 588 q 423 575 460 588 q 361 538 386 562 l 361 0 l 111 0 l 111 773 l 340 773 l 346 690 q 459 755 390 727 q 598 785 528 784 q 716 766 668 787 q 791 696 764 745 q 903 758 834 730 q 1050 785 971 786 m 552 997 q 573 1066 552 1034 q 628 1118 593 1099 q 703 1137 663 1137 q 775 1120 744 1137 q 824 1075 807 1104 q 842 1007 842 1045 q 821 938 842 970 q 766 886 801 905 q 692 867 732 867 q 620 883 652 867 q 570 930 588 900 q 552 997 552 960 z "},"n":{"ha":936,"x_min":111,"x_max":834,"o":"m 340 773 l 346 690 q 462 757 392 729 q 598 785 532 785 q 731 759 679 787 q 808 663 783 730 q 834 487 834 597 l 834 0 l 583 0 l 583 442 q 574 531 583 499 q 543 576 564 563 q 485 588 522 589 q 421 574 456 588 q 361 538 386 561 l 361 0 l 111 0 l 111 773 l 340 773 z "},"ń":{"ha":936,"x_min":111,"x_max":834,"o":"m 424 946 q 542 1080 475 997 q 654 1237 608 1163 l 819 1109 q 745 1005 798 1061 q 633 901 692 948 q 541 839 574 854 l 424 946 m 340 773 l 346 690 q 462 757 392 729 q 598 785 532 785 q 731 759 679 787 q 808 663 783 730 q 834 487 834 597 l 834 0 l 583 0 l 583 442 q 574 531 583 499 q 543 576 564 563 q 485 588 522 589 q 421 574 456 588 q 361 538 386 561 l 361 0 l 111 0 l 111 773 l 340 773 z "},"ŉ":{"ha":936,"x_min":111,"x_max":834,"o":"m 376 -331 q 391 -237 391 -304 q 380 -187 391 -212 q 355 -155 368 -163 l 355 -121 l 510 -57 q 539 -78 523 -61 q 566 -123 555 -95 q 577 -184 577 -151 q 561 -277 577 -235 q 524 -346 545 -319 q 488 -380 503 -372 l 376 -349 l 376 -331 m 340 773 l 346 690 q 462 757 392 729 q 598 785 532 785 q 731 759 679 787 q 808 663 783 730 q 834 487 834 597 l 834 0 l 583 0 l 583 442 q 574 531 583 499 q 543 576 564 563 q 485 588 522 589 q 421 574 456 588 q 361 538 386 561 l 361 0 l 111 0 l 111 773 l 340 773 z "},"ň":{"ha":936,"x_min":111,"x_max":834,"o":"m 524 1025 l 686 1179 l 806 1102 l 600 852 l 449 852 l 242 1103 l 361 1179 l 524 1025 m 340 773 l 346 690 q 462 757 392 729 q 598 785 532 785 q 731 759 679 787 q 808 663 783 730 q 834 487 834 597 l 834 0 l 583 0 l 583 442 q 574 531 583 499 q 543 576 564 563 q 485 588 522 589 q 421 574 456 588 q 361 538 386 561 l 361 0 l 111 0 l 111 773 l 340 773 z "},"ņ":{"ha":936,"x_min":111,"x_max":834,"o":"m 376 -331 q 391 -237 391 -304 q 380 -187 391 -212 q 355 -155 368 -163 l 355 -121 l 510 -57 q 539 -78 523 -61 q 566 -123 555 -95 q 577 -184 577 -151 q 561 -277 577 -235 q 524 -346 545 -319 q 488 -380 503 -372 l 376 -349 l 376 -331 m 340 773 l 346 690 q 462 757 392 729 q 598 785 532 785 q 731 759 679 787 q 808 663 783 730 q 834 487 834 597 l 834 0 l 583 0 l 583 442 q 574 531 583 499 q 543 576 564 563 q 485 588 522 589 q 421 574 456 588 q 361 538 386 561 l 361 0 l 111 0 l 111 773 l 340 773 z "},"ṅ":{"ha":936,"x_min":111,"x_max":834,"o":"m 340 773 l 346 690 q 462 757 392 729 q 598 785 532 785 q 731 759 679 787 q 808 663 783 730 q 834 487 834 597 l 834 0 l 583 0 l 583 442 q 574 531 583 499 q 543 576 564 563 q 485 588 522 589 q 421 574 456 588 q 361 538 386 561 l 361 0 l 111 0 l 111 773 l 340 773 m 377 997 q 398 1066 377 1034 q 453 1118 418 1099 q 528 1137 488 1137 q 601 1120 569 1137 q 649 1075 632 1104 q 667 1007 667 1045 q 646 938 667 970 q 591 886 626 905 q 517 867 557 867 q 445 883 477 867 q 395 930 413 900 q 377 997 377 960 z "},"ŋ":{"ha":937,"x_min":111,"x_max":836,"o":"m 343 772 l 349 690 q 459 755 393 726 q 592 785 526 784 q 728 759 675 787 q 808 665 781 731 q 836 487 836 599 l 836 -12 q 767 -260 836 -176 q 576 -344 699 -344 q 422 -330 477 -344 l 422 -174 q 456 -181 433 -178 q 497 -184 479 -184 q 547 -172 530 -184 q 573 -124 565 -159 q 581 -18 581 -88 l 581 441 q 573 528 581 497 q 548 573 566 559 q 496 587 530 587 q 430 573 469 587 q 365 533 391 559 l 365 0 l 111 0 l 111 772 l 343 772 z "},"ǌ":{"ha":1395,"x_min":111,"x_max":1308,"o":"m 340 773 l 346 690 q 462 757 392 729 q 598 785 532 785 q 731 759 679 787 q 808 663 783 730 q 834 487 834 597 l 834 0 l 583 0 l 583 442 q 574 531 583 499 q 543 576 564 563 q 485 588 522 589 q 421 574 456 588 q 361 538 386 561 l 361 0 l 111 0 l 111 773 l 340 773 m 865 -168 q 900 -177 873 -172 q 945 -182 927 -182 q 1003 -166 982 -182 q 1034 -110 1025 -149 q 1044 1 1044 -70 l 1044 773 l 1296 773 l 1296 56 q 1261 -180 1296 -92 q 1160 -306 1225 -268 q 999 -344 1095 -344 q 924 -338 966 -344 q 865 -326 882 -332 l 865 -168 m 1018 998 q 1039 1067 1018 1035 q 1094 1118 1059 1099 q 1169 1137 1129 1137 q 1241 1121 1210 1137 q 1290 1075 1273 1105 q 1308 1008 1308 1046 q 1287 938 1308 970 q 1232 887 1267 906 q 1158 867 1198 867 q 1086 884 1118 867 q 1036 930 1054 901 q 1018 998 1018 960 z "},"ñ":{"ha":936,"x_min":111,"x_max":836,"o":"m 340 773 l 346 690 q 462 757 392 729 q 598 785 532 785 q 731 759 679 787 q 808 663 783 730 q 834 487 834 597 l 834 0 l 583 0 l 583 442 q 574 531 583 499 q 543 576 564 563 q 485 588 522 589 q 421 574 456 588 q 361 538 386 561 l 361 0 l 111 0 l 111 773 l 340 773 m 212 994 q 252 1070 223 1034 q 326 1128 281 1106 q 424 1150 370 1150 q 486 1142 460 1150 q 528 1124 511 1135 q 565 1096 544 1114 q 601 1070 586 1078 q 637 1061 616 1061 q 699 1083 669 1061 q 750 1133 729 1104 l 836 1041 q 797 963 825 1000 q 725 904 768 926 q 630 881 682 881 q 574 888 598 881 q 533 906 550 896 q 496 934 517 917 q 453 963 471 954 q 412 972 436 972 q 353 951 382 972 q 302 903 323 930 l 212 994 z "},"o":{"ha":902,"x_min":58,"x_max":844,"o":"m 58 393 q 109 605 58 517 q 250 739 159 693 q 458 784 340 784 q 680 730 593 784 q 805 587 766 677 q 844 382 844 496 q 793 169 844 257 q 653 35 743 80 q 444 -11 563 -11 q 222 43 309 -11 q 97 188 136 97 q 58 393 58 278 m 583 382 q 552 548 583 486 q 454 610 522 610 q 350 557 380 610 q 319 395 319 505 q 350 226 319 290 q 450 162 381 162 q 552 215 522 162 q 583 382 583 269 z "},"ó":{"ha":902,"x_min":58,"x_max":844,"o":"m 353 946 q 471 1080 404 997 q 583 1237 538 1163 l 748 1109 q 675 1005 728 1061 q 563 901 622 948 q 471 839 504 854 l 353 946 m 58 393 q 109 605 58 517 q 250 739 159 693 q 458 784 340 784 q 680 730 593 784 q 805 587 766 677 q 844 382 844 496 q 793 169 844 257 q 653 35 743 80 q 444 -11 563 -11 q 222 43 309 -11 q 97 188 136 97 q 58 393 58 278 m 583 382 q 552 548 583 486 q 454 610 522 610 q 350 557 380 610 q 319 395 319 505 q 350 226 319 290 q 450 162 381 162 q 552 215 522 162 q 583 382 583 269 z "},"ŏ":{"ha":902,"x_min":58,"x_max":844,"o":"m 58 393 q 109 605 58 517 q 250 739 159 693 q 458 784 340 784 q 680 730 593 784 q 805 587 766 677 q 844 382 844 496 q 793 169 844 257 q 653 35 743 80 q 444 -11 563 -11 q 222 43 309 -11 q 97 188 136 97 q 58 393 58 278 m 583 382 q 552 548 583 486 q 454 610 522 610 q 350 557 380 610 q 319 395 319 505 q 350 226 319 290 q 450 162 381 162 q 552 215 522 162 q 583 382 583 269 m 349 1144 q 358 1095 351 1118 q 389 1055 366 1073 q 456 1036 412 1036 q 522 1055 499 1036 q 553 1094 545 1073 q 565 1144 560 1116 l 717 1144 q 686 1003 718 1065 q 596 906 655 941 q 456 871 536 871 q 313 906 372 871 q 223 1003 254 941 q 195 1144 193 1065 l 349 1144 z "},"ǒ":{"ha":902,"x_min":58,"x_max":844,"o":"m 58 393 q 109 605 58 517 q 250 739 159 693 q 458 784 340 784 q 680 730 593 784 q 805 587 766 677 q 844 382 844 496 q 793 169 844 257 q 653 35 743 80 q 444 -11 563 -11 q 222 43 309 -11 q 97 188 136 97 q 58 393 58 278 m 583 382 q 552 548 583 486 q 454 610 522 610 q 350 557 380 610 q 319 395 319 505 q 350 226 319 290 q 450 162 381 162 q 552 215 522 162 q 583 382 583 269 m 454 1025 l 616 1179 l 736 1102 l 530 852 l 378 852 l 172 1103 l 291 1179 l 454 1025 z "},"ô":{"ha":902,"x_min":58,"x_max":844,"o":"m 381 1175 l 532 1175 l 739 924 l 618 846 l 456 1000 l 294 846 l 174 924 l 381 1175 m 58 393 q 109 605 58 517 q 250 739 159 693 q 458 784 340 784 q 680 730 593 784 q 805 587 766 677 q 844 382 844 496 q 793 169 844 257 q 653 35 743 80 q 444 -11 563 -11 q 222 43 309 -11 q 97 188 136 97 q 58 393 58 278 m 583 382 q 552 548 583 486 q 454 610 522 610 q 350 557 380 610 q 319 395 319 505 q 350 226 319 290 q 450 162 381 162 q 552 215 522 162 q 583 382 583 269 z "},"ö":{"ha":902,"x_min":58,"x_max":844,"o":"m 147 997 q 166 1066 147 1034 q 217 1116 185 1097 q 287 1135 250 1135 q 380 1100 346 1135 q 414 1007 414 1065 q 395 938 414 970 q 345 887 377 906 q 275 868 313 868 q 208 885 237 868 q 163 930 179 901 q 147 997 147 960 m 498 997 q 517 1066 498 1034 q 568 1117 536 1098 q 638 1135 600 1135 q 730 1100 696 1135 q 764 1007 764 1065 q 746 938 764 970 q 696 887 728 906 q 627 868 665 868 q 559 885 589 868 q 514 930 530 901 q 498 997 498 960 m 58 393 q 109 605 58 517 q 250 739 159 693 q 458 784 340 784 q 680 730 593 784 q 805 587 766 677 q 844 382 844 496 q 793 169 844 257 q 653 35 743 80 q 444 -11 563 -11 q 222 43 309 -11 q 97 188 136 97 q 58 393 58 278 m 583 382 q 552 548 583 486 q 454 610 522 610 q 350 557 380 610 q 319 395 319 505 q 350 226 319 290 q 450 162 381 162 q 552 215 522 162 q 583 382 583 269 z "},"ò":{"ha":902,"x_min":58,"x_max":844,"o":"m 58 393 q 109 605 58 517 q 250 739 159 693 q 458 784 340 784 q 680 730 593 784 q 805 587 766 677 q 844 382 844 496 q 793 169 844 257 q 653 35 743 80 q 444 -11 563 -11 q 222 43 309 -11 q 97 188 136 97 q 58 393 58 278 m 583 382 q 552 548 583 486 q 454 610 522 610 q 350 557 380 610 q 319 395 319 505 q 350 226 319 290 q 450 162 381 162 q 552 215 522 162 q 583 382 583 269 m 431 828 q 338 893 397 844 q 223 1001 278 941 q 147 1109 169 1060 l 313 1237 q 428 1070 359 1160 q 545 935 496 980 l 431 828 z "},"ő":{"ha":902,"x_min":58,"x_max":897,"o":"m 191 943 q 363 1202 227 992 q 394 1251 387 1241 l 540 1151 q 471 1049 518 1108 q 372 941 423 991 q 288 873 321 891 l 191 943 m 544 943 q 641 1083 570 979 q 722 1204 711 1187 l 750 1246 l 897 1147 q 826 1046 874 1105 q 724 938 777 987 q 639 873 671 889 l 544 943 m 58 393 q 109 605 58 517 q 250 739 159 693 q 458 784 340 784 q 680 730 593 784 q 805 587 766 677 q 844 382 844 496 q 793 169 844 257 q 653 35 743 80 q 444 -11 563 -11 q 222 43 309 -11 q 97 188 136 97 q 58 393 58 278 m 583 382 q 552 548 583 486 q 454 610 522 610 q 350 557 380 610 q 319 395 319 505 q 350 226 319 290 q 450 162 381 162 q 552 215 522 162 q 583 382 583 269 z "},"ō":{"ha":902,"x_min":58,"x_max":844,"o":"m 666 1113 l 666 951 l 246 951 l 246 1113 l 666 1113 m 58 393 q 109 605 58 517 q 250 739 159 693 q 458 784 340 784 q 680 730 593 784 q 805 587 766 677 q 844 382 844 496 q 793 169 844 257 q 653 35 743 80 q 444 -11 563 -11 q 222 43 309 -11 q 97 188 136 97 q 58 393 58 278 m 583 382 q 552 548 583 486 q 454 610 522 610 q 350 557 380 610 q 319 395 319 505 q 350 226 319 290 q 450 162 381 162 q 552 215 522 162 q 583 382 583 269 z "},"ø":{"ha":905,"x_min":58,"x_max":844,"o":"m 632 753 q 792 612 741 710 q 844 382 844 513 q 793 169 844 257 q 653 35 743 80 q 444 -11 563 -11 q 357 -4 396 -11 l 302 -159 l 213 -142 l 271 19 q 110 162 161 62 q 58 394 58 261 q 109 606 58 517 q 250 739 159 694 q 458 784 340 784 q 544 778 505 784 l 602 939 l 692 920 l 632 753 m 311 395 q 346 227 311 288 l 482 606 q 454 610 467 610 q 345 556 379 610 q 311 395 311 503 m 450 162 q 557 216 523 162 q 591 382 591 271 q 557 547 591 486 l 419 165 q 450 162 435 162 z "},"ǿ":{"ha":905,"x_min":58,"x_max":844,"o":"m 632 753 q 792 612 741 710 q 844 382 844 513 q 793 169 844 257 q 653 35 743 80 q 444 -11 563 -11 q 357 -4 396 -11 l 302 -159 l 213 -142 l 271 19 q 110 162 161 62 q 58 394 58 261 q 109 606 58 517 q 250 739 159 694 q 458 784 340 784 q 544 778 505 784 l 602 939 l 692 920 l 632 753 m 311 395 q 346 227 311 288 l 482 606 q 454 610 467 610 q 345 556 379 610 q 311 395 311 503 m 450 162 q 557 216 523 162 q 591 382 591 271 q 557 547 591 486 l 419 165 q 450 162 435 162 m 255 947 q 373 1081 306 998 q 485 1238 439 1164 l 650 1109 q 576 1005 629 1062 q 465 902 524 949 q 372 840 406 855 l 255 947 z "},"õ":{"ha":902,"x_min":58,"x_max":844,"o":"m 58 393 q 109 605 58 517 q 250 739 159 693 q 458 784 340 784 q 680 730 593 784 q 805 587 766 677 q 844 382 844 496 q 793 169 844 257 q 653 35 743 80 q 444 -11 563 -11 q 222 43 309 -11 q 97 188 136 97 q 58 393 58 278 m 583 382 q 552 548 583 486 q 454 610 522 610 q 350 557 380 610 q 319 395 319 505 q 350 226 319 290 q 450 162 381 162 q 552 215 522 162 q 583 382 583 269 m 141 994 q 181 1070 152 1034 q 254 1128 210 1106 q 353 1150 298 1150 q 414 1142 389 1150 q 456 1124 440 1135 q 494 1096 473 1114 q 530 1070 515 1078 q 566 1061 545 1061 q 628 1083 598 1061 q 679 1133 658 1104 l 765 1041 q 726 963 754 1000 q 654 904 697 926 q 559 881 611 881 q 503 888 527 881 q 462 906 479 896 q 425 934 446 917 q 382 963 399 954 q 341 972 365 972 q 281 951 311 972 q 231 903 252 930 l 141 994 z "},"œ":{"ha":1352,"x_min":58,"x_max":1295,"o":"m 1295 470 q 1287 330 1295 391 l 836 330 q 892 208 844 245 q 1029 170 940 170 q 1144 181 1083 170 q 1234 209 1206 193 l 1272 73 q 1148 14 1230 39 q 970 -11 1066 -11 q 823 11 888 -11 q 710 74 758 33 q 592 11 660 32 q 444 -11 524 -11 q 222 43 309 -11 q 97 186 136 96 q 58 391 58 277 q 109 605 58 517 q 249 739 159 693 q 458 784 339 784 q 719 699 625 784 q 831 762 767 740 q 972 784 895 784 q 1204 713 1114 784 q 1295 470 1295 642 m 1064 453 q 1065 482 1065 463 q 1041 587 1065 553 q 967 622 1018 622 q 880 584 911 622 q 839 453 848 545 l 1064 453 m 449 162 q 527 186 498 162 q 568 258 555 210 q 580 382 580 306 q 452 610 580 610 q 351 557 380 610 q 321 395 321 505 q 351 225 321 289 q 449 162 380 162 z "},"p":{"ha":939,"x_min":108,"x_max":881,"o":"m 572 784 q 728 743 658 784 q 839 619 798 702 q 881 415 881 536 q 831 190 881 286 q 692 41 782 93 q 485 -11 603 -11 q 357 8 412 -11 l 359 -94 l 359 -343 l 108 -343 l 108 773 l 345 773 l 345 698 q 572 784 433 784 m 616 403 q 583 552 616 507 q 487 597 550 597 q 416 586 452 597 q 359 557 380 574 l 359 186 q 466 159 388 159 q 545 187 511 159 q 597 271 578 216 q 616 403 616 326 z "},"ṗ":{"ha":939,"x_min":108,"x_max":881,"o":"m 572 784 q 728 743 658 784 q 839 619 798 702 q 881 415 881 536 q 831 190 881 286 q 692 41 782 93 q 485 -11 603 -11 q 357 8 412 -11 l 359 -94 l 359 -343 l 108 -343 l 108 773 l 345 773 l 345 698 q 572 784 433 784 m 616 403 q 583 552 616 507 q 487 597 550 597 q 416 586 452 597 q 359 557 380 574 l 359 186 q 466 159 388 159 q 545 187 511 159 q 597 271 578 216 q 616 403 616 326 m 413 997 q 434 1066 413 1034 q 489 1118 454 1099 q 564 1137 524 1137 q 636 1120 605 1137 q 685 1075 668 1104 q 703 1007 703 1045 q 682 938 703 970 q 627 886 662 905 q 553 867 593 867 q 481 883 513 867 q 431 930 449 900 q 413 997 413 960 z "},"þ":{"ha":937,"x_min":108,"x_max":879,"o":"m 572 784 q 727 743 657 784 q 838 619 796 702 q 879 415 879 536 q 828 188 879 286 q 685 38 778 91 q 469 -14 593 -14 q 359 -9 416 -14 l 361 -115 l 361 -344 l 108 -344 l 108 1126 l 359 1126 l 359 848 l 354 706 q 572 784 439 784 m 616 403 q 583 553 616 509 q 486 597 549 597 q 415 585 450 597 q 359 557 380 572 l 359 178 q 465 155 380 155 q 543 184 509 155 q 597 269 578 213 q 616 403 616 326 z "},"q":{"ha":937,"x_min":58,"x_max":829,"o":"m 829 773 l 829 -343 l 578 -343 l 578 -94 l 583 65 q 366 -11 496 -11 q 211 31 281 -11 q 99 156 140 72 q 58 360 58 239 q 107 585 58 489 q 245 732 156 681 q 453 784 335 784 q 558 774 507 784 q 648 749 610 764 l 829 773 m 322 370 q 355 222 322 267 q 452 177 389 177 q 522 188 486 177 q 578 213 557 198 l 578 589 q 473 610 549 610 q 394 583 428 610 q 341 502 360 556 q 322 370 322 448 z "},"r":{"ha":655,"x_min":104,"x_max":614,"o":"m 557 785 q 614 776 600 785 l 614 528 q 531 547 582 547 q 355 473 422 547 l 355 0 l 104 0 l 104 773 l 324 773 l 335 649 q 384 720 351 688 q 461 768 416 751 q 557 785 507 785 z "},"ŕ":{"ha":655,"x_min":104,"x_max":664,"o":"m 269 947 q 387 1081 320 998 q 499 1238 454 1164 l 664 1109 q 591 1005 644 1062 q 479 902 538 949 q 387 840 420 855 l 269 947 m 557 785 q 614 776 600 785 l 614 528 q 531 547 582 547 q 355 473 422 547 l 355 0 l 104 0 l 104 773 l 324 773 l 335 649 q 384 720 351 688 q 461 768 416 751 q 557 785 507 785 z "},"ř":{"ha":655,"x_min":87,"x_max":652,"o":"m 370 1026 l 532 1180 l 652 1103 l 446 852 l 294 852 l 87 1103 l 207 1180 l 370 1026 m 557 785 q 614 776 600 785 l 614 528 q 531 547 582 547 q 355 473 422 547 l 355 0 l 104 0 l 104 773 l 324 773 l 335 649 q 384 720 351 688 q 461 768 416 751 q 557 785 507 785 z "},"ŗ":{"ha":655,"x_min":104,"x_max":614,"o":"m 146 -331 q 162 -237 162 -304 q 151 -187 162 -212 q 126 -155 139 -163 l 126 -121 l 281 -57 q 310 -78 294 -61 q 337 -123 326 -95 q 348 -184 348 -151 q 332 -277 348 -235 q 295 -346 316 -319 q 258 -380 274 -372 l 146 -349 l 146 -331 m 557 785 q 614 776 600 785 l 614 528 q 531 547 582 547 q 355 473 422 547 l 355 0 l 104 0 l 104 773 l 324 773 l 335 649 q 384 720 351 688 q 461 768 416 751 q 557 785 507 785 z "},"s":{"ha":735,"x_min":70,"x_max":686,"o":"m 97 225 q 148 197 111 214 q 233 169 184 181 q 330 157 282 157 q 412 170 387 157 q 437 213 437 184 q 418 250 437 233 q 365 280 399 266 q 270 315 330 295 q 117 409 165 349 q 71 559 70 468 q 113 682 71 631 q 228 759 155 733 q 392 784 301 784 q 543 769 477 784 q 641 736 608 755 l 618 560 q 573 587 604 573 q 505 610 543 601 q 432 619 467 619 q 341 606 368 619 q 313 566 314 593 q 328 531 313 546 q 375 502 342 516 q 472 467 408 487 q 634 377 582 432 q 686 235 686 323 q 646 100 686 155 q 532 17 606 45 q 359 -12 458 -12 q 241 -2 299 -12 q 140 23 184 8 q 73 52 96 37 l 97 225 z "},"ś":{"ha":735,"x_min":70,"x_max":686,"o":"m 272 946 q 390 1080 323 997 q 502 1237 456 1163 l 667 1109 q 593 1005 646 1061 q 481 901 541 948 q 389 839 422 854 l 272 946 m 97 225 q 148 197 111 214 q 233 169 184 181 q 330 157 282 157 q 412 170 387 157 q 437 213 437 184 q 418 250 437 233 q 365 280 399 266 q 270 315 330 295 q 117 409 165 349 q 71 559 70 468 q 113 682 71 631 q 228 759 155 733 q 392 784 301 784 q 543 769 477 784 q 641 736 608 755 l 618 560 q 573 587 604 573 q 505 610 543 601 q 432 619 467 619 q 341 606 368 619 q 313 566 314 593 q 328 531 313 546 q 375 502 342 516 q 472 467 408 487 q 634 377 582 432 q 686 235 686 323 q 646 100 686 155 q 532 17 606 45 q 359 -12 458 -12 q 241 -2 299 -12 q 140 23 184 8 q 73 52 96 37 l 97 225 z "},"š":{"ha":735,"x_min":70,"x_max":686,"o":"m 372 1025 l 534 1179 l 654 1102 l 448 852 l 297 852 l 90 1103 l 210 1179 l 372 1025 m 97 225 q 148 197 111 214 q 233 169 184 181 q 330 157 282 157 q 412 170 387 157 q 437 213 437 184 q 418 250 437 233 q 365 280 399 266 q 270 315 330 295 q 117 409 165 349 q 71 559 70 468 q 113 682 71 631 q 228 759 155 733 q 392 784 301 784 q 543 769 477 784 q 641 736 608 755 l 618 560 q 573 587 604 573 q 505 610 543 601 q 432 619 467 619 q 341 606 368 619 q 313 566 314 593 q 328 531 313 546 q 375 502 342 516 q 472 467 408 487 q 634 377 582 432 q 686 235 686 323 q 646 100 686 155 q 532 17 606 45 q 359 -12 458 -12 q 241 -2 299 -12 q 140 23 184 8 q 73 52 96 37 l 97 225 z "},"ş":{"ha":735,"x_min":70,"x_max":686,"o":"m 686 235 q 623 74 686 135 q 448 -5 560 12 q 468 -67 461 -30 q 475 -141 475 -104 q 425 -271 475 -227 q 295 -315 374 -315 q 220 -309 262 -315 q 165 -296 178 -303 l 181 -173 q 231 -182 196 -182 q 288 -156 266 -182 q 311 -81 310 -130 q 300 -9 311 -37 q 166 15 229 -3 q 73 52 103 33 l 97 225 q 148 197 111 214 q 233 169 184 181 q 330 157 282 157 q 412 170 387 157 q 437 213 437 184 q 418 250 437 233 q 365 280 399 266 q 270 315 330 295 q 117 409 165 349 q 71 559 70 468 q 113 682 71 631 q 228 759 155 733 q 392 784 301 784 q 543 769 477 784 q 641 736 608 755 l 618 560 q 573 587 604 573 q 505 610 543 601 q 432 619 467 619 q 341 606 368 619 q 313 566 314 593 q 328 531 313 546 q 375 502 342 516 q 472 467 408 487 q 634 377 582 432 q 686 235 686 323 z "},"ŝ":{"ha":735,"x_min":70,"x_max":686,"o":"m 300 1175 l 452 1175 l 658 924 l 538 846 l 376 1000 l 213 846 l 94 924 l 300 1175 m 97 225 q 148 197 111 214 q 233 169 184 181 q 330 157 282 157 q 412 170 387 157 q 437 213 437 184 q 418 250 437 233 q 365 280 399 266 q 270 315 330 295 q 117 409 165 349 q 71 559 70 468 q 113 682 71 631 q 228 759 155 733 q 392 784 301 784 q 543 769 477 784 q 641 736 608 755 l 618 560 q 573 587 604 573 q 505 610 543 601 q 432 619 467 619 q 341 606 368 619 q 313 566 314 593 q 328 531 313 546 q 375 502 342 516 q 472 467 408 487 q 634 377 582 432 q 686 235 686 323 q 646 100 686 155 q 532 17 606 45 q 359 -12 458 -12 q 241 -2 299 -12 q 140 23 184 8 q 73 52 96 37 l 97 225 z "},"ș":{"ha":735,"x_min":70,"x_max":686,"o":"m 275 -331 q 290 -237 290 -304 q 279 -187 290 -212 q 254 -155 267 -163 l 254 -121 l 409 -57 q 438 -78 422 -61 q 465 -123 454 -95 q 476 -184 476 -151 q 460 -277 476 -235 q 423 -346 444 -319 q 387 -380 402 -372 l 275 -349 l 275 -331 m 97 225 q 148 197 111 214 q 233 169 184 181 q 330 157 282 157 q 412 170 387 157 q 437 213 437 184 q 418 250 437 233 q 365 280 399 266 q 270 315 330 295 q 117 409 165 349 q 71 559 70 468 q 113 682 71 631 q 228 759 155 733 q 392 784 301 784 q 543 769 477 784 q 641 736 608 755 l 618 560 q 573 587 604 573 q 505 610 543 601 q 432 619 467 619 q 341 606 368 619 q 313 566 314 593 q 328 531 313 546 q 375 502 342 516 q 472 467 408 487 q 634 377 582 432 q 686 235 686 323 q 646 100 686 155 q 532 17 606 45 q 359 -12 458 -12 q 241 -2 299 -12 q 140 23 184 8 q 73 52 96 37 l 97 225 z "},"ṡ":{"ha":735,"x_min":70,"x_max":686,"o":"m 97 225 q 148 197 111 214 q 233 169 184 181 q 330 157 282 157 q 412 170 387 157 q 437 213 437 184 q 418 250 437 233 q 365 280 399 266 q 270 315 330 295 q 117 409 165 349 q 71 559 70 468 q 113 682 71 631 q 228 759 155 733 q 392 784 301 784 q 543 769 477 784 q 641 736 608 755 l 618 560 q 573 587 604 573 q 505 610 543 601 q 432 619 467 619 q 341 606 368 619 q 313 566 314 593 q 328 531 313 546 q 375 502 342 516 q 472 467 408 487 q 634 377 582 432 q 686 235 686 323 q 646 100 686 155 q 532 17 606 45 q 359 -12 458 -12 q 241 -2 299 -12 q 140 23 184 8 q 73 52 96 37 l 97 225 m 225 997 q 246 1066 225 1034 q 301 1118 267 1099 q 376 1137 336 1137 q 449 1120 417 1137 q 497 1075 480 1104 q 515 1007 515 1045 q 494 938 515 970 q 439 886 474 905 q 365 867 405 867 q 293 883 325 867 q 243 930 261 900 q 225 997 225 960 z "},"ß":{"ha":958,"x_min":28,"x_max":930,"o":"m 715 611 q 731 569 715 589 q 785 516 748 549 q 859 444 830 476 q 909 362 888 411 q 930 251 930 313 q 846 48 930 107 q 629 -11 761 -11 q 530 -3 578 -11 q 467 14 483 4 l 467 181 q 509 164 480 173 q 565 156 537 156 q 638 177 607 156 q 669 246 669 197 q 659 298 669 274 q 632 341 648 321 q 589 388 616 360 q 540 444 559 420 q 508 499 521 467 q 494 570 494 531 q 504 624 494 600 q 526 665 513 648 q 562 704 540 682 q 595 742 583 726 q 616 779 608 758 q 625 826 625 800 q 600 889 625 865 q 528 913 574 913 q 413 851 452 913 q 373 646 373 790 l 373 0 l 119 0 l 119 608 l 28 608 l 28 760 l 131 780 q 280 1000 164 928 q 562 1071 395 1071 q 729 1044 659 1071 q 836 969 800 1017 q 873 862 873 922 q 859 785 873 817 q 825 733 844 753 q 774 690 805 713 q 729 650 743 666 q 715 611 715 634 z "},"t":{"ha":628,"x_min":39,"x_max":612,"o":"m 128 608 l 39 608 l 39 741 q 128 774 98 759 q 172 819 158 789 q 207 902 181 837 l 227 949 l 379 949 l 379 773 l 580 773 l 580 608 l 379 608 l 379 333 q 387 229 379 261 q 413 186 395 196 q 469 177 431 177 q 530 186 495 177 q 582 208 564 195 l 612 68 q 552 31 592 50 q 460 1 512 13 q 354 -11 408 -11 q 222 17 272 -11 q 150 99 172 44 q 128 241 128 155 l 128 608 z "},"ŧ":{"ha":628,"x_min":39,"x_max":612,"o":"m 612 68 q 552 31 592 50 q 460 1 512 13 q 354 -11 408 -11 q 222 17 272 -11 q 150 99 172 44 q 128 241 128 155 l 128 334 l 40 334 l 40 500 l 128 500 l 128 608 l 39 608 l 39 741 q 128 774 98 759 q 172 819 158 789 q 207 902 181 837 l 227 949 l 379 949 l 379 773 l 580 773 l 580 608 l 379 608 l 379 500 l 581 500 l 581 334 l 379 334 l 379 333 q 387 229 379 261 q 413 186 395 196 q 469 177 431 177 q 530 186 495 177 q 582 208 564 195 l 612 68 z "},"ť":{"ha":720,"x_min":39,"x_max":747,"o":"m 128 608 l 39 608 l 39 741 q 128 774 98 759 q 172 819 158 789 q 207 902 181 837 l 227 949 l 379 949 l 379 773 l 580 773 l 580 608 l 379 608 l 379 333 q 387 229 379 261 q 413 186 395 196 q 469 177 431 177 q 530 186 495 177 q 582 208 564 195 l 612 68 q 552 31 592 50 q 460 1 512 13 q 354 -11 408 -11 q 222 17 272 -11 q 150 99 172 44 q 128 241 128 155 l 128 608 m 534 863 q 547 946 543 897 q 551 1056 552 996 q 540 1145 551 1105 q 510 1205 529 1185 l 517 1251 l 690 1311 q 747 1115 747 1261 q 732 988 747 1048 q 693 882 716 927 q 646 811 670 836 l 540 839 l 534 863 z "},"ţ":{"ha":628,"x_min":39,"x_max":612,"o":"m 612 68 q 521 19 584 42 q 387 -9 458 -5 q 405 -71 399 -35 q 411 -141 411 -106 q 361 -271 411 -227 q 231 -315 311 -315 q 156 -309 198 -315 q 102 -296 115 -303 l 117 -173 q 168 -182 132 -182 q 224 -156 202 -182 q 247 -81 246 -130 q 242 -25 248 -47 q 225 15 236 -3 q 151 98 174 42 q 128 241 128 153 l 128 608 l 39 608 l 39 741 q 128 774 98 759 q 172 819 158 789 q 207 902 181 837 l 227 949 l 379 949 l 379 773 l 580 773 l 580 608 l 379 608 l 379 333 q 387 229 379 261 q 413 186 395 196 q 469 177 431 177 q 530 186 495 177 q 582 208 564 195 l 612 68 z "},"ț":{"ha":628,"x_min":39,"x_max":612,"o":"m 216 -331 q 232 -237 232 -304 q 220 -187 232 -212 q 196 -155 209 -163 l 196 -121 l 351 -57 q 379 -78 363 -61 q 407 -123 395 -95 q 418 -184 418 -151 q 402 -277 418 -235 q 365 -346 386 -319 q 328 -380 344 -372 l 216 -349 l 216 -331 m 128 608 l 39 608 l 39 741 q 128 774 98 759 q 172 819 158 789 q 207 902 181 837 l 227 949 l 379 949 l 379 773 l 580 773 l 580 608 l 379 608 l 379 333 q 387 229 379 261 q 413 186 395 196 q 469 177 431 177 q 530 186 495 177 q 582 208 564 195 l 612 68 q 552 31 592 50 q 460 1 512 13 q 354 -11 408 -11 q 222 17 272 -11 q 150 99 172 44 q 128 241 128 155 l 128 608 z "},"ṫ":{"ha":628,"x_min":39,"x_max":612,"o":"m 128 608 l 39 608 l 39 741 q 128 774 98 759 q 172 819 158 789 q 207 902 181 837 l 227 949 l 379 949 l 379 773 l 580 773 l 580 608 l 379 608 l 379 333 q 387 229 379 261 q 413 186 395 196 q 469 177 431 177 q 530 186 495 177 q 582 208 564 195 l 612 68 q 552 31 592 50 q 460 1 512 13 q 354 -11 408 -11 q 222 17 272 -11 q 150 99 172 44 q 128 241 128 155 l 128 608 m 151 1112 q 171 1182 151 1149 q 227 1233 192 1214 q 302 1252 262 1252 q 374 1236 342 1252 q 423 1190 406 1219 q 440 1122 440 1160 q 420 1053 440 1085 q 365 1001 399 1021 q 290 982 330 982 q 218 999 250 982 q 169 1045 186 1015 q 151 1112 151 1075 z "},"u":{"ha":924,"x_min":98,"x_max":814,"o":"m 814 773 l 814 -11 l 632 -11 q 596 -3 606 -11 q 585 28 585 5 l 585 61 q 480 9 545 30 q 360 -11 415 -11 q 195 30 252 -11 q 118 141 138 71 q 98 319 98 212 l 98 773 l 350 773 l 350 313 q 361 224 350 256 q 394 181 372 193 q 452 170 416 170 q 516 181 485 170 q 562 205 547 192 l 562 773 l 814 773 z "},"ú":{"ha":924,"x_min":98,"x_max":814,"o":"m 363 946 q 480 1080 414 997 q 593 1237 547 1163 l 758 1109 q 684 1005 737 1061 q 572 901 631 948 q 480 839 513 854 l 363 946 m 814 773 l 814 -11 l 632 -11 q 596 -3 606 -11 q 585 28 585 5 l 585 61 q 480 9 545 30 q 360 -11 415 -11 q 195 30 252 -11 q 118 141 138 71 q 98 319 98 212 l 98 773 l 350 773 l 350 313 q 361 224 350 256 q 394 181 372 193 q 452 170 416 170 q 516 181 485 170 q 562 205 547 192 l 562 773 l 814 773 z "},"ŭ":{"ha":924,"x_min":98,"x_max":814,"o":"m 814 773 l 814 -11 l 632 -11 q 596 -3 606 -11 q 585 28 585 5 l 585 61 q 480 9 545 30 q 360 -11 415 -11 q 195 30 252 -11 q 118 141 138 71 q 98 319 98 212 l 98 773 l 350 773 l 350 313 q 361 224 350 256 q 394 181 372 193 q 452 170 416 170 q 516 181 485 170 q 562 205 547 192 l 562 773 l 814 773 m 359 1144 q 369 1095 361 1118 q 399 1055 376 1073 q 467 1036 422 1036 q 532 1055 509 1036 q 563 1094 555 1073 q 575 1144 570 1116 l 727 1144 q 696 1003 728 1065 q 606 906 665 941 q 467 871 547 871 q 323 906 382 871 q 234 1003 264 941 q 205 1144 203 1065 l 359 1144 z "},"ǔ":{"ha":924,"x_min":98,"x_max":814,"o":"m 814 773 l 814 -11 l 632 -11 q 596 -3 606 -11 q 585 28 585 5 l 585 61 q 480 9 545 30 q 360 -11 415 -11 q 195 30 252 -11 q 118 141 138 71 q 98 319 98 212 l 98 773 l 350 773 l 350 313 q 361 224 350 256 q 394 181 372 193 q 452 170 416 170 q 516 181 485 170 q 562 205 547 192 l 562 773 l 814 773 m 464 1025 l 626 1179 l 746 1102 l 540 852 l 389 852 l 182 1103 l 301 1179 l 464 1025 z "},"û":{"ha":924,"x_min":98,"x_max":814,"o":"m 391 1175 l 543 1175 l 749 924 l 629 846 l 467 1000 l 304 846 l 184 924 l 391 1175 m 814 773 l 814 -11 l 632 -11 q 596 -3 606 -11 q 585 28 585 5 l 585 61 q 480 9 545 30 q 360 -11 415 -11 q 195 30 252 -11 q 118 141 138 71 q 98 319 98 212 l 98 773 l 350 773 l 350 313 q 361 224 350 256 q 394 181 372 193 q 452 170 416 170 q 516 181 485 170 q 562 205 547 192 l 562 773 l 814 773 z "},"ü":{"ha":924,"x_min":98,"x_max":814,"o":"m 157 997 q 176 1066 157 1034 q 227 1116 195 1097 q 296 1135 259 1135 q 389 1100 355 1135 q 423 1007 423 1065 q 405 938 423 970 q 355 887 387 906 q 285 868 323 868 q 218 885 247 868 q 173 930 189 901 q 157 997 157 960 m 508 997 q 527 1066 508 1034 q 577 1117 545 1098 q 648 1135 610 1135 q 740 1100 706 1135 q 774 1007 774 1065 q 755 938 774 970 q 706 887 737 906 q 636 868 674 868 q 569 885 598 868 q 524 930 540 901 q 508 997 508 960 m 814 773 l 814 -11 l 632 -11 q 596 -3 606 -11 q 585 28 585 5 l 585 61 q 480 9 545 30 q 360 -11 415 -11 q 195 30 252 -11 q 118 141 138 71 q 98 319 98 212 l 98 773 l 350 773 l 350 313 q 361 224 350 256 q 394 181 372 193 q 452 170 416 170 q 516 181 485 170 q 562 205 547 192 l 562 773 l 814 773 z "},"ù":{"ha":924,"x_min":98,"x_max":814,"o":"m 814 773 l 814 -11 l 632 -11 q 596 -3 606 -11 q 585 28 585 5 l 585 61 q 480 9 545 30 q 360 -11 415 -11 q 195 30 252 -11 q 118 141 138 71 q 98 319 98 212 l 98 773 l 350 773 l 350 313 q 361 224 350 256 q 394 181 372 193 q 452 170 416 170 q 516 181 485 170 q 562 205 547 192 l 562 773 l 814 773 m 441 828 q 348 893 408 844 q 234 1001 288 941 q 157 1109 179 1060 l 323 1237 q 438 1070 370 1160 q 555 935 506 980 l 441 828 z "},"ű":{"ha":924,"x_min":98,"x_max":907,"o":"m 814 773 l 814 -11 l 632 -11 q 596 -3 606 -11 q 585 28 585 5 l 585 61 q 480 9 545 30 q 360 -11 415 -11 q 195 30 252 -11 q 118 141 138 71 q 98 319 98 212 l 98 773 l 350 773 l 350 313 q 361 224 350 256 q 394 181 372 193 q 452 170 416 170 q 516 181 485 170 q 562 205 547 192 l 562 773 l 814 773 m 201 943 q 373 1202 237 992 q 404 1251 397 1241 l 550 1151 q 481 1049 528 1108 q 382 941 433 991 q 298 873 331 891 l 201 943 m 554 943 q 651 1083 581 979 q 732 1204 721 1187 l 760 1246 l 907 1147 q 836 1046 884 1105 q 734 938 787 987 q 649 873 682 889 l 554 943 z "},"ū":{"ha":924,"x_min":98,"x_max":814,"o":"m 814 773 l 814 -11 l 632 -11 q 596 -3 606 -11 q 585 28 585 5 l 585 61 q 480 9 545 30 q 360 -11 415 -11 q 195 30 252 -11 q 118 141 138 71 q 98 319 98 212 l 98 773 l 350 773 l 350 313 q 361 224 350 256 q 394 181 372 193 q 452 170 416 170 q 516 181 485 170 q 562 205 547 192 l 562 773 l 814 773 m 676 1113 l 676 951 l 256 951 l 256 1113 l 676 1113 z "},"ų":{"ha":924,"x_min":98,"x_max":829,"o":"m 755 -203 q 829 -189 787 -203 l 829 -304 q 752 -339 793 -328 q 654 -350 710 -350 q 560 -332 604 -350 q 490 -281 516 -314 q 464 -203 464 -248 q 505 -92 464 -141 q 608 -9 545 -43 q 591 3 596 -5 q 585 28 585 12 l 585 61 q 480 9 545 30 q 360 -11 415 -11 q 195 30 252 -11 q 118 141 138 71 q 98 319 98 212 l 98 773 l 350 773 l 350 313 q 361 224 350 256 q 394 181 372 193 q 452 170 416 170 q 516 181 485 170 q 562 205 547 192 l 562 773 l 814 773 l 814 -11 l 776 -11 q 699 -68 727 -38 q 671 -136 671 -99 q 755 -203 671 -203 z "},"ů":{"ha":924,"x_min":98,"x_max":814,"o":"m 219 1087 q 255 1204 219 1158 q 348 1271 291 1251 q 469 1292 404 1292 q 648 1239 583 1292 q 712 1088 712 1186 q 678 970 712 1018 q 587 901 644 923 q 463 878 530 878 q 332 904 387 878 q 248 976 277 929 q 219 1087 219 1023 m 574 1084 q 543 1156 574 1130 q 463 1181 511 1181 q 387 1159 416 1181 q 358 1089 358 1137 q 388 1020 358 1046 q 465 993 418 993 q 546 1013 517 992 q 574 1084 574 1034 m 814 773 l 814 -11 l 632 -11 q 596 -3 606 -11 q 585 28 585 5 l 585 61 q 480 9 545 30 q 360 -11 415 -11 q 195 30 252 -11 q 118 141 138 71 q 98 319 98 212 l 98 773 l 350 773 l 350 313 q 361 224 350 256 q 394 181 372 193 q 452 170 416 170 q 516 181 485 170 q 562 205 547 192 l 562 773 l 814 773 z "},"ũ":{"ha":924,"x_min":98,"x_max":814,"o":"m 814 773 l 814 -11 l 632 -11 q 596 -3 606 -11 q 585 28 585 5 l 585 61 q 480 9 545 30 q 360 -11 415 -11 q 195 30 252 -11 q 118 141 138 71 q 98 319 98 212 l 98 773 l 350 773 l 350 313 q 361 224 350 256 q 394 181 372 193 q 452 170 416 170 q 516 181 485 170 q 562 205 547 192 l 562 773 l 814 773 m 151 994 q 191 1070 162 1034 q 264 1128 220 1106 q 363 1150 309 1150 q 425 1142 399 1150 q 467 1124 450 1135 q 504 1096 483 1114 q 540 1070 525 1078 q 576 1061 555 1061 q 638 1083 608 1061 q 689 1133 668 1104 l 775 1041 q 736 963 764 1000 q 664 904 707 926 q 569 881 621 881 q 513 888 537 881 q 472 906 489 896 q 435 934 456 917 q 392 963 410 954 q 351 972 375 972 q 292 951 321 972 q 241 903 262 930 l 151 994 z "},"v":{"ha":816,"x_min":-3,"x_max":819,"o":"m 819 773 l 530 -11 l 290 -11 l -3 773 l 266 773 l 366 436 l 415 239 l 460 436 l 556 773 l 819 773 z "},"w":{"ha":1209,"x_min":-1,"x_max":1211,"o":"m 1211 773 l 967 -11 l 747 -11 l 634 370 l 605 515 l 575 370 l 467 -11 l 239 -11 l -1 773 l 243 773 l 323 460 l 364 258 l 411 460 l 503 773 l 728 773 l 819 460 l 863 258 l 904 461 l 977 773 l 1211 773 z "},"ẃ":{"ha":1209,"x_min":-1,"x_max":1211,"o":"m 511 947 q 628 1081 562 998 q 741 1238 695 1164 l 905 1109 q 832 1005 885 1062 q 720 902 779 949 q 628 840 661 855 l 511 947 m 1211 773 l 967 -11 l 747 -11 l 634 370 l 605 515 l 575 370 l 467 -11 l 239 -11 l -1 773 l 243 773 l 323 460 l 364 258 l 411 460 l 503 773 l 728 773 l 819 460 l 863 258 l 904 461 l 977 773 l 1211 773 z "},"ŵ":{"ha":1209,"x_min":-1,"x_max":1211,"o":"m 538 1175 l 690 1175 l 896 924 l 776 847 l 614 1001 l 451 847 l 332 924 l 538 1175 m 1211 773 l 967 -11 l 747 -11 l 634 370 l 605 515 l 575 370 l 467 -11 l 239 -11 l -1 773 l 243 773 l 323 460 l 364 258 l 411 460 l 503 773 l 728 773 l 819 460 l 863 258 l 904 461 l 977 773 l 1211 773 z "},"ẅ":{"ha":1209,"x_min":-1,"x_max":1211,"o":"m 304 998 q 323 1066 304 1035 q 375 1117 342 1098 q 444 1136 407 1136 q 537 1101 503 1136 q 571 1008 571 1065 q 553 939 571 970 q 503 888 534 907 q 433 869 471 869 q 366 885 395 869 q 320 931 336 902 q 304 998 304 960 m 656 998 q 674 1067 656 1035 q 725 1117 693 1099 q 795 1136 758 1136 q 888 1101 854 1136 q 922 1008 922 1065 q 903 939 922 970 q 853 888 885 907 q 784 869 822 869 q 717 885 746 869 q 672 931 688 902 q 656 998 656 960 m 1211 773 l 967 -11 l 747 -11 l 634 370 l 605 515 l 575 370 l 467 -11 l 239 -11 l -1 773 l 243 773 l 323 460 l 364 258 l 411 460 l 503 773 l 728 773 l 819 460 l 863 258 l 904 461 l 977 773 l 1211 773 z "},"ẁ":{"ha":1209,"x_min":-1,"x_max":1211,"o":"m 1211 773 l 967 -11 l 747 -11 l 634 370 l 605 515 l 575 370 l 467 -11 l 239 -11 l -1 773 l 243 773 l 323 460 l 364 258 l 411 460 l 503 773 l 728 773 l 819 460 l 863 258 l 904 461 l 977 773 l 1211 773 m 588 829 q 495 893 555 845 q 381 1001 435 942 q 304 1109 326 1061 l 470 1238 q 585 1070 517 1160 q 703 936 653 981 l 588 829 z "},"x":{"ha":840,"x_min":4,"x_max":842,"o":"m 842 0 l 555 0 l 437 189 l 416 223 l 399 189 l 292 0 l 4 0 l 276 390 l 5 773 l 290 773 l 397 606 l 428 555 l 454 606 l 556 773 l 836 773 l 562 395 l 842 0 z "},"y":{"ha":819,"x_min":-3,"x_max":821,"o":"m 821 773 l 577 -18 q 474 -220 537 -149 q 330 -322 411 -292 q 267 -338 306 -332 q 197 -344 229 -344 q 133 -339 179 -344 q 82 -330 87 -334 l 82 -138 q 123 -147 95 -142 q 166 -152 151 -152 q 246 -142 211 -152 q 313 -99 281 -133 q 360 0 344 -66 l 264 0 l -3 773 l 262 773 l 374 366 l 425 154 l 471 366 l 557 773 l 821 773 z "},"ý":{"ha":819,"x_min":-3,"x_max":821,"o":"m 821 773 l 577 -18 q 474 -220 537 -149 q 330 -322 411 -292 q 267 -338 306 -332 q 197 -344 229 -344 q 133 -339 179 -344 q 82 -330 87 -334 l 82 -138 q 123 -147 95 -142 q 166 -152 151 -152 q 246 -142 211 -152 q 313 -99 281 -133 q 360 0 344 -66 l 264 0 l -3 773 l 262 773 l 374 366 l 425 154 l 471 366 l 557 773 l 821 773 m 319 946 q 436 1080 370 997 q 549 1237 503 1163 l 713 1109 q 640 1005 693 1061 q 528 901 587 948 q 436 839 469 854 l 319 946 z "},"ŷ":{"ha":819,"x_min":-3,"x_max":821,"o":"m 821 773 l 577 -18 q 474 -220 537 -149 q 330 -322 411 -292 q 267 -338 306 -332 q 197 -344 229 -344 q 133 -339 179 -344 q 82 -330 87 -334 l 82 -138 q 123 -147 95 -142 q 166 -152 151 -152 q 246 -142 211 -152 q 313 -99 281 -133 q 360 0 344 -66 l 264 0 l -3 773 l 262 773 l 374 366 l 425 154 l 471 366 l 557 773 l 821 773 m 347 1175 l 498 1175 l 704 924 l 584 846 l 422 1000 l 259 846 l 140 924 l 347 1175 z "},"ÿ":{"ha":819,"x_min":-3,"x_max":821,"o":"m 821 773 l 577 -18 q 474 -220 537 -149 q 330 -322 411 -292 q 267 -338 306 -332 q 197 -344 229 -344 q 133 -339 179 -344 q 82 -330 87 -334 l 82 -138 q 123 -147 95 -142 q 166 -152 151 -152 q 246 -142 211 -152 q 313 -99 281 -133 q 360 0 344 -66 l 264 0 l -3 773 l 262 773 l 374 366 l 425 154 l 471 366 l 557 773 l 821 773 m 113 997 q 132 1066 113 1034 q 183 1116 151 1097 q 252 1135 215 1135 q 345 1100 311 1135 q 379 1007 379 1065 q 361 938 379 970 q 311 887 342 906 q 241 868 279 868 q 174 885 203 868 q 129 930 144 901 q 113 997 113 960 m 464 997 q 483 1066 464 1034 q 533 1117 501 1098 q 604 1135 566 1135 q 696 1100 662 1135 q 730 1007 730 1065 q 711 938 730 970 q 662 887 693 906 q 592 868 630 868 q 525 885 554 868 q 480 930 496 901 q 464 997 464 960 z "},"ẏ":{"ha":819,"x_min":-3,"x_max":821,"o":"m 821 773 l 577 -18 q 474 -220 537 -149 q 330 -322 411 -292 q 267 -338 306 -332 q 197 -344 229 -344 q 133 -339 179 -344 q 82 -330 87 -334 l 82 -138 q 123 -147 95 -142 q 166 -152 151 -152 q 246 -142 211 -152 q 313 -99 281 -133 q 360 0 344 -66 l 264 0 l -3 773 l 262 773 l 374 366 l 425 154 l 471 366 l 557 773 l 821 773 m 271 997 q 292 1066 271 1034 q 348 1118 313 1099 q 422 1137 382 1137 q 495 1120 463 1137 q 544 1075 526 1104 q 561 1007 561 1045 q 541 938 561 970 q 486 886 520 905 q 411 867 451 867 q 339 883 371 867 q 289 930 307 900 q 271 997 271 960 z "},"ỳ":{"ha":819,"x_min":-3,"x_max":821,"o":"m 821 773 l 577 -18 q 474 -220 537 -149 q 330 -322 411 -292 q 267 -338 306 -332 q 197 -344 229 -344 q 133 -339 179 -344 q 82 -330 87 -334 l 82 -138 q 123 -147 95 -142 q 166 -152 151 -152 q 246 -142 211 -152 q 313 -99 281 -133 q 360 0 344 -66 l 264 0 l -3 773 l 262 773 l 374 366 l 425 154 l 471 366 l 557 773 l 821 773 m 396 828 q 303 893 363 844 q 189 1001 243 941 q 113 1109 134 1060 l 278 1237 q 393 1070 325 1160 q 511 935 461 980 l 396 828 z "},"z":{"ha":753,"x_min":35,"x_max":719,"o":"m 346 541 l 387 602 l 81 602 l 83 773 l 695 773 l 719 709 l 416 239 l 371 176 l 705 176 l 705 0 l 64 0 l 35 56 l 346 541 z "},"ź":{"ha":753,"x_min":35,"x_max":719,"o":"m 292 946 q 409 1080 342 997 q 522 1237 476 1163 l 686 1109 q 613 1005 666 1061 q 501 901 560 948 q 409 839 442 854 l 292 946 m 346 541 l 387 602 l 81 602 l 83 773 l 695 773 l 719 709 l 416 239 l 371 176 l 705 176 l 705 0 l 64 0 l 35 56 l 346 541 z "},"ž":{"ha":753,"x_min":35,"x_max":719,"o":"m 419 1025 l 581 1179 l 701 1102 l 495 852 l 344 852 l 137 1103 l 256 1179 l 419 1025 m 346 541 l 387 602 l 81 602 l 83 773 l 695 773 l 719 709 l 416 239 l 371 176 l 705 176 l 705 0 l 64 0 l 35 56 l 346 541 z "},"ż":{"ha":753,"x_min":35,"x_max":719,"o":"m 346 541 l 387 602 l 81 602 l 83 773 l 695 773 l 719 709 l 416 239 l 371 176 l 705 176 l 705 0 l 64 0 l 35 56 l 346 541 m 244 997 q 265 1066 244 1034 q 320 1118 286 1099 q 395 1137 355 1137 q 468 1120 436 1137 q 516 1075 499 1104 q 534 1007 534 1045 q 513 938 534 970 q 458 886 493 905 q 384 867 424 867 q 312 883 344 867 q 262 930 280 900 q 244 997 244 960 z "},"ﬁ":{"ha":1065,"x_min":54,"x_max":970,"o":"m 54 608 l 54 755 l 151 773 l 151 852 q 194 1022 151 957 q 305 1114 237 1086 q 450 1142 372 1142 q 600 1126 532 1142 l 600 954 q 560 966 585 962 q 500 971 534 971 q 429 940 454 971 q 403 843 403 908 l 403 773 l 570 773 l 570 608 l 403 608 l 403 0 l 151 0 l 151 608 l 54 608 m 958 773 l 958 0 l 705 0 l 705 773 l 958 773 m 681 997 q 702 1066 681 1034 q 757 1118 722 1099 q 832 1137 792 1137 q 904 1120 873 1137 q 953 1075 936 1104 q 970 1007 970 1045 q 950 938 970 970 q 895 886 930 905 q 821 867 861 867 q 749 883 781 867 q 699 930 717 900 q 681 997 681 960 z "},"ﬂ":{"ha":1070,"x_min":54,"x_max":960,"o":"m 54 608 l 54 755 l 151 773 l 151 852 q 194 1022 151 957 q 305 1114 237 1086 q 450 1142 372 1142 q 600 1126 532 1142 l 600 954 q 560 966 585 962 q 500 971 534 971 q 429 940 454 971 q 403 843 403 908 l 403 773 l 570 773 l 570 608 l 403 608 l 403 0 l 151 0 l 151 608 l 54 608 m 960 1127 l 960 0 l 708 0 l 708 1127 l 960 1127 z "},"ª":{"ha":732,"x_min":76,"x_max":654,"o":"m 374 1105 q 533 1084 471 1105 q 624 1016 594 1063 q 654 889 654 968 l 654 454 l 541 454 q 491 456 505 454 q 468 469 477 458 q 459 506 459 479 l 459 515 q 419 487 447 502 q 354 461 391 471 q 279 450 317 450 q 171 474 217 450 q 100 541 125 497 q 76 642 76 584 q 113 754 76 707 q 211 825 151 802 q 325 853 263 844 q 451 863 387 863 l 451 888 q 440 933 451 918 q 407 956 430 949 q 340 962 383 962 q 267 954 310 962 q 185 934 223 946 q 133 911 148 922 l 94 1030 q 155 1061 108 1043 q 263 1092 203 1079 q 374 1105 323 1105 m 275 656 q 298 607 275 627 q 355 588 321 588 q 413 596 387 588 q 451 614 438 605 l 451 760 q 376 755 407 760 q 320 736 345 750 q 275 656 275 710 z "},"º":{"ha":730,"x_min":44,"x_max":677,"o":"m 376 1107 q 539 1066 471 1107 q 642 951 607 1025 q 677 781 677 878 q 633 593 677 668 q 517 484 589 519 q 360 450 445 450 q 189 491 260 450 q 81 606 118 532 q 44 781 44 681 q 92 966 44 892 q 216 1073 140 1039 q 376 1107 291 1107 m 366 600 q 445 641 419 600 q 471 771 471 682 q 446 906 471 857 q 371 956 420 956 q 282 916 313 956 q 251 787 251 876 q 281 650 251 701 q 366 600 311 600 z "},"Δ":{"ha":1102,"x_min":53,"x_max":1047,"o":"m 522 1023 l 549 1023 l 1047 18 l 1036 0 l 62 0 l 53 15 l 522 1023 m 531 605 l 348 197 l 726 197 l 531 605 z "},"Ω":{"ha":1240,"x_min":108,"x_max":1139,"o":"m 1139 170 l 1139 0 l 707 0 l 707 144 q 777 219 741 163 q 838 362 813 275 q 863 555 863 449 q 831 733 863 663 q 746 836 800 803 q 626 869 692 869 q 498 837 554 869 q 409 734 441 804 q 376 557 376 664 q 404 363 376 450 q 474 220 433 276 q 552 144 515 163 l 552 0 l 108 0 l 108 170 l 315 170 q 215 277 261 214 q 142 419 170 340 q 115 579 115 497 q 189 846 118 741 q 373 999 259 951 q 626 1048 488 1048 q 887 998 776 1048 q 1061 845 998 949 q 1123 585 1123 742 q 1098 422 1123 501 q 1027 278 1072 343 q 926 170 983 214 l 1139 170 z "},"μ":{"ha":954,"x_min":102,"x_max":934,"o":"m 934 59 q 901 32 927 49 q 834 1 876 15 q 743 -12 793 -12 q 657 11 690 -12 q 619 81 624 35 q 557 16 598 43 q 450 -11 517 -11 q 368 -2 402 -11 q 309 30 334 7 l 329 -252 l 102 -252 l 102 773 l 353 773 l 353 332 q 380 211 353 249 q 469 174 408 174 q 524 183 494 174 q 571 210 553 193 l 571 773 l 822 773 l 822 214 q 832 174 822 185 q 855 162 842 162 q 881 166 865 162 q 913 180 897 170 l 934 59 z "},"π":{"ha":1087,"x_min":14,"x_max":1074,"o":"m 867 155 q 920 175 895 155 q 962 213 945 194 q 983 237 979 233 l 1058 149 q 995 70 1037 107 q 892 8 953 32 q 761 -16 832 -16 q 642 27 683 -16 q 602 153 602 71 q 604 191 602 171 l 642 577 l 479 576 l 464 271 q 448 157 460 200 q 417 87 437 114 q 364 30 398 60 q 305 -1 340 12 q 228 -16 271 -14 l 90 86 q 117 96 100 88 q 148 115 133 104 q 217 206 197 155 q 245 330 237 257 l 276 576 l 228 576 q 171 569 194 576 q 133 551 147 562 q 100 522 119 541 l 14 587 q 24 642 16 610 q 50 698 33 673 q 125 754 81 736 q 252 773 169 773 l 849 773 q 911 785 890 773 q 941 824 931 796 l 1074 824 q 1047 681 1071 734 q 975 602 1023 627 q 849 577 927 577 l 835 577 l 824 236 q 834 175 822 195 q 867 155 846 155 z "},"⁄":{"ha":701,"x_min":77,"x_max":623,"o":"m 443 1038 l 623 1038 l 256 0 l 77 0 l 443 1038 z "},"½":{"ha":1752,"x_min":138,"x_max":1645,"o":"m 138 1038 q 233 1073 177 1048 q 336 1123 288 1098 q 401 1162 385 1149 l 519 1145 l 519 461 l 293 461 l 293 933 q 165 904 240 916 l 138 1038 m 1070 1038 l 703 0 l 524 0 l 890 1038 l 1070 1038 m 1645 171 l 1645 -7 l 1051 -7 l 1024 109 q 1170 198 1089 142 q 1311 323 1251 255 q 1371 452 1371 391 q 1344 523 1371 499 q 1267 547 1318 547 q 1090 448 1166 547 l 1002 565 q 1071 632 1025 599 q 1182 687 1117 665 q 1325 709 1248 709 q 1487 677 1423 709 q 1580 596 1551 645 q 1609 493 1609 547 q 1538 312 1609 395 q 1337 155 1468 229 l 1645 171 z "},"¼":{"ha":1752,"x_min":138,"x_max":1657,"o":"m 138 1038 q 232 1073 176 1048 q 336 1123 288 1098 q 400 1162 384 1149 l 518 1145 l 518 461 l 292 461 l 292 933 q 165 904 239 916 l 138 1038 m 1070 1038 l 703 0 l 524 0 l 890 1038 l 1070 1038 m 1657 127 l 1554 127 l 1554 -53 l 1351 -53 l 1352 127 l 964 127 l 928 191 l 1249 807 l 1296 807 l 1459 737 l 1202 323 l 1173 273 l 1353 273 l 1371 457 l 1554 457 l 1554 273 l 1657 273 l 1657 127 z "},"¾":{"ha":1752,"x_min":73,"x_max":1657,"o":"m 653 650 q 616 524 653 579 q 502 436 578 468 q 313 404 426 404 q 197 414 244 404 q 98 439 150 423 l 97 582 l 111 578 q 188 563 151 568 q 281 556 224 557 q 398 582 359 557 q 436 650 436 608 q 338 730 436 711 l 217 711 l 201 852 q 317 870 277 859 q 384 906 359 884 q 409 959 409 929 q 382 1005 409 989 q 298 1022 355 1021 q 210 1008 260 1022 q 119 966 159 994 l 73 1095 q 140 1132 96 1114 q 237 1161 184 1150 q 337 1172 290 1172 q 492 1148 430 1172 q 584 1085 554 1125 q 614 997 614 1046 q 585 896 614 940 q 491 819 556 852 q 610 761 568 807 q 653 650 653 715 m 1070 1038 l 703 0 l 524 0 l 890 1038 l 1070 1038 m 1657 127 l 1554 127 l 1554 -53 l 1351 -53 l 1352 127 l 964 127 l 928 191 l 1249 807 l 1296 807 l 1459 737 l 1202 323 l 1173 273 l 1353 273 l 1371 457 l 1554 457 l 1554 273 l 1657 273 l 1657 127 z "},"*":{"ha":958,"x_min":90,"x_max":867,"o":"m 441 724 l 362 638 l 186 507 l 95 673 l 291 767 l 399 795 q 361 804 396 797 q 290 821 300 817 l 90 910 l 174 1075 l 359 947 l 439 865 q 427 907 439 869 q 408 975 409 964 l 381 1192 l 566 1192 l 547 978 l 517 866 l 549 901 q 596 951 589 945 l 777 1082 l 863 918 l 668 827 l 557 796 l 669 770 l 867 685 l 774 515 l 602 642 l 519 724 q 532 677 519 718 q 551 615 549 623 l 576 396 l 392 396 l 412 614 l 441 724 z "},"\\":{"ha":585,"x_min":0,"x_max":574,"o":"m 574 -246 l 376 -246 l 0 1084 l 197 1084 l 574 -246 z "},"·":{"ha":454,"x_min":81,"x_max":372,"o":"m 81 528 q 102 604 81 568 q 157 661 122 640 q 233 682 192 682 q 307 664 275 682 q 355 613 338 646 q 372 540 372 581 q 352 464 372 499 q 298 407 332 428 q 222 385 263 385 q 149 404 181 385 q 99 455 117 422 q 81 528 81 488 z "},"•":{"ha":618,"x_min":109,"x_max":509,"o":"m 109 488 q 138 589 109 541 q 214 665 166 636 q 317 693 262 693 q 416 669 373 693 q 484 601 460 644 q 509 503 509 558 q 480 402 509 450 q 405 327 452 355 q 302 298 357 298 q 203 323 248 298 q 134 391 159 348 q 109 488 109 434 z "},":":{"ha":454,"x_min":81,"x_max":372,"o":"m 81 128 q 102 204 81 168 q 157 261 122 239 q 233 282 192 282 q 307 264 275 282 q 355 213 338 245 q 372 140 372 180 q 352 63 372 99 q 298 6 332 28 q 222 -15 263 -15 q 149 4 181 -15 q 99 55 117 22 q 81 128 81 87 m 81 627 q 102 703 81 667 q 157 760 122 739 q 233 781 192 781 q 307 763 275 781 q 355 712 338 745 q 372 639 372 680 q 352 563 372 598 q 298 506 332 527 q 222 484 263 484 q 149 503 181 484 q 99 554 117 522 q 81 627 81 587 z "},",":{"ha":475,"x_min":102,"x_max":394,"o":"m 118 -259 q 156 -194 140 -243 q 173 -81 173 -144 q 162 -22 173 -52 q 135 28 151 7 q 102 51 118 48 l 102 123 l 281 216 q 343 165 317 202 q 381 81 368 128 q 394 -7 394 35 q 369 -154 394 -83 q 301 -276 344 -224 q 208 -347 258 -328 l 118 -277 l 118 -259 z "},"…":{"ha":1352,"x_min":81,"x_max":1270,"o":"m 81 128 q 102 204 81 168 q 157 261 122 239 q 233 282 192 282 q 307 264 275 282 q 355 213 338 245 q 372 140 372 180 q 352 63 372 99 q 298 6 332 28 q 222 -15 263 -15 q 149 4 181 -15 q 99 55 117 22 q 81 128 81 87 m 531 128 q 551 204 531 168 q 607 261 572 239 q 683 282 642 282 q 755 264 724 282 q 804 213 787 245 q 821 140 821 180 q 801 63 821 99 q 747 6 782 28 q 671 -15 713 -15 q 599 4 631 -15 q 549 55 567 22 q 531 128 531 87 m 981 130 q 1001 205 981 170 q 1056 261 1021 240 q 1133 282 1091 282 q 1205 264 1174 282 q 1253 213 1236 245 q 1270 140 1270 180 q 1251 63 1270 99 q 1196 6 1231 28 q 1120 -15 1162 -15 q 1048 4 1080 -15 q 998 56 1016 23 q 981 130 981 89 z "},"!":{"ha":454,"x_min":81,"x_max":372,"o":"m 366 1207 l 339 400 l 126 400 l 90 1207 l 366 1207 m 81 130 q 102 205 81 170 q 157 261 122 240 q 233 282 192 282 q 307 264 275 282 q 355 213 338 245 q 372 140 372 180 q 352 63 372 99 q 298 6 332 28 q 221 -15 263 -15 q 149 4 180 -15 q 99 56 117 23 q 81 130 81 89 z "},"‼":{"ha":891,"x_min":79,"x_max":812,"o":"m 363 1207 l 336 400 l 123 400 l 87 1207 l 363 1207 m 79 130 q 99 205 79 170 q 154 261 119 240 q 231 282 189 282 q 304 264 273 282 q 352 213 335 245 q 369 140 369 180 q 349 63 369 99 q 295 6 330 28 q 218 -15 260 -15 q 146 4 178 -15 q 96 56 114 23 q 79 130 79 89 m 807 1207 l 780 400 l 567 400 l 531 1207 l 807 1207 m 522 130 q 543 205 522 170 q 598 261 563 240 q 674 282 633 282 q 747 264 716 282 q 795 213 779 245 q 812 140 812 180 q 793 63 812 99 q 739 6 773 28 q 662 -15 704 -15 q 589 4 621 -15 q 540 56 557 23 q 522 130 522 89 z "},"¡":{"ha":454,"x_min":77,"x_max":367,"o":"m 367 782 q 347 707 367 742 q 291 650 326 671 q 215 629 256 629 q 142 648 173 629 q 94 699 111 666 q 77 772 77 731 q 96 848 77 812 q 151 905 116 884 q 227 926 185 926 q 300 907 268 926 q 349 856 332 888 q 367 782 367 823 m 82 -296 l 109 511 l 322 511 l 358 -296 l 82 -296 z "},"#":{"ha":1159,"x_min":140,"x_max":1025,"o":"m 880 568 l 861 375 l 995 375 l 995 207 l 845 207 l 825 0 l 625 0 l 644 207 l 463 207 l 443 0 l 240 0 l 260 207 l 140 207 l 140 375 l 276 375 l 295 568 l 168 568 l 168 729 l 310 729 l 330 931 l 534 931 l 515 729 l 693 729 l 712 931 l 915 931 l 895 729 l 1025 729 l 1025 568 l 880 568 m 678 568 l 498 568 l 479 375 l 661 375 l 678 568 z "},".":{"ha":454,"x_min":81,"x_max":372,"o":"m 81 128 q 102 204 81 168 q 157 261 122 239 q 233 282 192 282 q 307 264 275 282 q 355 213 338 245 q 372 140 372 180 q 352 63 372 99 q 298 6 332 28 q 222 -15 263 -15 q 149 4 181 -15 q 99 55 117 22 q 81 128 81 87 z "},"?":{"ha":721,"x_min":72,"x_max":688,"o":"m 173 536 q 191 628 173 588 q 236 696 210 668 q 305 761 262 724 q 365 817 344 794 q 401 869 387 839 q 416 935 416 899 q 373 1028 416 996 q 232 1061 330 1061 q 72 1028 150 1061 l 72 1210 q 164 1239 98 1227 q 295 1252 230 1252 q 513 1216 425 1252 q 644 1115 601 1180 q 686 961 688 1050 q 664 845 686 893 q 610 764 642 796 q 526 692 578 732 q 456 633 481 658 q 412 573 430 608 q 391 492 393 538 q 394 448 390 470 q 408 391 398 425 l 416 363 l 223 363 q 186 439 200 400 q 173 536 173 479 m 193 122 q 213 194 193 160 q 267 247 233 227 q 340 267 300 267 q 410 250 380 267 q 457 201 440 232 q 474 132 474 170 q 455 59 474 93 q 402 5 435 26 q 328 -15 368 -15 q 258 3 289 -15 q 210 52 227 21 q 193 122 193 83 z "},"¿":{"ha":721,"x_min":29,"x_max":645,"o":"m 524 911 q 504 840 524 873 q 450 786 484 806 q 377 766 416 766 q 307 784 337 766 q 260 832 277 802 q 243 902 243 863 q 262 974 243 941 q 315 1028 281 1008 q 389 1048 349 1048 q 459 1030 428 1048 q 507 981 490 1013 q 524 911 524 950 m 544 498 q 526 406 544 446 q 481 338 507 366 q 412 273 455 310 q 352 217 373 239 q 315 165 330 195 q 300 98 300 135 q 344 5 300 37 q 485 -27 387 -27 q 645 5 567 -27 l 645 -176 q 553 -206 619 -193 q 422 -218 487 -218 q 204 -182 292 -218 q 73 -81 116 -146 q 31 73 29 -16 q 53 189 31 140 q 106 269 75 237 q 191 341 138 301 q 261 400 235 376 q 305 460 287 425 q 326 541 323 495 q 323 586 327 564 q 309 643 319 608 l 301 671 l 494 671 q 530 594 517 633 q 544 498 544 555 z "},"\"":{"ha":852,"x_min":134,"x_max":719,"o":"m 361 1155 l 333 644 l 163 644 l 134 1155 l 361 1155 m 719 1155 l 691 644 l 521 644 l 492 1155 l 719 1155 z "},"'":{"ha":495,"x_min":134,"x_max":361,"o":"m 361 1155 l 333 644 l 163 644 l 134 1155 l 361 1155 z "},";":{"ha":454,"x_min":81,"x_max":383,"o":"m 107 -259 q 145 -194 129 -243 q 162 -81 162 -144 q 151 -22 162 -52 q 124 28 140 7 q 92 51 107 48 l 92 123 l 270 216 q 332 165 307 202 q 370 81 357 128 q 383 -7 383 35 q 358 -154 383 -83 q 290 -276 333 -224 q 197 -347 248 -328 l 107 -277 l 107 -259 m 81 627 q 102 703 81 667 q 157 760 122 739 q 233 781 192 781 q 307 763 275 781 q 355 712 338 745 q 372 639 372 680 q 352 563 372 598 q 298 506 332 527 q 222 484 263 484 q 149 503 181 484 q 99 554 117 522 q 81 627 81 587 z "},"/":{"ha":585,"x_min":5,"x_max":579,"o":"m 579 1084 l 203 -246 l 5 -246 l 382 1084 l 579 1084 z "},"_":{"ha":1153,"x_min":-24,"x_max":1177,"o":"m 1177 -158 l 1177 -277 l -24 -277 l -24 -158 l 1177 -158 z "},"{":{"ha":677,"x_min":47,"x_max":602,"o":"m 410 610 q 263 526 377 567 q 409 446 374 488 q 435 371 435 417 l 435 -8 l 602 -8 l 602 -126 q 500 -144 561 -138 q 381 -150 440 -150 q 262 -104 302 -150 q 222 41 222 -58 l 222 359 q 194 407 222 385 q 125 441 166 428 q 47 458 84 455 l 47 595 q 126 611 85 600 q 195 643 167 623 q 222 690 222 663 l 222 1008 q 262 1150 222 1106 q 381 1194 301 1194 q 602 1178 475 1194 l 602 1051 l 435 1051 l 435 684 q 410 610 435 641 z "},"}":{"ha":677,"x_min":71,"x_max":626,"o":"m 450 690 q 478 643 450 663 q 547 611 506 623 q 626 595 587 600 l 626 458 q 548 441 589 455 q 478 407 507 428 q 450 359 450 385 l 450 41 q 411 -104 450 -58 q 292 -150 371 -150 q 172 -144 233 -150 q 71 -126 112 -138 l 71 -8 l 238 -8 l 238 371 q 264 446 238 417 q 410 526 299 488 q 262 610 296 567 q 238 684 238 641 l 238 1051 l 71 1051 l 71 1178 q 292 1194 198 1194 q 411 1150 372 1194 q 450 1008 450 1106 l 450 690 z "},"[":{"ha":552,"x_min":87,"x_max":475,"o":"m 87 1008 q 100 1114 87 1076 q 142 1169 113 1152 q 224 1186 171 1186 q 330 1183 283 1186 q 435 1174 376 1180 l 475 1170 l 475 1046 l 304 1046 l 304 -8 l 475 -9 l 475 -127 l 452 -130 q 338 -142 388 -138 q 224 -146 289 -146 q 142 -126 172 -146 q 99 -64 112 -106 q 87 46 87 -23 l 87 1008 z "},"]":{"ha":552,"x_min":73,"x_max":460,"o":"m 460 46 q 448 -64 460 -23 q 406 -126 435 -106 q 323 -146 376 -146 q 209 -142 258 -146 q 96 -130 159 -138 l 73 -127 l 73 -9 l 243 -8 l 243 1046 l 73 1046 l 73 1170 l 113 1174 q 218 1183 172 1180 q 323 1186 264 1186 q 406 1169 376 1186 q 448 1114 435 1152 q 460 1008 460 1076 l 460 46 z "},"(":{"ha":572,"x_min":67,"x_max":517,"o":"m 67 484 q 125 826 67 675 q 257 1070 182 977 q 388 1198 332 1162 l 517 1110 q 418 990 473 1073 q 321 777 363 908 q 279 479 279 645 q 316 189 279 317 q 407 -23 353 61 q 517 -155 460 -107 l 388 -244 q 256 -121 328 -205 q 126 117 184 -37 q 67 484 67 271 z "},")":{"ha":572,"x_min":50,"x_max":500,"o":"m 500 481 q 442 138 500 289 q 310 -105 385 -13 q 179 -234 235 -198 l 50 -146 q 149 -26 94 -109 q 245 188 203 56 q 288 485 288 319 q 251 775 288 647 q 160 987 214 903 q 50 1120 106 1072 l 179 1208 q 311 1085 239 1169 q 441 847 382 1001 q 500 481 500 694 z "},"—":{"ha":1643,"x_min":168,"x_max":1474,"o":"m 1474 613 l 1474 425 l 168 425 l 168 613 l 1474 613 z "},"–":{"ha":1158,"x_min":168,"x_max":990,"o":"m 990 613 l 990 425 l 168 425 l 168 613 l 990 613 z "},"-":{"ha":921,"x_min":172,"x_max":749,"o":"m 749 613 l 749 425 l 172 425 l 172 613 l 749 613 z "},"«":{"ha":1375,"x_min":150,"x_max":1213,"o":"m 390 417 l 659 210 l 600 38 l 150 321 l 150 513 l 600 796 l 659 625 l 390 417 m 944 417 l 1213 210 l 1154 38 l 704 321 l 704 513 l 1154 796 l 1213 625 l 944 417 z "},"»":{"ha":1375,"x_min":159,"x_max":1221,"o":"m 217 796 l 667 513 l 667 321 l 217 38 l 159 210 l 427 417 l 159 625 l 217 796 m 1221 513 l 1221 321 l 770 38 l 712 210 l 981 417 l 712 625 l 770 796 l 1221 513 z "},"‹":{"ha":822,"x_min":150,"x_max":659,"o":"m 390 417 l 659 210 l 600 38 l 150 321 l 150 513 l 600 796 l 659 625 l 390 417 z "},"›":{"ha":822,"x_min":158,"x_max":667,"o":"m 667 513 l 667 321 l 216 38 l 158 210 l 427 417 l 158 625 l 216 796 l 667 513 z "},"„":{"ha":803,"x_min":77,"x_max":720,"o":"m 99 -278 q 126 -210 115 -256 q 137 -109 137 -163 q 127 -35 137 -68 q 104 21 118 -1 q 77 50 90 43 l 77 104 l 214 207 q 274 161 244 195 q 322 75 303 127 q 340 -43 340 22 q 316 -196 340 -130 q 260 -302 292 -262 q 201 -363 229 -342 l 99 -298 l 99 -278 m 479 -278 q 506 -210 495 -256 q 517 -109 517 -163 q 507 -35 517 -68 q 484 21 498 -1 q 456 50 470 43 l 456 104 l 593 207 q 653 161 624 195 q 702 75 683 127 q 720 -43 720 22 q 696 -196 720 -130 q 640 -302 671 -262 q 581 -363 608 -342 l 479 -298 l 479 -278 z "},"“":{"ha":806,"x_min":75,"x_max":722,"o":"m 75 875 q 99 1027 75 962 q 154 1132 123 1093 q 212 1191 184 1171 l 317 1126 l 317 1107 q 289 1039 300 1086 q 278 937 278 991 q 288 864 278 897 q 311 808 297 830 q 339 778 326 786 l 339 724 l 205 621 q 144 668 174 633 q 94 756 114 703 q 75 875 75 810 m 457 875 q 481 1027 457 962 q 536 1132 505 1093 q 595 1191 567 1171 l 699 1126 l 699 1107 q 671 1039 682 1086 q 661 937 661 991 q 670 864 661 897 q 694 808 680 830 q 722 778 708 786 l 722 724 l 588 621 q 527 668 557 633 q 477 756 496 703 q 457 875 457 810 z "},"”":{"ha":808,"x_min":77,"x_max":726,"o":"m 99 706 q 126 774 115 728 q 137 876 137 821 q 127 949 137 916 q 104 1005 118 983 q 77 1034 90 1027 l 77 1088 l 214 1191 q 274 1145 244 1179 q 322 1059 303 1112 q 340 941 340 1006 q 316 788 340 854 q 260 682 292 722 q 201 621 229 642 l 99 686 l 99 706 m 484 706 q 511 774 500 728 q 522 876 522 821 q 513 949 522 916 q 489 1005 503 983 q 462 1034 475 1027 l 462 1088 l 599 1191 q 659 1145 629 1179 q 707 1059 688 1112 q 726 941 726 1006 q 701 788 726 854 q 645 682 677 722 q 586 621 614 642 l 484 686 l 484 706 z "},"‘":{"ha":423,"x_min":75,"x_max":339,"o":"m 75 875 q 99 1027 75 962 q 154 1132 123 1093 q 212 1191 184 1171 l 317 1126 l 317 1107 q 289 1039 300 1086 q 278 937 278 991 q 288 864 278 897 q 311 808 297 830 q 339 778 326 786 l 339 724 l 205 621 q 144 668 174 633 q 94 756 114 703 q 75 875 75 810 z "},"‛":{"ha":423,"x_min":75,"x_max":339,"o":"m 339 1034 q 311 1005 326 1027 q 288 949 297 983 q 278 876 278 916 q 289 774 278 821 q 317 706 300 727 l 317 686 l 212 621 q 154 681 184 642 q 99 786 123 720 q 75 938 75 851 q 94 1057 75 1003 q 144 1145 114 1110 q 205 1191 174 1179 l 339 1088 l 339 1034 z "},"’":{"ha":423,"x_min":77,"x_max":340,"o":"m 99 706 q 126 774 115 728 q 137 876 137 821 q 127 949 137 916 q 104 1005 118 983 q 77 1034 90 1027 l 77 1088 l 214 1191 q 274 1145 244 1179 q 322 1059 303 1112 q 340 941 340 1006 q 316 788 340 854 q 260 682 292 722 q 201 621 229 642 l 99 686 l 99 706 z "},"‚":{"ha":423,"x_min":77,"x_max":340,"o":"m 99 -280 q 126 -212 115 -258 q 137 -111 137 -165 q 127 -37 137 -71 q 104 19 118 -3 q 77 48 90 41 l 77 102 l 214 205 q 274 159 244 193 q 322 73 303 125 q 340 -45 340 20 q 316 -198 340 -132 q 260 -304 292 -264 q 201 -365 229 -344 l 99 -300 l 99 -280 z "}," ":{"ha":460,"x_min":0,"x_max":0,"o":""},"₵":{"ha":1018,"x_min":79,"x_max":880,"o":"m 463 -240 l 562 -240 l 583 -10 l 616 -11 q 864 43 747 -11 l 864 276 q 812 244 846 260 q 735 219 778 229 q 651 209 692 209 q 602 212 623 209 l 656 817 q 775 797 728 815 q 845 758 823 778 l 880 1001 l 844 1010 q 764 1031 801 1023 q 677 1041 727 1038 l 694 1231 l 594 1231 l 577 1042 q 321 971 433 1034 q 143 794 208 909 q 79 514 79 678 q 182 166 79 300 q 484 0 285 32 l 463 -240 m 505 241 q 374 531 374 311 q 423 709 374 640 q 555 804 471 779 l 505 241 z "},"¢":{"ha":814,"x_min":92,"x_max":709,"o":"m 709 68 q 624 17 681 39 q 503 -9 567 -5 l 500 -146 l 374 -146 l 377 -3 q 219 66 283 14 q 123 199 155 119 q 92 379 92 279 q 125 565 92 481 q 227 704 159 648 q 395 777 294 760 l 399 934 l 525 934 l 522 783 q 632 769 584 781 q 699 745 681 758 l 670 557 q 519 589 614 589 q 435 569 474 589 q 371 505 396 550 q 347 389 347 460 q 394 231 347 280 q 521 182 442 182 q 611 190 568 182 q 679 210 653 197 l 709 68 z "},"₡":{"ha":1006,"x_min":67,"x_max":911,"o":"m 411 -240 l 490 -240 l 506 -1 q 598 -9 536 -5 l 583 -240 l 663 -240 l 677 -9 q 895 43 791 -3 l 895 276 q 810 232 869 252 q 692 209 752 212 l 732 813 q 822 790 785 807 q 876 758 858 774 l 911 1001 q 871 1011 894 1004 q 747 1038 804 1031 l 760 1231 l 681 1231 l 668 1043 l 653 1043 q 575 1040 619 1043 l 588 1231 l 509 1231 l 495 1028 q 271 938 368 1003 q 121 765 175 872 q 67 514 67 659 q 158 191 67 319 q 428 16 250 62 l 411 -240 m 559 800 q 653 816 600 812 l 613 213 q 522 237 562 220 l 559 800 m 446 288 q 362 531 362 370 q 392 669 362 611 q 477 764 422 728 l 446 288 z "},"¤":{"ha":1061,"x_min":144,"x_max":930,"o":"m 840 524 q 827 431 840 476 q 787 349 813 387 l 916 216 l 816 109 l 678 250 q 530 212 610 212 q 382 249 451 212 l 246 110 l 144 216 l 273 348 q 220 524 220 428 q 273 700 220 619 l 146 831 l 246 939 l 381 800 q 530 838 450 838 q 681 798 611 838 l 828 947 l 930 838 l 789 696 q 840 524 840 618 m 531 384 q 601 403 570 384 q 650 455 632 422 q 667 524 667 487 q 650 594 667 562 q 601 645 632 626 q 531 664 570 664 q 461 645 493 664 q 411 594 429 626 q 393 524 393 562 q 411 454 393 487 q 461 403 429 422 q 531 384 493 384 z "},"$":{"ha":956,"x_min":139,"x_max":849,"o":"m 849 295 q 811 143 849 209 q 700 38 773 77 q 522 -9 627 -1 l 517 -153 l 378 -153 l 383 -6 q 239 19 305 1 q 146 53 173 37 l 178 254 q 297 209 221 229 q 448 188 374 188 q 557 209 523 188 q 591 275 591 229 q 571 330 591 307 q 513 375 551 353 q 381 440 474 396 q 204 569 269 493 q 139 760 139 645 q 214 949 139 878 q 420 1038 288 1020 l 426 1196 l 564 1196 l 558 1042 q 704 1020 642 1037 q 798 984 766 1003 l 758 790 q 660 836 725 816 q 530 856 594 856 q 423 833 458 856 q 387 769 387 810 q 405 715 387 739 q 460 669 423 691 q 566 616 498 647 q 723 530 663 572 q 817 430 784 487 q 849 295 849 374 z "},"₫":{"ha":943,"x_min":98,"x_max":921,"o":"m 559 836 q 456 846 518 846 q 268 805 348 846 q 144 686 188 764 q 101 499 101 608 q 138 332 101 400 q 238 231 175 264 q 378 197 300 197 q 474 209 434 197 q 536 236 513 221 q 581 272 559 252 l 581 224 q 597 197 581 197 l 808 197 l 808 918 l 921 918 l 921 1031 l 808 1031 l 808 1149 l 557 1149 l 557 1031 l 336 1031 l 336 918 l 557 918 l 559 836 m 349 503 q 377 640 349 593 q 467 687 406 687 q 525 681 503 687 q 557 667 547 675 l 557 397 q 447 366 509 366 q 376 400 402 366 q 349 503 349 435 m 847 134 l 98 134 l 98 0 l 847 0 l 847 134 z "},"€":{"ha":1002,"x_min":57,"x_max":937,"o":"m 937 29 q 912 24 925 28 q 886 16 899 20 q 788 -9 840 0 q 650 -19 737 -19 q 349 68 463 -19 q 198 320 235 156 l 57 320 l 57 459 l 182 459 q 181 488 181 469 q 184 572 181 528 l 77 572 l 77 711 l 210 711 q 369 953 255 869 q 650 1043 482 1037 q 683 1044 662 1044 q 789 1036 747 1044 q 876 1014 830 1028 q 918 1002 896 1007 l 882 806 q 800 842 842 831 q 684 852 758 852 q 550 818 607 852 q 464 711 494 783 l 793 711 l 793 572 l 436 572 q 435 540 435 562 q 438 459 435 494 l 762 459 l 762 320 l 465 320 q 546 206 491 245 q 689 167 600 167 q 807 181 750 167 q 896 218 863 196 l 937 29 z "},"ƒ":{"ha":811,"x_min":138,"x_max":762,"o":"m 138 606 l 150 751 l 258 773 l 264 839 q 327 1017 275 949 q 456 1113 380 1084 q 622 1142 533 1142 q 706 1137 665 1142 q 762 1126 747 1132 l 747 946 q 708 959 734 954 q 644 964 681 964 q 558 926 591 964 q 517 815 525 888 l 513 773 l 689 773 l 675 606 l 499 606 l 424 -241 l 170 -241 l 244 606 l 138 606 z "},"₣":{"ha":859,"x_min":37,"x_max":789,"o":"m 153 0 l 397 0 l 397 147 l 580 147 l 580 297 l 397 297 l 397 404 l 702 404 l 702 585 l 397 585 l 397 850 l 789 850 l 789 1032 l 153 1032 l 153 297 l 37 297 l 37 147 l 153 147 l 153 0 z "},"₲":{"ha":1044,"x_min":47,"x_max":949,"o":"m 461 -175 l 602 -175 l 603 -10 q 738 4 686 -7 q 848 34 791 15 q 903 51 882 45 q 949 57 924 56 l 949 592 l 553 592 l 553 397 l 696 382 l 696 217 q 644 201 676 205 q 562 197 612 197 q 442 238 494 197 q 362 355 391 280 q 334 529 334 431 q 366 687 334 621 q 460 788 398 753 q 610 823 522 823 q 774 807 699 823 q 886 768 850 790 l 893 1002 q 868 1006 881 1004 q 843 1012 856 1009 q 743 1032 791 1024 q 635 1042 695 1040 l 635 1195 l 495 1195 l 495 1038 q 261 963 361 1023 q 104 790 161 903 q 47 511 47 677 q 99 255 47 364 q 244 80 151 145 q 463 -3 338 15 l 461 -175 z "},"₤":{"ha":1110,"x_min":68,"x_max":1074,"o":"m 269 494 l 142 494 l 142 389 l 269 389 l 269 373 q 265 267 269 310 q 247 215 260 224 q 164 196 205 212 q 95 152 123 180 q 68 84 68 123 q 102 16 68 37 q 183 -5 136 -5 q 263 15 220 -5 q 331 57 307 35 q 371 51 349 56 q 434 36 393 46 q 586 2 516 14 q 743 -10 656 -10 q 930 22 857 -10 q 1039 110 1004 54 q 1074 239 1074 165 q 1037 362 1074 312 q 965 436 1001 412 l 763 348 q 784 329 772 342 q 804 297 795 315 q 812 258 812 278 q 776 188 812 214 q 670 162 739 162 q 600 170 633 162 q 520 191 566 177 l 488 200 q 543 389 538 245 l 723 389 l 723 494 l 543 494 l 543 571 l 738 571 l 738 675 l 543 675 q 559 767 544 734 q 605 812 574 799 q 686 825 635 825 q 779 807 735 825 q 844 768 823 789 l 953 970 q 844 1022 906 1000 q 682 1043 782 1043 q 462 1000 555 1043 q 319 879 368 956 q 269 701 269 802 l 269 675 l 157 675 l 157 571 l 269 571 l 269 494 z "},"₺":{"ha":1021,"x_min":89,"x_max":966,"o":"m 479 465 l 743 575 l 743 688 l 479 578 l 479 711 l 758 829 l 758 949 l 479 831 l 479 1043 l 222 1043 l 222 723 l 89 667 l 89 547 l 222 603 l 222 471 l 96 419 l 96 306 l 222 358 l 222 0 l 479 0 q 740 55 630 0 q 908 211 850 109 q 966 450 966 313 l 966 488 l 739 488 q 711 325 736 389 q 630 228 686 261 q 479 195 574 195 l 479 465 z "},"₦":{"ha":1305,"x_min":57,"x_max":1274,"o":"m 199 358 l 57 358 l 57 258 l 199 258 l 199 0 l 472 0 l 472 258 l 712 258 l 875 0 l 1143 0 l 1143 258 l 1253 258 l 1253 358 l 1143 358 l 1143 674 l 1274 674 l 1274 774 l 1143 774 l 1143 1032 l 869 1032 l 869 774 l 619 774 l 451 1032 l 199 1032 l 199 774 l 73 774 l 73 674 l 199 674 l 199 358 m 459 674 l 536 539 l 650 358 l 472 358 l 472 424 l 438 674 l 459 674 m 869 601 l 899 358 l 878 358 l 806 488 l 684 674 l 869 674 l 869 601 z "},"₧":{"ha":1073,"x_min":28,"x_max":1065,"o":"m 135 0 l 421 0 l 421 295 q 456 294 442 295 q 543 293 496 293 q 850 376 741 293 q 973 623 958 459 l 1065 623 l 1065 722 l 974 722 q 858 969 962 895 q 560 1043 753 1043 q 385 1037 502 1043 q 270 1032 310 1032 l 135 1032 l 135 722 l 28 722 l 28 623 l 135 623 l 135 0 m 540 851 q 648 817 610 851 q 696 722 686 783 l 421 722 l 421 844 q 540 851 467 850 m 696 623 q 548 488 675 488 q 441 492 493 488 l 421 493 l 421 623 l 696 623 z "},"₱":{"ha":1095,"x_min":51,"x_max":1074,"o":"m 145 612 l 51 612 l 51 540 l 145 540 l 145 0 l 432 0 l 432 258 q 465 257 452 258 l 554 256 q 839 328 734 256 q 975 540 945 399 l 1074 540 l 1074 612 l 985 612 q 986 654 986 640 l 985 689 l 1074 689 l 1074 762 l 978 762 q 850 978 953 913 q 571 1043 748 1043 q 394 1037 513 1043 q 281 1032 321 1032 l 145 1032 l 145 762 l 51 762 l 51 689 l 145 689 l 145 612 m 553 851 q 640 828 605 851 q 692 762 674 804 l 432 762 l 432 844 q 553 851 488 851 m 432 612 l 432 689 l 709 689 q 711 653 711 672 q 709 612 711 632 l 432 612 m 692 540 q 558 450 656 450 q 432 456 490 450 l 432 540 l 692 540 z "},"₹":{"ha":1023,"x_min":128,"x_max":954,"o":"m 647 424 q 739 517 703 460 q 791 648 774 575 l 932 648 l 932 781 l 800 781 q 772 901 796 854 l 954 901 l 954 1032 l 128 1032 l 128 901 l 336 901 q 440 887 403 901 q 493 847 477 873 q 511 781 509 821 l 128 781 l 128 648 l 502 648 q 445 547 486 581 q 347 513 404 513 l 216 513 q 128 515 144 513 l 128 364 q 248 360 166 360 q 363 362 298 360 l 393 365 q 450 287 422 338 q 515 156 478 236 q 575 38 553 75 q 616 0 597 0 l 909 0 q 852 83 878 37 q 794 200 827 129 q 747 296 766 260 q 703 367 728 332 q 647 424 677 401 z "},"₪":{"ha":1457,"x_min":182,"x_max":1342,"o":"m 722 853 q 797 839 773 853 q 827 800 821 825 q 833 728 833 775 l 833 704 l 833 268 l 1042 268 l 1042 745 q 1021 916 1042 854 q 951 1005 1000 977 q 815 1032 902 1032 l 182 1032 l 182 0 l 391 0 l 391 853 l 722 853 m 876 166 q 766 177 802 166 q 718 213 730 188 q 705 288 705 238 l 705 745 l 490 745 l 490 288 q 562 67 490 134 q 777 0 633 0 l 1342 0 l 1342 1032 l 1133 1032 l 1133 166 l 876 166 z "},"£":{"ha":1096,"x_min":70,"x_max":1036,"o":"m 932 427 q 1003 360 970 405 q 1036 240 1036 316 q 1001 109 1036 165 q 893 21 966 52 q 711 -11 821 -11 q 566 2 629 -11 q 431 36 504 14 q 367 53 389 48 q 323 59 345 58 q 258 15 300 35 q 178 -5 216 -5 q 103 16 136 -5 q 70 84 70 38 q 96 150 70 122 q 164 194 123 178 q 250 211 205 209 q 269 271 263 223 q 274 373 274 319 l 274 467 l 155 467 l 155 604 l 274 604 l 274 696 q 319 877 274 798 q 451 999 363 955 q 661 1043 538 1043 q 924 973 816 1043 l 825 789 q 760 827 801 810 q 676 844 720 844 q 595 831 627 844 q 546 777 564 819 q 528 654 528 735 l 528 604 l 726 604 l 726 467 l 528 467 l 528 389 q 460 186 528 243 q 483 180 473 183 q 503 175 494 177 q 582 157 550 163 q 654 151 614 151 q 763 177 726 151 q 800 249 800 203 q 785 306 800 279 q 754 343 771 332 l 932 427 z "},"₩":{"ha":1510,"x_min":43,"x_max":1468,"o":"m 1264 406 l 1292 522 l 1468 522 l 1468 653 l 1324 653 l 1416 1032 l 1208 1032 l 1137 653 l 951 653 l 861 1032 l 659 1032 l 568 653 l 387 653 l 316 1032 l 94 1032 l 186 653 l 43 653 l 43 522 l 218 522 l 246 406 l 43 406 l 43 275 l 278 275 l 346 -5 l 593 -5 l 654 275 l 852 275 l 916 -5 l 1165 -5 l 1232 275 l 1468 275 l 1468 406 l 1264 406 m 733 653 l 751 783 l 771 653 l 733 653 m 509 406 l 432 406 l 411 522 l 536 522 l 509 406 m 823 406 l 683 406 l 708 522 l 797 522 l 823 406 m 1089 406 l 1010 406 l 982 522 l 1112 522 l 1089 406 m 469 154 l 452 275 l 486 275 l 469 154 m 1055 163 l 1035 275 l 1070 275 l 1055 163 z "},"¥":{"ha":1071,"x_min":88,"x_max":998,"o":"m 710 577 l 885 577 l 885 435 l 652 435 l 652 312 l 885 312 l 885 170 l 652 170 l 652 0 l 419 0 l 419 170 l 179 170 l 179 312 l 419 312 l 419 435 l 179 435 l 179 577 l 376 577 l 88 1032 l 357 1032 l 493 785 l 543 673 l 593 784 l 732 1032 l 998 1032 l 710 577 z "},"Ω":{"ha":1240,"x_min":106,"x_max":1138,"o":"m 1138 170 l 1138 0 l 705 0 l 705 144 q 775 219 739 163 q 837 362 812 275 q 862 555 862 449 q 830 733 862 663 q 745 836 798 803 q 625 869 691 869 q 496 837 553 869 q 407 734 440 804 q 374 557 374 664 q 403 363 374 450 q 472 220 431 276 q 551 144 513 163 l 551 0 l 106 0 l 106 170 l 313 170 q 214 277 260 214 q 141 419 168 340 q 114 579 113 497 q 187 846 117 741 q 372 999 258 951 q 625 1048 486 1048 q 886 998 774 1048 q 1059 845 997 949 q 1122 585 1122 742 q 1096 422 1122 501 q 1026 278 1071 343 q 925 170 981 214 l 1138 170 z "},"≈":{"ha":981,"x_min":125,"x_max":853,"o":"m 130 267 q 172 333 138 296 q 256 399 205 371 q 364 427 307 427 q 429 418 400 427 q 478 398 458 410 q 526 366 499 386 q 581 332 558 342 q 633 321 604 321 q 689 332 664 321 q 730 356 713 342 q 767 391 746 370 l 853 281 q 813 216 846 252 q 730 155 780 180 q 623 130 680 130 q 560 138 587 130 q 514 158 533 146 q 471 189 495 170 q 417 225 440 214 q 360 237 393 237 q 306 227 330 237 q 266 203 281 216 q 228 167 250 189 l 130 267 m 125 616 q 167 683 134 645 q 252 748 201 720 q 359 776 302 776 q 424 767 395 776 q 474 747 453 759 q 521 715 494 735 q 576 681 553 692 q 629 670 599 670 q 684 681 659 670 q 725 705 709 692 q 762 741 741 719 l 848 631 q 808 565 841 601 q 725 505 775 530 q 618 479 675 479 q 555 488 583 479 q 509 508 528 496 q 467 538 490 519 q 412 575 435 563 q 355 587 389 587 q 301 576 325 587 q 261 552 277 566 q 223 516 245 538 l 125 616 z "},"~":{"ha":981,"x_min":129,"x_max":852,"o":"m 129 566 q 171 632 137 594 q 255 697 204 669 q 363 725 306 725 q 428 716 399 725 q 477 696 456 708 q 524 665 498 684 q 579 630 557 641 q 632 619 602 619 q 687 630 663 619 q 728 654 712 641 q 766 690 745 668 l 852 580 q 811 514 844 550 q 728 454 779 479 q 621 429 678 429 q 559 437 586 429 q 513 457 532 445 q 470 488 494 469 q 415 524 439 512 q 359 536 392 536 q 304 525 328 536 q 264 501 280 515 q 227 465 248 488 l 129 566 z "},"∙":{"ha":455,"x_min":66,"x_max":389,"o":"m 66 528 q 88 612 66 572 q 150 675 111 652 q 235 699 189 699 q 316 679 281 699 q 370 622 351 658 q 389 541 389 586 q 367 455 389 495 q 307 392 345 416 q 222 368 269 368 q 141 389 176 368 q 86 446 106 410 q 66 528 66 482 z "},"÷":{"ha":961,"x_min":129,"x_max":831,"o":"m 352 839 q 373 914 352 879 q 428 970 393 949 q 505 991 463 991 q 578 973 547 991 q 626 923 609 955 q 642 850 642 891 q 622 775 642 810 q 568 719 602 740 q 492 698 533 698 q 419 716 451 698 q 370 767 387 734 q 352 839 352 799 m 831 616 l 831 433 l 129 433 l 129 616 l 831 616 m 351 207 q 371 282 351 247 q 426 337 391 317 q 503 358 461 358 q 575 340 545 358 q 623 291 606 322 q 640 219 640 259 q 621 144 640 179 q 566 87 601 109 q 490 66 532 66 q 417 84 449 66 q 368 135 386 102 q 351 207 351 167 z "},"∕":{"ha":579,"x_min":-77,"x_max":656,"o":"m 656 1084 l 131 -246 l -77 -246 l 448 1084 l 656 1084 z "},"=":{"ha":970,"x_min":172,"x_max":798,"o":"m 798 783 l 798 613 l 172 613 l 172 783 l 798 783 m 798 439 l 798 268 l 172 268 l 172 439 l 798 439 z "},">":{"ha":932,"x_min":144,"x_max":784,"o":"m 784 578 l 784 474 l 144 144 l 144 371 l 492 525 l 144 701 l 144 920 l 784 578 z "},"≥":{"ha":933,"x_min":157,"x_max":814,"o":"m 814 604 l 814 494 l 157 212 l 157 410 l 533 545 l 157 684 l 157 889 l 814 604 m 157 159 l 814 159 l 814 -1 l 157 -1 l 157 159 z "},"∆":{"ha":1102,"x_min":53,"x_max":1047,"o":"m 522 1023 l 549 1023 l 1047 18 l 1036 0 l 62 0 l 53 15 l 522 1023 m 531 605 l 348 197 l 726 197 l 531 605 z "},"∞":{"ha":1425,"x_min":50,"x_max":1375,"o":"m 1034 732 q 1225 689 1148 732 q 1338 575 1301 647 q 1375 416 1375 504 q 1333 255 1375 328 q 1212 141 1291 183 q 1028 98 1133 98 q 829 139 907 98 q 694 252 750 180 q 406 102 566 104 q 209 144 289 100 q 90 261 129 187 q 50 423 50 335 q 92 581 50 510 q 213 694 134 652 q 395 735 291 735 q 594 693 513 735 q 731 577 674 652 q 869 690 793 648 q 1034 732 945 732 m 1029 271 q 1099 290 1069 271 q 1147 343 1130 309 q 1164 424 1164 378 q 1146 495 1164 463 q 1091 545 1128 527 q 1002 564 1055 564 q 815 454 903 564 q 912 323 858 376 q 1029 271 966 271 m 420 270 q 610 378 519 270 q 512 507 568 455 q 393 559 455 559 q 324 542 354 559 q 277 492 294 524 q 260 416 260 460 q 278 343 260 377 q 332 290 296 310 q 420 270 368 270 z "},"∫":{"ha":737,"x_min":62,"x_max":686,"o":"m 132 -119 q 164 -148 140 -132 q 217 -175 188 -164 q 274 -186 247 -186 q 377 -141 348 -186 q 406 -17 407 -97 q 386 107 405 43 q 339 230 367 171 q 266 375 311 289 q 189 530 218 467 q 139 663 159 593 q 117 801 118 732 q 153 976 115 899 q 269 1097 190 1053 q 465 1142 347 1142 q 598 1117 536 1142 q 686 1049 661 1091 l 597 925 q 574 949 592 936 q 531 972 557 963 q 478 982 505 982 q 372 939 409 982 q 335 817 335 897 q 354 693 335 756 q 400 571 372 629 q 474 426 427 513 q 553 269 524 333 q 604 134 583 205 q 625 -8 625 62 q 589 -176 625 -98 q 477 -303 553 -254 q 288 -351 401 -351 q 200 -339 246 -351 q 116 -307 153 -328 q 62 -262 78 -287 l 132 -119 z "},"<":{"ha":933,"x_min":143,"x_max":783,"o":"m 783 701 l 435 525 l 783 371 l 783 144 l 143 474 l 143 578 l 783 920 l 783 701 z "},"≤":{"ha":933,"x_min":113,"x_max":770,"o":"m 770 684 l 395 545 l 770 410 l 770 212 l 113 494 l 113 604 l 770 889 l 770 684 m 113 159 l 770 159 l 770 -1 l 113 -1 l 113 159 z "},"¬":{"ha":1002,"x_min":165,"x_max":837,"o":"m 837 578 l 837 203 l 652 203 l 652 410 l 165 410 l 165 578 l 837 578 z "},"µ":{"ha":954,"x_min":102,"x_max":934,"o":"m 934 59 q 901 32 927 49 q 834 1 876 15 q 743 -12 793 -12 q 657 11 690 -12 q 619 81 624 35 q 557 16 598 43 q 450 -11 517 -11 q 368 -2 402 -11 q 309 30 334 7 l 329 -252 l 102 -252 l 102 773 l 353 773 l 353 332 q 380 211 353 249 q 469 174 408 174 q 524 183 494 174 q 571 210 553 193 l 571 773 l 822 773 l 822 214 q 832 174 822 185 q 855 162 842 162 q 881 166 865 162 q 913 180 897 170 l 934 59 z "},"−":{"ha":921,"x_min":172,"x_max":749,"o":"m 749 613 l 749 425 l 172 425 l 172 613 l 749 613 z "},"×":{"ha":951,"x_min":101,"x_max":851,"o":"m 101 795 l 227 916 l 477 646 l 725 916 l 851 795 l 594 527 l 850 266 l 724 140 l 475 402 l 227 140 l 101 266 l 358 526 l 101 795 z "},"≠":{"ha":970,"x_min":172,"x_max":798,"o":"m 581 613 l 524 439 l 798 439 l 798 268 l 468 268 l 420 121 l 277 121 l 327 268 l 172 268 l 172 439 l 385 439 l 443 613 l 172 613 l 172 783 l 500 783 l 541 913 l 685 913 l 640 783 l 798 783 l 798 613 l 581 613 z "},"∂":{"ha":966,"x_min":71,"x_max":898,"o":"m 367 1175 q 663 1086 543 1175 q 840 853 783 998 q 898 541 898 709 q 447 -20 898 -20 q 262 30 348 -20 q 125 167 176 81 q 73 355 74 253 q 129 580 71 493 q 280 706 186 667 q 484 745 373 745 q 572 735 535 745 q 642 709 609 726 q 538 919 617 842 q 335 995 458 995 q 239 980 289 995 q 154 941 189 965 l 74 1076 q 211 1149 134 1123 q 367 1175 288 1175 m 492 146 q 592 199 557 146 q 639 318 627 252 q 651 444 651 385 q 652 540 651 483 q 579 579 616 566 q 494 593 541 593 q 367 538 408 593 q 325 373 325 484 q 363 207 325 268 q 492 146 401 146 z "},"%":{"ha":1551,"x_min":67,"x_max":1484,"o":"m 67 717 q 111 890 67 817 q 225 1001 154 963 q 380 1039 297 1039 q 539 997 475 1039 q 633 884 602 956 q 663 721 663 812 q 620 548 663 621 q 505 437 576 475 q 351 399 433 399 q 193 441 256 399 q 98 554 129 483 q 67 717 67 626 m 1062 1038 l 684 0 l 493 0 l 870 1038 l 1062 1038 m 471 715 q 443 837 471 791 q 366 882 416 882 q 287 840 315 882 q 259 724 259 798 q 287 603 259 648 q 363 557 315 557 q 443 599 415 557 q 471 715 471 641 m 888 315 q 931 488 888 415 q 1046 599 975 561 q 1200 637 1118 637 q 1359 595 1295 637 q 1453 482 1423 554 q 1484 319 1484 410 q 1440 146 1484 219 q 1326 35 1397 73 q 1172 -3 1255 -3 q 1013 39 1077 -3 q 919 152 949 81 q 888 315 888 224 m 1291 314 q 1263 435 1291 390 q 1187 480 1236 480 q 1107 438 1135 480 q 1080 322 1080 397 q 1107 201 1080 246 q 1184 156 1135 156 q 1263 198 1236 156 q 1291 314 1291 239 z "},"‰":{"ha":2205,"x_min":67,"x_max":2138,"o":"m 67 717 q 111 890 67 817 q 225 1001 154 963 q 380 1039 297 1039 q 539 997 475 1039 q 633 884 602 956 q 663 721 663 812 q 620 548 663 621 q 505 437 576 475 q 351 399 433 399 q 193 441 256 399 q 98 554 129 483 q 67 717 67 626 m 1062 1038 l 684 0 l 493 0 l 870 1038 l 1062 1038 m 471 715 q 443 837 471 791 q 366 882 416 882 q 287 840 315 882 q 259 724 259 798 q 287 603 259 648 q 363 557 315 557 q 443 599 415 557 q 471 715 471 641 m 888 315 q 931 488 888 415 q 1046 599 975 561 q 1200 637 1118 637 q 1359 595 1295 637 q 1453 482 1423 554 q 1484 319 1484 410 q 1440 146 1484 219 q 1326 35 1397 73 q 1172 -3 1255 -3 q 1013 39 1077 -3 q 919 152 949 81 q 888 315 888 224 m 1541 315 q 1585 488 1541 415 q 1700 599 1628 561 q 1855 637 1771 637 q 2013 595 1950 637 q 2107 483 2077 554 q 2138 319 2138 411 q 2094 146 2138 219 q 1980 35 2051 73 q 1826 -3 1908 -3 q 1667 39 1731 -3 q 1572 152 1603 81 q 1541 315 1541 224 m 1291 314 q 1263 435 1291 390 q 1187 480 1236 480 q 1107 438 1135 480 q 1080 322 1080 397 q 1107 201 1080 246 q 1184 156 1135 156 q 1263 198 1236 156 q 1291 314 1291 239 m 1945 314 q 1917 435 1945 390 q 1841 480 1889 480 q 1762 438 1790 480 q 1733 322 1733 396 q 1761 201 1733 246 q 1838 156 1789 156 q 1917 198 1889 156 q 1945 314 1945 239 z "},"+":{"ha":950,"x_min":127,"x_max":822,"o":"m 384 437 l 275 434 l 127 434 l 127 618 l 275 618 l 384 614 l 380 752 l 380 888 l 569 888 l 569 752 l 565 614 l 671 618 l 822 618 l 822 434 l 671 434 l 565 437 l 569 298 l 569 168 l 380 168 l 380 298 l 384 437 z "},"±":{"ha":950,"x_min":127,"x_max":822,"o":"m 384 437 l 275 434 l 127 434 l 127 618 l 275 618 l 384 614 l 380 752 l 380 888 l 569 888 l 569 752 l 565 614 l 671 618 l 822 618 l 822 434 l 671 434 l 565 437 l 569 298 l 569 168 l 380 168 l 380 298 l 384 437 m 783 158 l 783 0 l 158 0 l 158 158 l 783 158 z "},"∏":{"ha":1164,"x_min":47,"x_max":1116,"o":"m 1116 845 l 960 844 l 960 -117 l 705 -117 l 705 844 l 455 844 l 455 -117 l 199 -117 l 199 844 l 47 845 l 47 1032 l 1116 1032 l 1116 845 z "},"√":{"ha":1117,"x_min":67,"x_max":1156,"o":"m 1156 1268 l 692 -240 l 477 -240 l 266 256 l 153 199 l 67 390 l 259 486 l 437 486 l 582 52 l 907 1268 l 1156 1268 z "},"∑":{"ha":1019,"x_min":100,"x_max":904,"o":"m 904 66 l 904 -115 l 117 -115 l 100 -67 l 471 463 l 100 978 l 120 1032 l 865 1032 l 865 843 l 455 843 l 720 467 l 456 66 l 904 66 z "},"◊":{"ha":932,"x_min":47,"x_max":884,"o":"m 467 1050 l 884 530 l 884 521 l 467 -1 l 463 -1 l 47 521 l 47 530 l 464 1050 l 467 1050 m 279 523 l 464 281 l 466 281 l 651 524 l 651 526 l 466 757 l 464 757 l 279 526 l 279 523 z "},"|":{"ha":585,"x_min":195,"x_max":390,"o":"m 390 1207 l 390 -126 l 195 -126 l 195 1207 l 390 1207 z "},"¦":{"ha":585,"x_min":195,"x_max":390,"o":"m 390 1207 l 390 660 l 195 660 l 195 1207 l 390 1207 m 390 410 l 390 -126 l 195 -126 l 195 410 l 390 410 z "},"@":{"ha":1522,"x_min":97,"x_max":1417,"o":"m 857 166 q 614 -3 753 -3 q 516 30 563 -3 q 439 129 469 63 q 410 288 410 195 q 454 492 410 389 q 593 664 499 595 q 825 732 687 732 q 909 722 867 732 q 980 695 952 712 l 1114 716 q 1079 545 1094 623 q 1026 286 1043 365 q 1015 198 1015 229 q 1024 154 1015 168 q 1051 140 1033 140 q 1153 185 1103 140 q 1235 318 1202 231 q 1267 523 1267 406 q 1207 756 1267 668 q 1052 880 1146 844 q 848 917 958 917 q 552 842 689 917 q 333 625 415 767 q 250 290 250 482 q 317 13 250 119 q 490 -138 385 -93 q 719 -184 595 -184 q 862 -172 802 -184 q 960 -143 923 -159 q 1040 -104 997 -127 l 1071 -216 q 923 -286 1009 -258 q 705 -313 836 -313 q 398 -248 535 -313 q 179 -47 260 -182 q 97 290 97 88 q 199 683 97 511 q 474 951 302 856 q 851 1046 647 1046 q 1142 987 1014 1046 q 1344 814 1271 928 q 1417 541 1417 701 q 1357 240 1417 363 q 1202 57 1297 117 q 1001 -3 1107 -3 q 891 31 926 -3 q 856 144 856 64 l 857 166 m 667 172 q 760 233 710 172 q 848 384 810 294 q 896 552 886 474 q 858 575 883 567 q 800 584 832 584 q 700 545 746 584 q 628 441 654 505 q 601 309 601 378 q 619 207 601 241 q 667 172 637 172 z "},"&":{"ha":1044,"x_min":41,"x_max":1015,"o":"m 890 162 q 1015 138 943 138 l 1015 -1 q 909 -11 970 -11 q 720 35 806 -11 q 503 -11 610 -11 q 157 64 273 -11 q 41 278 41 138 q 96 431 41 369 q 250 538 151 494 q 184 657 208 598 q 161 783 161 717 q 199 925 161 865 q 308 1017 237 985 q 473 1048 378 1048 q 633 1015 564 1048 q 740 924 702 982 q 777 795 777 867 q 749 660 777 716 q 673 567 720 604 q 559 496 627 529 q 646 387 596 447 q 738 281 695 327 q 766 343 757 308 q 776 409 776 378 q 773 459 776 439 q 767 502 771 478 l 764 519 l 964 519 q 974 408 974 477 q 952 267 974 327 q 890 162 930 206 m 477 890 q 406 862 432 890 q 380 789 380 833 q 388 735 380 760 q 414 687 397 711 q 466 618 431 662 q 572 793 572 685 q 550 861 572 831 q 477 890 528 890 m 473 157 q 561 165 524 157 q 449 289 506 223 q 349 410 393 354 q 293 356 311 385 q 274 290 274 327 q 322 192 274 227 q 473 157 370 157 z "},"¶":{"ha":976,"x_min":33,"x_max":848,"o":"m 327 527 q 112 606 191 527 q 33 846 33 684 q 134 1079 33 998 q 446 1160 236 1160 q 643 1154 495 1160 q 733 1150 666 1153 q 848 1147 800 1147 l 848 0 l 655 0 l 654 1015 l 519 1015 l 519 0 l 327 0 l 327 527 z "},"©":{"ha":1418,"x_min":119,"x_max":1299,"o":"m 709 1246 q 1006 1167 871 1246 q 1221 951 1142 1088 q 1299 653 1299 815 q 1221 354 1299 490 q 1006 137 1142 217 q 709 57 871 57 q 411 137 547 57 q 197 354 276 217 q 119 653 119 490 q 197 951 119 815 q 411 1167 276 1088 q 709 1246 547 1246 m 709 144 q 961 213 848 144 q 1138 397 1074 281 q 1202 653 1202 514 q 1138 908 1202 792 q 961 1093 1074 1025 q 709 1161 848 1161 q 457 1093 570 1161 q 279 908 344 1025 q 215 653 215 792 q 279 397 215 514 q 457 213 344 281 q 709 144 570 144 m 742 987 q 842 975 794 987 q 914 949 889 964 l 889 810 q 826 837 867 826 q 745 848 785 848 q 657 825 695 848 q 598 762 619 803 q 576 669 576 722 q 622 514 576 564 q 745 464 667 464 q 834 477 795 464 q 898 507 874 490 l 928 389 q 836 340 895 360 q 712 319 777 319 q 552 365 621 319 q 444 486 482 410 q 406 650 406 562 q 445 823 406 747 q 560 943 484 899 q 742 987 635 987 z "}}}
